<?xml version="1.0" encoding="UTF-8"?>
<svg width="712px" height="296px" viewBox="0 0 712 296" version="1.1" xmlns="http://www.w3.org/2000/svg" xmlns:xlink="http://www.w3.org/1999/xlink">
    <!-- Generator: Sketch 43.2 (39069) - http://www.bohemiancoding.com/sketch -->
    <title>accenture</title>
    <desc>Created with Sketch.</desc>
    <defs></defs>
    <g id="Page-1" stroke="none" stroke-width="1" fill="none" fill-rule="evenodd">
        <g id="accenture" fill-rule="nonzero">
            <rect id="Rectangle-path" fill="#FFFFFF" x="0" y="0" width="712" height="295.429993"></rect>
            <polygon id="Fill-2" fill="#FF9500" points="413.386931 78.930814 451.396256 64.719186 413.386931 49.7790698 413.386931 30 478.482198 56.3680233 478.482198 72.7732558 413.386931 99.2918605"></polygon>
            <path d="M635.969053,155.845349 L664.515492,155.845349 C664.074511,144.563953 658.976933,139.73314 650.533563,139.73314 C643.833888,139.73314 637.72084,143.39186 635.969053,155.845349 L635.969053,155.845349 Z M651.116143,204.625581 C629.127779,204.625581 614.13038,191.443605 614.13038,165.954651 L614.13038,164.489535 C614.13038,138.85407 630.00165,124.788953 650.387918,124.788953 C669.317735,124.788953 685.193051,135.484302 685.193051,160.826744 L685.193051,170.056977 L635.681808,170.056977 C636.555679,183.825 642.377437,189.099419 651.553079,189.099419 C659.705158,189.099419 664.074511,184.70814 665.535008,179.140698 L685.193051,179.140698 C682.862729,193.641279 671.069522,204.625581 651.116143,204.625581 L651.116143,204.625581 Z M563.296194,126.404651 L584.556333,126.404651 L584.556333,140.465698 C589.071331,130.209884 596.207941,125.37907 607.418568,125.37907 L607.418568,146.468605 C593.003749,146.468605 584.556333,150.863953 584.556333,163.610465 L584.556333,203.018023 L563.296194,203.018023 L563.296194,126.404651 Z M547.853768,203.018023 L526.589584,203.018023 L526.589584,191.736628 C522.952502,199.062209 515.815892,204.625581 504.451529,204.625581 C490.764935,204.625581 480.715423,196.274419 480.715423,178.261628 L480.715423,126.404651 L502.125253,126.404651 L502.125253,175.038372 C502.125253,183.825 505.616689,187.927326 513.190235,187.927326 C520.618135,187.927326 526.589584,183.238953 526.589584,173.719767 L526.589584,126.404651 L547.853768,126.404651 L547.853768,203.018023 Z M453.184454,103.255814 L453.184454,126.404651 L467.748964,126.404651 L467.748964,142.366279 L453.184454,142.366279 L453.184454,178.697093 C453.184454,184.411047 455.806066,187.048256 460.757999,187.048256 C463.816546,187.048256 466.142822,186.608721 468.181853,185.733721 L468.181853,202.431977 C465.709932,203.164535 461.486224,204.043605 456.243001,204.043605 C439.643505,204.043605 431.77867,196.425 431.77867,180.894767 L431.77867,142.366279 L422.894319,142.366279 L422.894319,126.404651 L431.77867,126.404651 L431.77867,112.042442 L453.184454,103.255814 Z M346.139352,126.404651 L367.399491,126.404651 L367.399491,137.828488 C371.190309,130.649419 378.759808,124.788953 390.411416,124.788953 C404.247701,124.788953 413.419296,133.140116 413.419296,151.743023 L413.419296,203.018023 L392.155112,203.018023 L392.155112,154.966279 C392.155112,146.03314 388.51803,142.073256 380.79884,142.073256 C373.374985,142.073256 367.399491,146.615116 367.399491,156.284884 L367.399491,203.018023 L346.139352,203.018023 L346.139352,126.404651 Z M283.803249,155.845349 L312.349689,155.845349 C311.908708,144.563953 306.815175,139.73314 298.367759,139.73314 C291.67213,139.73314 285.555036,143.39186 283.803249,155.845349 L283.803249,155.845349 Z M298.95034,204.625581 C276.961975,204.625581 261.964576,191.443605 261.964576,165.954651 L261.964576,164.489535 C261.964576,138.85407 277.835846,124.788953 298.222114,124.788953 C317.151931,124.788953 333.027247,135.484302 333.027247,160.826744 L333.027247,170.056977 L283.516005,170.056977 C284.389876,183.825 290.211634,189.099419 299.387275,189.099419 C307.539355,189.099419 311.908708,184.70814 313.369205,179.140698 L333.027247,179.140698 C330.696926,193.641279 318.903718,204.625581 298.95034,204.625581 L298.95034,204.625581 Z M219.136825,204.625581 C198.022332,204.625581 182.733642,191.443605 182.733642,165.515116 L182.733642,164.489535 C182.733642,138.561047 199.041848,124.788953 219.282471,124.788953 C236.610192,124.788953 250.883411,133.579651 252.631153,153.647674 L232.244884,153.647674 C230.934079,146.179651 227.147306,141.340698 219.719406,141.340698 C210.68941,141.340698 204.430716,148.519767 204.430716,163.610465 L204.430716,165.954651 C204.430716,181.484884 209.961184,188.513372 219.869097,188.513372 C227.147306,188.513372 232.532129,183.092442 233.69729,174.741279 L253.072134,174.741279 C251.611637,192.176163 239.814384,204.625581 219.136825,204.625581 L219.136825,204.625581 Z M139.905892,204.625581 C118.791398,204.625581 103.502708,191.443605 103.502708,165.515116 L103.502708,164.489535 C103.502708,138.561047 119.810914,124.788953 140.051537,124.788953 C157.379258,124.788953 171.656523,133.579651 173.400219,153.647674 L153.013951,153.647674 C151.703145,146.179651 147.916372,141.340698 140.488472,141.340698 C131.458476,141.340698 125.199782,148.519767 125.199782,163.610465 L125.199782,165.954651 C125.199782,181.484884 130.73025,188.513372 140.638163,188.513372 C147.916372,188.513372 153.301195,183.092442 154.466356,174.741279 L173.8412,174.741279 C172.380703,192.176163 160.58345,204.625581 139.905892,204.625581 L139.905892,204.625581 Z M70.4331795,177.525 L70.4331795,170.203488 L61.9857637,170.203488 C51.4993166,170.203488 46.1144936,173.133721 46.1144936,180.015698 L46.1144936,180.748256 C46.1144936,186.022674 49.3186858,189.685465 56.4552957,189.685465 C63.7375506,189.685465 70.4331795,185.587209 70.4331795,177.525 L70.4331795,177.525 Z M50.0469113,204.625581 C36.356272,204.625581 25,197.597093 25,182.06686 L25,181.187791 C25,162.29186 41.3082054,156.138372 60.966248,156.138372 L70.4331795,156.138372 L70.4331795,152.479651 C70.4331795,144.861047 67.0833422,140.168605 59.2185069,140.168605 C52.0859427,140.168605 48.2991701,144.27093 47.7165897,150.135465 L27.3303216,150.135465 C28.7827269,133.140116 42.182076,124.788953 60.2380225,124.788953 C78.589305,124.788953 91.6973639,132.700581 91.6973639,151.743023 L91.6973639,203.018023 L70.8701148,203.018023 L70.8701148,194.227326 C67.2289873,199.794767 60.2380225,204.625581 50.0469113,204.625581 L50.0469113,204.625581 Z" id="Fill-3" fill="#000000"></path>
        </g>
    </g>
</svg>