<?xml version="1.0" encoding="UTF-8"?>
<svg width="200px" height="85px" viewBox="0 0 200 85" version="1.1" xmlns="http://www.w3.org/2000/svg" xmlns:xlink="http://www.w3.org/1999/xlink">
    <!-- Generator: Sketch 43.2 (39069) - http://www.bohemiancoding.com/sketch -->
    <title>accenture</title>
    <desc>Created with Sketch.</desc>
    <defs></defs>
    <g id="Page-1" stroke="none" stroke-width="1" fill="none" fill-rule="evenodd">
        <g id="accenture">
            <g id="Group" transform="translate(18.000000, 21.000000)">
                <polygon id="Fill-2" fill="#FF9500" points="96 12.023 105.395 8.531 96 4.86 96 0 112.09 6.479 112.09 10.51 96 17.026"></polygon>
                <path d="M151.017,30.922 L158.073,30.922 C157.964,28.15 156.704,26.963 154.617,26.963 C152.961,26.963 151.45,27.862 151.017,30.922 L151.017,30.922 Z M154.761,42.908 C149.326,42.908 145.619,39.669 145.619,33.406 L145.619,33.046 C145.619,26.747 149.542,23.291 154.581,23.291 C159.26,23.291 163.184,25.919 163.184,32.146 L163.184,34.414 L150.946,34.414 C151.162,37.797 152.601,39.093 154.869,39.093 C156.884,39.093 157.964,38.014 158.325,36.646 L163.184,36.646 C162.608,40.209 159.693,42.908 154.761,42.908 L154.761,42.908 Z M133.054,23.688 L138.309,23.688 L138.309,27.143 C139.425,24.623 141.189,23.436 143.96,23.436 L143.96,28.618 C140.397,28.618 138.309,29.698 138.309,32.83 L138.309,42.513 L133.054,42.513 L133.054,23.688 Z M129.237,42.513 L123.981,42.513 L123.981,39.741 C123.082,41.541 121.318,42.908 118.509,42.908 C115.126,42.908 112.642,40.856 112.642,36.43 L112.642,23.688 L117.934,23.688 L117.934,35.638 C117.934,37.797 118.797,38.805 120.669,38.805 C122.505,38.805 123.981,37.653 123.981,35.314 L123.981,23.688 L129.237,23.688 L129.237,42.513 Z M105.837,18 L105.837,23.688 L109.437,23.688 L109.437,27.61 L105.837,27.61 L105.837,36.537 C105.837,37.941 106.485,38.589 107.709,38.589 C108.465,38.589 109.04,38.481 109.544,38.266 L109.544,42.369 C108.933,42.549 107.889,42.765 106.593,42.765 C102.49,42.765 100.546,40.893 100.546,37.077 L100.546,27.61 L98.35,27.61 L98.35,23.688 L100.546,23.688 L100.546,20.159 L105.837,18 Z M79.378,23.688 L84.633,23.688 L84.633,26.495 C85.57,24.731 87.441,23.291 90.321,23.291 C93.741,23.291 96.008,25.343 96.008,29.914 L96.008,42.513 L90.752,42.513 L90.752,30.706 C90.752,28.511 89.853,27.538 87.945,27.538 C86.11,27.538 84.633,28.654 84.633,31.03 L84.633,42.513 L79.378,42.513 L79.378,23.688 Z M63.97,30.922 L71.026,30.922 C70.917,28.15 69.658,26.963 67.57,26.963 C65.915,26.963 64.403,27.862 63.97,30.922 L63.97,30.922 Z M67.714,42.908 C62.279,42.908 58.572,39.669 58.572,33.406 L58.572,33.046 C58.572,26.747 62.495,23.291 67.534,23.291 C72.213,23.291 76.137,25.919 76.137,32.146 L76.137,34.414 L63.899,34.414 C64.115,37.797 65.554,39.093 67.822,39.093 C69.837,39.093 70.917,38.014 71.278,36.646 L76.137,36.646 C75.561,40.209 72.646,42.908 67.714,42.908 L67.714,42.908 Z M47.986,42.908 C42.767,42.908 38.988,39.669 38.988,33.298 L38.988,33.046 C38.988,26.675 43.019,23.291 48.022,23.291 C52.305,23.291 55.833,25.451 56.265,30.382 L51.226,30.382 C50.902,28.547 49.966,27.358 48.13,27.358 C45.898,27.358 44.351,29.122 44.351,32.83 L44.351,33.406 C44.351,37.222 45.718,38.949 48.167,38.949 C49.966,38.949 51.297,37.617 51.585,35.565 L56.374,35.565 C56.013,39.849 53.097,42.908 47.986,42.908 L47.986,42.908 Z M28.402,42.908 C23.183,42.908 19.404,39.669 19.404,33.298 L19.404,33.046 C19.404,26.675 23.435,23.291 28.438,23.291 C32.721,23.291 36.25,25.451 36.681,30.382 L31.642,30.382 C31.318,28.547 30.382,27.358 28.546,27.358 C26.314,27.358 24.767,29.122 24.767,32.83 L24.767,33.406 C24.767,37.222 26.134,38.949 28.583,38.949 C30.382,38.949 31.713,37.617 32.001,35.565 L36.79,35.565 C36.429,39.849 33.513,42.908 28.402,42.908 L28.402,42.908 Z M11.23,36.249 L11.23,34.45 L9.142,34.45 C6.55,34.45 5.219,35.17 5.219,36.861 L5.219,37.041 C5.219,38.337 6.011,39.237 7.775,39.237 C9.575,39.237 11.23,38.23 11.23,36.249 L11.23,36.249 Z M6.191,42.908 C2.807,42.908 0,41.181 0,37.365 L0,37.149 C0,32.506 4.031,30.994 8.89,30.994 L11.23,30.994 L11.23,30.095 C11.23,28.223 10.402,27.07 8.458,27.07 C6.695,27.07 5.759,28.078 5.615,29.519 L0.576,29.519 C0.935,25.343 4.247,23.291 8.71,23.291 C13.246,23.291 16.486,25.235 16.486,29.914 L16.486,42.513 L11.338,42.513 L11.338,40.353 C10.438,41.721 8.71,42.908 6.191,42.908 L6.191,42.908 Z" id="Fill-3" fill="#000000"></path>
            </g>
        </g>
    </g>
</svg>