<?xml version="1.0" encoding="UTF-8"?>
<svg width="712px" height="296px" viewBox="0 0 712 296" version="1.1" xmlns="http://www.w3.org/2000/svg" xmlns:xlink="http://www.w3.org/1999/xlink">
    <!-- Generator: Sketch 43.2 (39069) - http://www.bohemiancoding.com/sketch -->
    <title>ANDDigital</title>
    <desc>Created with Sketch.</desc>
    <defs></defs>
    <g id="Page-1" stroke="none" stroke-width="1" fill="none" fill-rule="evenodd">
        <g id="Group-2" fill-rule="nonzero">
            <g id="ANDDigital">
                <g id="Group">
                    <g id="BG" fill="#FFFFFF">
                        <rect id="Rectangle-path" x="0" y="0" width="712" height="295.399994"></rect>
                    </g>
                    <path d="M417.729,121.762 C413.396,116.318 407.062,113.095 397.843,113.095 L386.733,113.095 L386.734,164.199 L397.844,164.199 C407.063,164.199 413.397,160.977 417.729,155.534 C421.286,151.091 423.394,145.09 423.394,138.647 C423.394,132.203 421.284,126.205 417.729,121.762 Z M396.178,99.765 C408.508,99.765 416.618,102.431 422.949,107.097 C432.504,114.206 438.393,125.761 438.393,138.647 C438.393,151.534 432.505,163.088 422.95,170.198 C416.619,174.865 408.509,177.53 396.179,177.53 L371.736,177.53 L371.735,99.765 L396.178,99.765 L396.178,99.765 Z M555.257,177.53 L540.814,177.53 L540.813,123.651 L555.256,123.651 L555.257,177.53 Z M548.033,98.585 C552.922,98.585 556.872,102.327 556.872,107.216 C556.872,112.104 552.922,115.846 548.033,115.846 C543.144,115.846 539.193,112.104 539.193,107.216 C539.193,102.327 543.144,98.585 548.033,98.585 L548.033,98.585 Z M513.703,142.534 C510.705,138.537 505.928,135.871 500.372,135.871 C491.93,135.871 486.486,142.869 486.486,150.646 C486.486,159.089 492.596,165.31 500.707,165.31 C506.151,165.31 510.928,162.643 513.703,158.644 L513.703,142.534 Z M528.145,174.53 C528.145,184.195 526.48,188.669 523.259,193.223 C518.371,200.002 509.705,204 499.374,204 C488.819,204 478.821,199.111 473.488,192.891 L482.599,183.447 C485.487,186.558 490.488,191.225 499.374,191.225 C504.04,191.225 507.929,189.78 510.37,186.892 C512.594,184.447 513.703,181.114 513.703,174.226 L513.703,173.753 C509.372,177.086 504.707,178.641 499.263,178.641 C491.265,178.641 483.599,175.086 478.82,169.532 C474.6,164.643 472.044,157.977 472.044,150.646 C472.043,134.758 483.82,122.539 498.484,122.539 C504.596,122.539 510.039,124.539 514.261,127.981 L514.261,123.651 L528.145,123.651 L528.145,174.53 L528.145,174.53 Z M462.496,177.53 L448.053,177.53 L448.052,123.651 L462.495,123.651 L462.496,177.53 Z M455.273,98.585 C460.161,98.585 464.113,102.327 464.113,107.216 C464.113,112.104 460.161,115.847 455.273,115.847 C450.385,115.847 446.434,112.104 446.434,107.216 C446.434,102.327 450.384,98.585 455.273,98.585 L455.273,98.585 Z M599.588,177.529 C597.697,178.196 593.365,178.641 590.588,178.641 C581.925,178.641 575.592,175.752 571.925,170.864 C569.147,167.197 567.927,162.422 567.927,154.755 L567.926,135.871 L567.926,108.652 L582.368,108.652 L582.368,123.651 L597.45,123.651 L597.45,135.87 L582.368,135.871 L582.369,156.422 C582.369,159.756 582.923,161.755 584.145,163.2 C585.588,164.865 587.922,165.864 591.477,165.864 C593.588,165.864 596.366,165.53 597.364,165.309 L599.588,177.529 L599.588,177.529 Z M646.249,142.534 C643.246,138.536 638.471,135.87 632.916,135.87 C624.473,135.87 619.029,142.869 619.029,150.645 C619.029,159.089 625.139,165.309 633.248,165.309 C638.692,165.309 643.469,162.643 646.249,158.644 L646.249,142.534 Z M660.689,177.529 L646.803,177.529 L646.803,173.196 C642.358,176.975 637.249,178.641 631.805,178.641 C623.808,178.641 616.252,175.086 611.476,169.532 C607.255,164.643 604.589,157.976 604.589,150.645 C604.589,134.758 616.364,122.539 631.028,122.539 C637.138,122.539 642.582,124.539 646.803,127.981 L646.803,123.651 L660.689,123.651 L660.689,177.529 L660.689,177.529 Z" id="Shape" fill="#DB3045"></path>
                    <polyline id="Shape" fill="#DB3045" points="687.802 177.529 673.358 177.529 673.357 99.765 687.801 99.765 687.802 177.529"></polyline>
                </g>
                <polygon id="Shape" fill="#DB3045" points="26.06 77.276 349.247 77.276 349.247 200.017 26.06 200.017"></polygon>
                <polyline id="Shape" fill="#FFFFFF" points="226.505 177.529 207.676 177.529 167.57 130.475 167.57 177.529 148.742 177.529 148.742 99.765 167.57 99.765 207.676 146.772 207.676 99.765 226.505 99.765 226.505 177.529"></polyline>
                <path d="M287.88,158.7 L277.743,158.7 L277.743,118.594 L287.88,118.594 C298.937,118.594 307.932,127.59 307.932,138.647 C307.932,149.704 298.937,158.7 287.88,158.7 Z M287.88,99.765 L248.994,99.765 L248.994,118.594 L258.914,118.594 L258.914,158.7 L248.994,158.7 L248.994,177.529 L287.88,177.529 C309.318,177.529 326.758,160.088 326.758,138.647 C326.758,117.208 309.318,99.765 287.88,99.765 L287.88,99.765 Z M107.424,148.78 L67.318,148.78 L67.318,138.643 C67.318,127.585 76.314,118.591 87.372,118.591 C98.428,118.591 107.424,127.585 107.424,138.643 L107.424,148.78 Z M87.372,99.765 C65.932,99.765 48.489,117.205 48.489,138.643 L48.489,177.529 L67.318,177.529 L67.318,167.608 L107.424,167.608 L107.424,177.529 L126.252,177.529 L126.252,138.643 C126.252,117.205 108.811,99.765 87.372,99.765 L87.372,99.765 Z" id="Shape" fill="#FFFFFF"></path>
            </g>
        </g>
    </g>
</svg>