<?xml version="1.0" encoding="utf-8"?>
<!-- Generator: Adobe Illustrator 19.2.1, SVG Export Plug-In . SVG Version: 6.00 Build 0)  -->
<svg version="1.1" id="Layer_1" xmlns="http://www.w3.org/2000/svg" xmlns:xlink="http://www.w3.org/1999/xlink" x="0px" y="0px"
	 viewBox="0 0 623.6 255.1" style="enable-background:new 0 0 623.6 255.1;" xml:space="preserve">
<style type="text/css">
	.st0{fill:#FFFFFF;}
	.st1{fill:#3A67B0;}
	.st2{fill:#26BCED;}
	.st3{fill:#44AC34;}
	.st4{fill:#EF7900;}
	.st5{fill-rule:evenodd;clip-rule:evenodd;fill:#E63A11;}
	.st6{fill:#E63A11;}
</style>
<title>balsamiq</title>
<g id="BG">
	<rect class="st0" width="623.6" height="255.1"/>
</g>
<g>
	<path class="st1" d="M98.2,77c33.4,0,60.5,27.1,60.5,60.5c0,33.4-27.1,60.5-60.5,60.5c-32.4,0-58.8-25.4-60.5-57.4l-0.1-3V66.2
		v-9.9c0-3.8,3.3-6.9,7.4-6.9h2c4.1,0,7.4,3.1,7.4,6.9v11.9v0.1v27.4l0.9-1C66.3,83.8,81.5,77,98.2,77L98.2,77z M141.9,137.6
		c0-24.1-19.6-43.7-43.7-43.7c-24.1,0-43.7,19.6-43.7,43.7c0,24.1,19.6,43.7,43.7,43.7C122.3,181.3,141.9,161.7,141.9,137.6
		L141.9,137.6z"/>
	<path class="st2" d="M243.3,138.4v30.6c0,3.8-3.3,6.9-7.4,6.9h-2c-3.6,0-6.6-2.4-7.2-5.5l-0.1-1.3l-0.9,0.6
		c-5.6,3.4-12.1,5.3-19,5.3c-20.3,0-36.7-16.4-36.7-36.7c0-20.3,16.4-36.8,36.7-36.8s36.7,16.4,36.7,36.8V138.4L243.3,138.4
		L243.3,138.4z M228.4,138.2c0-12.1-9.8-21.9-21.9-21.9c-12.1,0-21.9,9.8-21.9,21.9c0,12,9.8,21.8,21.9,21.8
		C218.6,160.1,228.4,150.3,228.4,138.2L228.4,138.2z"/>
	<path class="st3" d="M352.7,56.3v83.9h0l0,0.6c-1.3,25.9-22.8,46.6-49,46.6c-27.1,0-49.1-22-49.1-49.1c0-27.1,22-49.1,49.1-49.1
		c11.8,0,22.7,4.2,31.2,11.2l1.1,0.9V62.4v-6.2c0-3.8,3.3-6.9,7.4-6.9h2C349.3,49.4,352.7,52.5,352.7,56.3L352.7,56.3z M335.9,138.2
		c0-17.8-14.5-32.3-32.3-32.3c-17.8,0-32.3,14.5-32.3,32.3c0,17.8,14.5,32.3,32.3,32.3C321.4,170.5,335.9,156,335.9,138.2
		L335.9,138.2z"/>
	<path class="st4" d="M433.9,69.4c37.6,0,68.2,30.5,68.2,68.2s-30.6,68.2-68.2,68.2c-37.6,0-68.2-30.5-68.2-68.2
		S396.3,69.4,433.9,69.4L433.9,69.4z M485.4,137.6c0-28.5-23.1-51.5-51.5-51.5c-28.5,0-51.5,23.1-51.5,51.5
		c0,28.4,23.1,51.5,51.5,51.5C462.3,189.1,485.4,166,485.4,137.6L485.4,137.6z"/>
	<path class="st5" d="M409,125.1c6.9,0,12.5,5.6,12.5,12.4c0,6.9-5.6,12.5-12.5,12.5s-12.5-5.6-12.5-12.5
		C396.6,130.6,402.2,125.1,409,125.1L409,125.1z"/>
	<path class="st6" d="M549.2,101.5c20.3,0,36.7,16.4,36.7,36.8c0,20.2-16.5,36.7-36.7,36.7c-20.3,0-36.7-16.4-36.7-36.7
		C512.5,117.9,528.9,101.5,549.2,101.5L549.2,101.5z M571.1,138.2c0-12.1-9.8-21.9-21.9-21.9c-12,0-21.9,9.8-21.9,21.9
		c0,12.1,9.8,21.9,21.9,21.9C561.3,160.1,571.1,150.3,571.1,138.2L571.1,138.2z"/>
</g>
</svg>
