<?xml version="1.0" encoding="utf-8"?>
<!-- Generator: Adobe Illustrator 19.2.1, SVG Export Plug-In . SVG Version: 6.00 Build 0)  -->
<svg version="1.1" id="Layer_1" xmlns="http://www.w3.org/2000/svg" xmlns:xlink="http://www.w3.org/1999/xlink" x="0px" y="0px"
	 viewBox="0 0 623.6 255.1" style="enable-background:new 0 0 623.6 255.1;" xml:space="preserve">
<style type="text/css">
	.st0{fill:#FFFFFF;}
	.st1{fill:#CC0000;}
</style>
<title>balsamiq</title>
<g id="BG">
	<rect class="st0" width="623.6" height="255.1"/>
</g>
<g id="Logo">
	<path class="st1" d="M57.3,170.1c0.3-4.6,0.6-11.4,0.6-17.4V71.5h12.5v42.2h0.3c4.4-7.5,12.5-12.4,23.6-12.4
		c17.2,0,29.4,13.9,29.2,34.3c0,24-15.6,36-31.1,36c-10,0-18-3.8-23.2-12.6h-0.4l-0.6,11.1H57.3z M70.3,143.1c0,1.5,0.2,3,0.6,4.4
		c2.3,8.5,10.1,14.4,18.9,14.3c13.2,0,21-10.4,21-25.9c0-13.5-7.2-25-20.6-25c-9.1,0.1-16.9,6.2-19.2,15c-0.4,1.6-0.7,3.3-0.7,5
		L70.3,143.1z"/>
	<path class="st1" d="M175.3,170.1l-1-8.5h-0.4c-3.9,5.3-11.3,10-21.2,10c-14,0-21.2-9.6-21.2-19.3c0-16.3,14.9-25.2,41.7-25v-1.4
		c0-5.6-1.6-15.6-15.8-15.6c-6.3,0-12.6,1.7-18,5l-2.9-8.1c5.7-3.6,14-6,22.8-6c21.2,0,26.4,14,26.4,27.5V154
		c-0.1,5.4,0.3,10.8,1.1,16.1L175.3,170.1z M173.4,135.8c-13.8-0.3-29.4,2.1-29.4,15.1c0,7.9,5.4,11.7,11.9,11.7
		c9,0,14.8-5.6,16.8-11.3c0.4-1.2,0.7-2.6,0.7-3.9L173.4,135.8z"/>
	<path class="st1" d="M202.3,71.5h12.6v98.7h-12.6V71.5z"/>
	<path class="st1" d="M230,157.6c5,3,10.7,4.7,16.6,4.9c9.2,0,13.5-4.4,13.5-10c0-5.8-3.6-9-12.9-12.4c-12.5-4.3-18.3-11-18.3-19
		c0-10.8,9-19.7,23.9-19.7c5.9-0.1,11.8,1.4,17,4.2l-3.1,8.9c-4.3-2.6-9.2-3.9-14.2-3.9c-7.4,0-11.6,4.2-11.6,9.2
		c0,5.6,4.1,8.1,13.2,11.4c12,4.4,18.2,10.3,18.2,20.3c0,11.8-9.5,20.1-25.9,20.1c-7.6,0-14.6-1.8-19.5-4.6L230,157.6z"/>
	<path class="st1" d="M324.7,170.1l-1-8.5h-0.4c-3.9,5.3-11.3,10-21.2,10c-14,0-21.2-9.6-21.2-19.3c0-16.3,14.9-25.2,41.7-25v-1.4
		c0-5.6-1.6-15.6-15.8-15.6c-6.3,0-12.6,1.7-18,5l-2.9-8.1c5.7-3.6,14-6,22.8-6c21.2,0,26.4,14,26.4,27.5V154
		c-0.1,5.4,0.3,10.8,1.1,16.1L324.7,170.1z M322.9,135.8c-13.8-0.3-29.4,2.1-29.4,15.1c0,7.9,5.4,11.7,11.9,11.7
		c9,0,14.8-5.6,16.8-11.3c0.4-1.3,0.7-2.6,0.7-3.9V135.8z"/>
	<path class="st1" d="M351.6,121.1c0-6.9-0.1-12.7-0.6-18.2h11l0.6,10.8h0.4c3.9-6.4,10.3-12.4,21.8-12.4
		c8.7-0.2,16.6,5.3,19.6,13.5h0.3c1.9-3.4,4.6-6.4,7.7-8.8c4.1-3.1,8.7-4.7,15.3-4.7c9.2,0,22.8,5.8,22.8,29.2v39.6h-12.3v-38.1
		c0-12.9-4.9-20.7-15-20.7c-7.2,0-12.7,5.1-14.9,11.1c-0.7,2-1,4-1,6.1v41.6H395v-40.3c0-10.7-4.9-18.5-14.5-18.5
		c-7.9,0-13.6,6.1-15.6,12.2c-0.7,1.9-1,4-1,6v40.6h-12.3V121.1z"/>
	<path class="st1" d="M481.5,84c0.1,4.2-3,7.5-8,7.5c-4.1,0.1-7.5-3.1-7.6-7.2c0-0.1,0-0.2,0-0.3c0-4.2,3.3-7.6,7.5-7.6
		c0.1,0,0.3,0,0.4,0c4.1-0.2,7.5,3,7.7,7C481.5,83.6,481.5,83.8,481.5,84z M467.5,170.2v-67.3H480v67.3L467.5,170.2z"/>
	<path class="st1" d="M545,159.7h-0.3c-3.7,6.7-11.5,12-22.6,12c-16.2,0-29.4-13.6-29.4-34c0-25.2,16.8-36.3,31.4-36.3
		c10.7,0,17.9,5.1,21.3,11.7h0.3l0.4-10.1H558c-0.3,5.7-0.4,11.5-0.4,18.5v76.3H545V159.7z M545,130.1c0-1.7-0.2-3.5-0.6-5.1
		c-2-8.3-9.5-14-18-13.9c-13,0-20.9,10.7-20.9,25.8c0,13.3,6.6,25,20.5,25c8.2,0,15.2-4.9,18-13.3c0.6-1.9,1-3.9,1-5.8V130.1z"/>
	<path class="st1" d="M590.3,110.8c-0.3,5.8-5.3,10.3-11.1,10c-5.4-0.3-9.7-4.6-10-10c0-5.5,4.7-10,10.6-10S590.3,105.3,590.3,110.8
		z M571.8,110.8c-0.1,4.3,3.3,7.9,7.7,8c0.1,0,0.2,0,0.3,0c4.3,0.1,7.8-3.4,7.8-7.6c0-0.1,0-0.2,0-0.3c0.2-4.4-3.2-8.1-7.6-8.2
		c-4.4-0.2-8.1,3.2-8.2,7.6C571.8,110.5,571.8,110.7,571.8,110.8L571.8,110.8z M578.2,116h-2.4v-10c1.3-0.2,2.6-0.3,4-0.3
		c1.2-0.1,2.5,0.2,3.6,0.7c0.7,0.5,1,1.3,1,2.2c-0.1,1.2-1,2.1-2.1,2.3v0.1c1,0.4,1.7,1.3,1.9,2.4c0.1,0.9,0.4,1.7,0.8,2.5h-2.6
		c-0.4-0.8-0.7-1.6-0.8-2.4c-0.2-1.1-0.8-1.6-2.1-1.6h-1.1V116z M578.2,110.4h1.1c1.3,0,2.4-0.4,2.4-1.5s-0.7-1.5-2.2-1.5
		c-0.4,0-0.9,0-1.3,0.1V110.4z"/>
</g>
</svg>
