<svg xmlns="http://www.w3.org/2000/svg" viewBox="0 0 623.62 255.12"><defs><style>.cls-1{fill:#fff;}</style></defs><title>cisco</title><g id="BG"><rect class="cls-1" width="623.62" height="255.12"/></g><g id="Logo"><path d="M129.84,147a10.91,10.91,0,0,0-5.25-1.32,6.61,6.61,0,1,0,0,13.2,11,11,0,0,0,5.25-1.31v6.64a20,20,0,0,1-5.69.88c-7,0-13.19-4.84-13.19-12.81,0-7.39,5.58-12.81,13.19-12.81a19.06,19.06,0,0,1,5.69.89Zm-65.16,0a10.84,10.84,0,0,0-5.24-1.32,6.61,6.61,0,1,0,0,13.2,11,11,0,0,0,5.24-1.31v6.64a19.84,19.84,0,0,1-5.69.88c-7,0-13.17-4.84-13.17-12.81,0-7.39,5.58-12.81,13.17-12.81a19,19,0,0,1,5.69.89Zm84.8-1.23a6.51,6.51,0,1,1-6.45,6.51,6.4,6.4,0,0,1,6.45-6.51m13.07,6.51a13.07,13.07,0,1,0-13.07,12.81,12.7,12.7,0,0,0,13.07-12.81m-59.38-6.74a21.36,21.36,0,0,0-4.88-.76c-2.5,0-3.86.84-3.86,2,0,1.51,1.84,2,2.86,2.36l1.72.55c4.05,1.29,5.9,4.06,5.9,7.08,0,6.22-5.47,8.3-10.24,8.3a37.26,37.26,0,0,1-6.74-.68v-5.69a23.42,23.42,0,0,0,5.89.92c3.11,0,4.53-.91,4.53-2.31s-1.24-2-2.78-2.46l-1.33-.43c-3.48-1.1-6.38-3.14-6.38-7.24,0-4.63,3.46-7.73,9.22-7.73a26.73,26.73,0,0,1,6.08.79Zm-64-25.72a3.1,3.1,0,0,1-6.2,0v-6.49a3.1,3.1,0,0,1,6.2,0Zm17,0a3.1,3.1,0,0,1-6.2,0v-15a3.1,3.1,0,0,1,6.2,0Zm17,6.17a3.1,3.1,0,0,1-6.2,0V93.13a3.1,3.1,0,0,1,6.2,0Zm17-6.17a3.1,3.1,0,0,1-6.2,0v-15a3.1,3.1,0,0,1,6.2,0Zm17,0a3.09,3.09,0,1,1-6.18,0v-6.49a3.09,3.09,0,0,1,6.18,0Zm17,0a3.09,3.09,0,1,1-6.18,0v-15a3.09,3.09,0,1,1,6.18,0Zm17,6.17a3.09,3.09,0,1,1-6.18,0V93.13a3.09,3.09,0,0,1,6.18,0Zm17-6.17a3.11,3.11,0,0,1-6.22,0v-15a3.11,3.11,0,0,1,6.22,0Zm17,0a3.09,3.09,0,1,1-6.18,0v-6.49a3.09,3.09,0,0,1,6.18,0Zm-3.57,41.58v.39h-1.1v2.87h-.45v-2.87h-1.11v-.39Zm.23,0h.71l1,2.67h0l.94-2.67h.7v3.26h-.46V162h0l-1,2.67h-.43l-1-2.67h0v2.67H172ZM79.5,164.64H73.26V139.9H79.5Z"/><path id="SVGID" d="M225.7,71.15v74.94h25.77c21.32,0,33.82-11.24,33.82-37.47,0-25.6-11.94-37.47-34-37.47Zm25.12,15.7c11.9,0,19.49,6.79,19.49,22.4s-7.39,21.18-19.29,21.18H240.36V86.85Zm272.87,15.88H499.06V86.12h32.42v-15H483.82v74.94l47.66.1V132l-32.42-.1V117h24.64ZM393.16,71.15l-15.59,38.9-15.4-38.9H345.71l29.7,74.94h4l29.21-74.94Zm65.24,0-.1,41.72L418.78,71.15h-2.45v74.94h14.94V106.86l39.82,39.08h2.44V71.15Zm131.25,0H539.32v15h17.91l.13,59.91h14.26l-.13-59.91h18.17Zm-256.6,31.58H308.43V86.12h32.42v-15H293.19v74.94l47.66.1V132l-32.42-.1V117h24.64Z"/><path d="M236.75,179.65l-.41-1.75a4.83,4.83,0,0,1-4.15,2.11c-3.15,0-5.52-2.3-5.52-6.53,0-4.47,2.33-6.68,5.67-6.68a4.71,4.71,0,0,1,4,1.94v-6.39h2.31v17.29ZM232.69,178c2.38,0,3.77-1.87,3.77-4.49,0-3.05-1.46-4.78-3.77-4.78s-3.63,1.49-3.63,4.75C229.06,176.53,230.6,178,232.69,178Z"/><path d="M260.59,176a5.43,5.43,0,0,1-5.59,4c-3.55,0-6.12-2.21-6.12-6.6s2.55-6.6,6-6.6,5.86,2.07,5.86,7.11h-9.51c.19,2.88,1.75,4.15,3.84,4.15a3,3,0,0,0,3-2Zm-9.27-4h7.06c-.17-2.33-1.54-3.43-3.46-3.43S251.68,169.78,251.32,172.08Z"/><path d="M281,167.16l-4.39,12.49h-3.12l-4.35-12.49h2.52l3.46,10.61,3.48-10.61Z"/><path d="M301.06,176a5.43,5.43,0,0,1-5.59,4c-3.55,0-6.12-2.21-6.12-6.6s2.55-6.6,6-6.6,5.86,2.07,5.86,7.11h-9.51c.19,2.88,1.75,4.15,3.84,4.15a3,3,0,0,0,3-2Zm-9.27-4h7.06c-.17-2.33-1.54-3.43-3.46-3.43S292.15,169.78,291.79,172.08Z"/><path d="M313.86,179.65h-2.3V162.36h2.3Z"/><path d="M330.26,166.8c3.41,0,6.15,2.11,6.15,6.6s-2.64,6.6-6.17,6.6-6.15-2.28-6.15-6.6C324.08,168.91,326.87,166.8,330.26,166.8Zm0,11.33c2.21,0,3.72-1.63,3.72-4.73s-1.61-4.73-3.75-4.73-3.77,1.61-3.77,4.73S328.12,178.14,330.28,178.14Z"/><path d="M348.53,167.16l.36,1.63a5.16,5.16,0,0,1,4.23-2c3.29,0,5.5,2.35,5.5,6.51,0,4.32-2.38,6.7-5.67,6.7a4.63,4.63,0,0,1-4-2V184h-2.3V167.16Zm4.06,1.61c-2.06,0-3.77,1.51-3.77,4.49s1.51,4.78,3.77,4.78,3.63-1.49,3.63-4.78C356.21,170.19,354.65,168.77,352.59,168.77Z"/><path d="M379.84,176a5.43,5.43,0,0,1-5.59,4c-3.55,0-6.12-2.21-6.12-6.6s2.55-6.6,6-6.6,5.86,2.07,5.86,7.11h-9.51c.19,2.88,1.75,4.15,3.84,4.15a3,3,0,0,0,3-2Zm-9.27-4h7.06c-.17-2.33-1.54-3.43-3.46-3.43S370.93,169.78,370.58,172.08Z"/><path d="M390.34,179.65V167.16h1.9l.31,1.85a3.44,3.44,0,0,1,3.17-2.21,5.62,5.62,0,0,1,1.37.17v2.3a5.52,5.52,0,0,0-1.46-.22c-1.58,0-3,1.18-3,4.32v6.27Z"/><path d="M405.44,179.65v-2.79h2.79v2.79Z"/><path d="M430,175.64a5.18,5.18,0,0,1-5.48,4.37c-3.31,0-5.91-2.28-5.91-6.51s2.35-6.7,5.88-6.7c2.83,0,5,1.51,5.4,4.06h-2.55a2.64,2.64,0,0,0-2.81-2.11c-2,0-3.48,1.51-3.48,4.83,0,3.05,1.56,4.49,3.51,4.49a2.73,2.73,0,0,0,2.91-2.42Z"/><path d="M440.09,165.07v-2.71h2.59v2.71Zm.14,14.58V167.16h2.3v12.49Z"/><path d="M457.17,174c-2.93-.65-4.11-1.75-4.11-3.6,0-2.14,1.7-3.55,4.85-3.55,2.79,0,4.71,1.37,5.12,3.65h-2.35c-.26-1.15-1.2-1.82-2.79-1.82s-2.5.65-2.5,1.51.5,1.39,2.91,1.92c2.9.65,4.83,1.46,4.83,4,0,2.28-1.9,3.91-5.21,3.91-3.12,0-5.16-1.54-5.38-3.94h2.35c.26,1.49,1.3,2.11,3,2.11s2.86-.84,2.86-1.92C460.79,174.8,459.4,174.46,457.17,174Z"/><path d="M484,175.64a5.18,5.18,0,0,1-5.48,4.37c-3.31,0-5.91-2.28-5.91-6.51s2.35-6.7,5.88-6.7c2.83,0,5,1.51,5.4,4.06h-2.55a2.64,2.64,0,0,0-2.81-2.11c-2,0-3.48,1.51-3.48,4.83,0,3.05,1.56,4.49,3.51,4.49a2.73,2.73,0,0,0,2.91-2.42Z"/><path d="M499.7,166.8c3.41,0,6.15,2.11,6.15,6.6s-2.64,6.6-6.17,6.6-6.15-2.28-6.15-6.6C493.53,168.91,496.31,166.8,499.7,166.8Zm0,11.33c2.21,0,3.72-1.63,3.72-4.73s-1.61-4.73-3.75-4.73-3.77,1.61-3.77,4.73S497.56,178.14,499.72,178.14Z"/><path d="M516.24,179.65v-2.79H519v2.79Z"/><path d="M540.81,175.64a5.18,5.18,0,0,1-5.48,4.37c-3.31,0-5.91-2.28-5.91-6.51s2.35-6.7,5.88-6.7c2.83,0,5,1.51,5.4,4.06h-2.55a2.64,2.64,0,0,0-2.81-2.11c-2,0-3.48,1.51-3.48,4.83,0,3.05,1.56,4.49,3.51,4.49a2.73,2.73,0,0,0,2.9-2.42Z"/><path d="M556.49,166.8c3.41,0,6.15,2.11,6.15,6.6S560,180,556.46,180s-6.15-2.28-6.15-6.6C550.32,168.91,553.1,166.8,556.49,166.8Zm0,11.33c2.21,0,3.72-1.63,3.72-4.73s-1.61-4.73-3.75-4.73-3.77,1.61-3.77,4.73S554.35,178.14,556.51,178.14Z"/><path d="M572.87,179.65V167.16h1.9l.24,1.46a4.27,4.27,0,0,1,3.67-1.83,3.92,3.92,0,0,1,3.67,2,4.53,4.53,0,0,1,4.06-2c2.55,0,4.23,1.51,4.23,4.49v8.36h-2.3v-8.19c0-1.9-.82-2.69-2.43-2.69a3.08,3.08,0,0,0-3,3.27v7.61H580.6v-8.19c0-1.92-.84-2.69-2.42-2.69a3.08,3.08,0,0,0-3,3.19v7.68Z"/></g></svg>