<svg xmlns="http://www.w3.org/2000/svg" viewBox="0 0 623.62 255.12"><defs><style>.cls-1{fill:#fff;}.cls-2{fill:#e67f42;}.cls-3{fill:#7c774f;}.cls-4{fill:#c4c4c4;}</style></defs><title>criticalcase</title><g id="BG"><rect class="cls-1" width="623.62" height="255.12"/></g><g id="Logo"><path class="cls-2" d="M115.82,111.45A18.13,18.13,0,1,0,97.68,129.6,18,18,0,0,0,115.82,111.45Z"/><path class="cls-3" d="M64.58,170.22a18.14,18.14,0,1,0-12.83,5.31A18,18,0,0,0,64.58,170.22Z"/><path class="cls-3" d="M112.37,167.38a18,18,0,0,0,1.06-19,18.76,18.76,0,0,0-8.55-7.64,58.56,58.56,0,0,0-10-3.54c-1.46-.4-2.87-.8-4.15-1.24-8.66-2.86-15-8.72-17.25-16l-3.12-9.87L70,109c-.92-3-2-6.41-4.43-9.31a18.28,18.28,0,0,0-31.51,7.72,18.33,18.33,0,0,0,10.79,20.81l1.27-3.09-1.27,3.09c2.56,1.06,5.21,1.89,7.77,2.69a72.67,72.67,0,0,1,9,3.29,29.2,29.2,0,0,1,12.28,11.62,39.79,39.79,0,0,1,2.62,6.4l.75,2.12.89,2.41c.75,2,1.45,3.87,2,5.78A18.21,18.21,0,0,0,95,175.15,18,18,0,0,0,112.37,167.38ZM60.49,104c1.57,1.85,2.32,4.21,3.16,6.95l.34,1.11,3.11,9.87a29,29,0,0,0,8.43,12.91,36.9,36.9,0,0,0,13.07,7.47c1.44.47,3,.9,4.45,1.32,5.91,1.69,12,3.43,14.55,8a11.2,11.2,0,0,1-.72,12,11.89,11.89,0,0,1-4.67,4,10.82,10.82,0,0,1-6.29.95,11.64,11.64,0,0,1-9.33-8c-.66-2.11-1.42-4.18-2.17-6.16l-.87-2.33-.72-2a42.5,42.5,0,0,0-3.13-7.48A35.45,35.45,0,0,0,64.48,128.2a75.71,75.71,0,0,0-9.86-3.62c-2.54-.81-4.93-1.56-7.24-2.52a11.61,11.61,0,0,1-7.1-10.67,10.86,10.86,0,0,1,.29-2.5A11.14,11.14,0,0,1,49,100.47,11.2,11.2,0,0,1,60.49,104Z"/><polygon class="cls-3" points="41 100.78 48.14 97.08 53.02 97.08 61.03 99.94 67.05 111.09 70.76 124.85 76.93 131.01 85.09 137.15 93.68 140.87 102.23 143.41 109.29 150.47 112.57 159.48 108.57 166.93 104.4 171.09 96.25 171.8 90.24 170.07 85.38 165.21 81.65 157.48 78.51 149.46 75.34 142.88 70.62 138.15 65.61 133.14 58.45 130 48.43 125.99 40.97 120 36.53 115.56 37.27 106.8 41 100.78"/><path class="cls-4" d="M141.31,159.7h-4.09v12.65h-1.66V159.7h-4.08v-1.5h9.82Z"/><path class="cls-4" d="M164.28,172.35h-1.66V165.9H155.3v6.45h-1.66V158.2h1.66v6.21h7.32V158.2h1.66Z"/><path class="cls-4" d="M185.6,172.35h-7.5V158.2h7.18v1.5h-5.53v4.71h5.11v1.49h-5.11v5h5.84Z"/><path class="cls-4" d="M217.21,167v5.35h-1.66V158.2h3.89a5.13,5.13,0,0,1,3.52,1.11,4,4,0,0,1,1.25,3.12,4.29,4.29,0,0,1-1.39,3.3,5.3,5.3,0,0,1-3.75,1.28Zm0-7.3v5.8h1.74a3.88,3.88,0,0,0,2.62-.79,2.78,2.78,0,0,0,.9-2.22q0-2.8-3.32-2.8Z"/><path class="cls-4" d="M244.48,172.35H237V158.2h7.18v1.5h-5.53v4.71h5.11v1.49h-5.11v5h5.84Z"/><path class="cls-4" d="M267.46,172.35h-2l-2.37-4a8.66,8.66,0,0,0-.63-.94,3.56,3.56,0,0,0-.63-.64,2.18,2.18,0,0,0-.69-.36,2.82,2.82,0,0,0-.83-.11H259v6h-1.66V158.2h4.22a6,6,0,0,1,1.71.23,3.85,3.85,0,0,1,1.36.7,3.31,3.31,0,0,1,.9,1.18,3.94,3.94,0,0,1,.32,1.65,4,4,0,0,1-.22,1.36,3.54,3.54,0,0,1-.63,1.1,3.82,3.82,0,0,1-1,.82,5,5,0,0,1-1.3.53v0a3,3,0,0,1,.62.36,3.36,3.36,0,0,1,.5.48,6.31,6.31,0,0,1,.47.63l.52.81ZM259,159.7v5.13h2.25a3.42,3.42,0,0,0,1.15-.19,2.65,2.65,0,0,0,.91-.54,2.42,2.42,0,0,0,.6-.86,2.89,2.89,0,0,0,.22-1.14,2.22,2.22,0,0,0-.73-1.77,3.16,3.16,0,0,0-2.13-.64Z"/><path class="cls-4" d="M286.69,159.7h-5.53v4.9h5.11v1.49h-5.11v6.27h-1.66V158.2h7.18Z"/><path class="cls-4" d="M305.19,172.59a6.22,6.22,0,0,1-4.82-2,7.36,7.36,0,0,1-1.81-5.16A7.8,7.8,0,0,1,300.4,160a6.45,6.45,0,0,1,5-2,6.07,6.07,0,0,1,4.72,2,7.38,7.38,0,0,1,1.79,5.16,7.82,7.82,0,0,1-1.84,5.48A6.33,6.33,0,0,1,305.19,172.59Zm.12-13.13a4.56,4.56,0,0,0-3.62,1.61,7.16,7.16,0,0,0,0,8.43,4.42,4.42,0,0,0,3.54,1.59,4.65,4.65,0,0,0,3.67-1.52,6.22,6.22,0,0,0,1.34-4.25,6.49,6.49,0,0,0-1.3-4.33A4.47,4.47,0,0,0,305.3,159.46Z"/><path class="cls-4" d="M335,172.35h-2l-2.37-4a8.65,8.65,0,0,0-.63-.94,3.56,3.56,0,0,0-.63-.64,2.18,2.18,0,0,0-.69-.36,2.82,2.82,0,0,0-.83-.11h-1.36v6h-1.66V158.2H329a6,6,0,0,1,1.71.23,3.85,3.85,0,0,1,1.36.7,3.31,3.31,0,0,1,.9,1.18,3.94,3.94,0,0,1,.32,1.65,4,4,0,0,1-.22,1.36,3.54,3.54,0,0,1-.63,1.1,3.82,3.82,0,0,1-1,.82,5,5,0,0,1-1.3.53v0a3,3,0,0,1,.62.36,3.36,3.36,0,0,1,.5.48,6.27,6.27,0,0,1,.47.63l.52.81Zm-8.49-12.65v5.13h2.25a3.42,3.42,0,0,0,1.15-.19,2.66,2.66,0,0,0,.91-.54,2.42,2.42,0,0,0,.6-.86,2.89,2.89,0,0,0,.22-1.14,2.22,2.22,0,0,0-.73-1.77,3.16,3.16,0,0,0-2.13-.64Z"/><path class="cls-4" d="M361.45,172.35H359.8v-9.49q0-1.13.14-2.75h0a8.88,8.88,0,0,1-.42,1.37l-4.84,10.88h-.81L349,161.56a8.6,8.6,0,0,1-.42-1.45h0q.08.85.08,2.77v9.47H347V158.2h2.19l4.34,9.87a12.59,12.59,0,0,1,.65,1.7h.06q.42-1.16.68-1.74l4.43-9.83h2.07Z"/><path class="cls-4" d="M386.23,172.35H384.4l-1.5-4h-6l-1.41,4h-1.84l5.43-14.15h1.72Zm-3.88-5.46-2.22-6a5.77,5.77,0,0,1-.22-.95h0a5.32,5.32,0,0,1-.23.95l-2.2,6Z"/><path class="cls-4" d="M409.83,172.35h-2l-7.28-11.28a4.75,4.75,0,0,1-.45-.89H400a14.46,14.46,0,0,1,.08,1.94v10.22h-1.66V158.2h2.15l7.09,11.1q.44.69.57.95h0a15.07,15.07,0,0,1-.1-2.08v-10h1.66Z"/><path class="cls-4" d="M433.28,171.76a8.3,8.3,0,0,1-3.91.83,6.3,6.3,0,0,1-4.84-1.94,7.18,7.18,0,0,1-1.82-5.1,7.52,7.52,0,0,1,2-5.49,6.94,6.94,0,0,1,5.18-2.09,8.33,8.33,0,0,1,3.34.58v1.77a6.76,6.76,0,0,0-3.36-.85,5.14,5.14,0,0,0-4,1.63,6.13,6.13,0,0,0-1.52,4.35,5.84,5.84,0,0,0,1.42,4.12,4.82,4.82,0,0,0,3.72,1.53,7,7,0,0,0,3.69-.95Z"/><path class="cls-4" d="M453.77,172.35h-7.5V158.2h7.18v1.5h-5.53v4.71H453v1.49h-5.11v5h5.84Z"/><path class="cls-4" d="M493.35,171.76a8.3,8.3,0,0,1-3.91.83,6.3,6.3,0,0,1-4.84-1.94,7.18,7.18,0,0,1-1.82-5.1,7.52,7.52,0,0,1,2-5.49A6.94,6.94,0,0,1,490,158a8.33,8.33,0,0,1,3.34.58v1.77a6.76,6.76,0,0,0-3.36-.85,5.14,5.14,0,0,0-4,1.63,6.13,6.13,0,0,0-1.52,4.35,5.84,5.84,0,0,0,1.42,4.12,4.82,4.82,0,0,0,3.72,1.53,7,7,0,0,0,3.69-.95Z"/><path class="cls-4" d="M513.68,172.35h-7.34V158.2H508v12.65h5.68Z"/><path class="cls-4" d="M531.67,172.59a6.22,6.22,0,0,1-4.82-2,7.36,7.36,0,0,1-1.81-5.16,7.8,7.8,0,0,1,1.84-5.45,6.45,6.45,0,0,1,5-2,6.07,6.07,0,0,1,4.72,2,7.38,7.38,0,0,1,1.79,5.16,7.82,7.82,0,0,1-1.84,5.48A6.33,6.33,0,0,1,531.67,172.59Zm.12-13.13a4.56,4.56,0,0,0-3.62,1.61,7.16,7.16,0,0,0,0,8.43,4.42,4.42,0,0,0,3.54,1.59,4.65,4.65,0,0,0,3.67-1.52,6.22,6.22,0,0,0,1.34-4.25,6.49,6.49,0,0,0-1.3-4.33A4.47,4.47,0,0,0,531.78,159.46Z"/><path class="cls-4" d="M561.66,166.63q0,6-5.38,6-5.15,0-5.15-5.73V158.2h1.66v8.55q0,4.35,3.67,4.35t3.54-4.2v-8.7h1.66Z"/><path class="cls-4" d="M575.3,172.35V158.2h3.91q7.48,0,7.48,6.9a7,7,0,0,1-2.08,5.27,7.71,7.71,0,0,1-5.56,2ZM577,159.7v11.15h2.11a6,6,0,0,0,4.33-1.49,5.58,5.58,0,0,0,1.55-4.22q0-5.44-5.78-5.44Z"/><path class="cls-4" d="M173,98.85H157.07a22.7,22.7,0,0,0-8.85,1.63,19.92,19.92,0,0,0-6.63,4.4,19.34,19.34,0,0,0-4.15,6.28,20.32,20.32,0,0,0-1.53,7.17,19.36,19.36,0,0,0,1.43,8,17.29,17.29,0,0,0,4.45,6.28,21,21,0,0,0,7.07,4.11,27.83,27.83,0,0,0,9.39,1.48H173v4.45H157.67a32.21,32.21,0,0,1-11.32-1.83,23.81,23.81,0,0,1-8.26-5,21.13,21.13,0,0,1-5.09-7.62,26.12,26.12,0,0,1-1.73-9.64,23,23,0,0,1,2-9.54,24,24,0,0,1,13.5-12.76,27.43,27.43,0,0,1,10-1.83H173Z"/><path class="cls-4" d="M183.67,142.46V108.24a12.74,12.74,0,0,1,1.28-5.69A15,15,0,0,1,188.37,98a15.13,15.13,0,0,1,4.9-3,16.47,16.47,0,0,1,5.83-1h6.43v4.45h-6a11.74,11.74,0,0,0-5.19,1,10,10,0,0,0-3.51,2.77,11.33,11.33,0,0,0-2,3.91,15.62,15.62,0,0,0-.64,4.45v32Z"/><path class="cls-4" d="M217.19,80.68a2.54,2.54,0,0,1,2,.89,3,3,0,0,1,.79,2.08,2.57,2.57,0,0,1-.79,1.88,2.68,2.68,0,0,1-2,.79,2.71,2.71,0,0,1-2.67-2.67,3,3,0,0,1,.79-2.08A2.43,2.43,0,0,1,217.19,80.68Zm-2.27,14.8h4.65v47.17h-4.65Z"/><path class="cls-4" d="M230,79.69h4.85v15h16.81v4.65H234.8v27.22a28.61,28.61,0,0,0,.35,4.54,11.31,11.31,0,0,0,1.34,3.89,7.14,7.14,0,0,0,2.72,2.71,9.24,9.24,0,0,0,4.6,1h7.42v4.15h-8.31a13.55,13.55,0,0,1-4.85-.79,13.78,13.78,0,0,1-4.05-2.47,9.91,9.91,0,0,1-3.26-5.72,36.57,36.57,0,0,1-.79-7.8V79.69Z"/><path class="cls-4" d="M265.16,80.68a2.54,2.54,0,0,1,2,.89,3,3,0,0,1,.79,2.08,2.57,2.57,0,0,1-.79,1.88,2.68,2.68,0,0,1-2,.79,2.71,2.71,0,0,1-2.67-2.67,3,3,0,0,1,.79-2.08A2.43,2.43,0,0,1,265.16,80.68Zm-2.27,14.8h4.65v47.17h-4.65Z"/><path class="cls-4" d="M320,98.85H304.12a22.7,22.7,0,0,0-8.85,1.63,19.9,19.9,0,0,0-6.62,4.4,19.29,19.29,0,0,0-4.15,6.28,20.28,20.28,0,0,0-1.53,7.17,19.36,19.36,0,0,0,1.43,8,17.27,17.27,0,0,0,4.45,6.28,21,21,0,0,0,7.07,4.11,27.84,27.84,0,0,0,9.39,1.48H320v4.45H304.71a32.21,32.21,0,0,1-11.32-1.83,23.81,23.81,0,0,1-8.26-5,21.13,21.13,0,0,1-5.09-7.62,26.12,26.12,0,0,1-1.73-9.64,23,23,0,0,1,2-9.54,24,24,0,0,1,13.5-12.76,27.44,27.44,0,0,1,10-1.83H320v4.45Z"/><path class="cls-4" d="M354,94.4a19.18,19.18,0,0,1,6.18,1,15.77,15.77,0,0,1,5.14,2.87,14.1,14.1,0,0,1,3.56,4.6,13.86,13.86,0,0,1,1.34,6.18v33.82H344.07a13.59,13.59,0,0,1-6.33-1.48,16.26,16.26,0,0,1-4.95-3.91,17.57,17.57,0,0,1-3.21-5.59,16.51,16.51,0,0,1-.94-6.62,14.23,14.23,0,0,1,1.68-6.48,17,17,0,0,1,4.15-5,19.27,19.27,0,0,1,6-3.32,22,22,0,0,1,7.27-1.19h17.8a9.41,9.41,0,0,0-.64-4A10,10,0,0,0,362.8,102a9.9,9.9,0,0,0-3.12-2.17,9.39,9.39,0,0,0-3.86-.79H332.89V94.4H354Zm-7.61,19.68a13.66,13.66,0,0,0-5,.94,13.28,13.28,0,0,0-4.25,2.63,12.87,12.87,0,0,0-2.92,4,11.14,11.14,0,0,0-1.09,4.86,12.11,12.11,0,0,0,3.31,8.79q3.31,3.43,10.53,3.43h18.59V114.08Z"/><path class="cls-4" d="M382.63,79.59h4.65v63.06h-4.65Z"/><path class="cls-4" d="M440,98.85H424.07a22.69,22.69,0,0,0-8.85,1.63,19.89,19.89,0,0,0-6.63,4.4,19.38,19.38,0,0,0-4.15,6.28,20.25,20.25,0,0,0-1.53,7.17,19.33,19.33,0,0,0,1.44,8,17.24,17.24,0,0,0,4.45,6.28,21.05,21.05,0,0,0,7.07,4.11,27.86,27.86,0,0,0,9.4,1.48H440v4.45H424.66a32.21,32.21,0,0,1-11.32-1.83,23.82,23.82,0,0,1-8.26-5,21.13,21.13,0,0,1-5.1-7.62,26.06,26.06,0,0,1-1.73-9.64,23,23,0,0,1,2-9.54,24,24,0,0,1,13.5-12.76,27.43,27.43,0,0,1,10-1.83H440v4.45Z"/><path class="cls-4" d="M473.9,94.4a19.19,19.19,0,0,1,6.18,1,15.8,15.8,0,0,1,5.14,2.87,14.13,14.13,0,0,1,3.56,4.6,13.88,13.88,0,0,1,1.33,6.18v33.82H464a13.58,13.58,0,0,1-6.33-1.48,16.27,16.27,0,0,1-4.94-3.91,17.53,17.53,0,0,1-3.22-5.59,16.49,16.49,0,0,1-.94-6.62,14.24,14.24,0,0,1,1.68-6.48,16.92,16.92,0,0,1,4.15-5,19.2,19.2,0,0,1,6-3.32,22,22,0,0,1,7.27-1.19h17.79a9.41,9.41,0,0,0-.64-4,9.9,9.9,0,0,0-5.19-5.39,9.41,9.41,0,0,0-3.86-.79H452.84V94.4H473.9Zm-7.61,19.68a13.65,13.65,0,0,0-5,.94,13.29,13.29,0,0,0-4.25,2.63,12.87,12.87,0,0,0-2.92,4,11.16,11.16,0,0,0-1.09,4.86,12.1,12.1,0,0,0,3.32,8.79q3.31,3.43,10.53,3.43h18.59V114.08Z"/><path class="cls-4" d="M510.29,98.45a6.88,6.88,0,0,0-4.2,1.43,4.62,4.62,0,0,0-1.93,3.91q0,2.87,1.78,3.86c1.19.66,3.43,1,6.73,1H524a19.3,19.3,0,0,1,7.12,1.29,17.6,17.6,0,0,1,5.64,3.51,16,16,0,0,1,3.7,5.24,17.42,17.42,0,0,1,1.44,6.58A16.34,16.34,0,0,1,540.7,132a16.69,16.69,0,0,1-3.76,5.58,19.43,19.43,0,0,1-5.59,3.81,16,16,0,0,1-6.72,1.44H499.52v-4.65h25.8a11.41,11.41,0,0,0,4.7-1,12.18,12.18,0,0,0,3.86-2.67,12.51,12.51,0,0,0,2.57-3.9,12.16,12.16,0,0,0,.94-4.8,11.77,11.77,0,0,0-1-4.95,13.61,13.61,0,0,0-2.77-4,12,12,0,0,0-4.11-2.67,13.56,13.56,0,0,0-5-.94H508.9a8.15,8.15,0,0,1-3.61-.79,8.67,8.67,0,0,1-2.82-2.18,10.93,10.93,0,0,1-2.57-7,8,8,0,0,1,.84-3.66,9.51,9.51,0,0,1,2.32-3,10.73,10.73,0,0,1,3.41-2,11.76,11.76,0,0,1,4-.69h26.9v4.45H510.29Z"/><path class="cls-4" d="M590,99H571.8a19.42,19.42,0,0,0-4.75.59,17.18,17.18,0,0,0-4.5,1.83,16,16,0,0,0-3.86,3.16,17.3,17.3,0,0,0-2.91,4.6H590v4.85H553.51a17.35,17.35,0,0,0-.35,2.08c0,.46,0,1.19,0,2.17a18.79,18.79,0,0,0,1.29,8,17,17,0,0,0,4.35,6.28,20.53,20.53,0,0,0,7,4.11,27.41,27.41,0,0,0,9.35,1.48H590v4.45H574.57a32.17,32.17,0,0,1-11.32-1.83,24.31,24.31,0,0,1-8.31-5,20.82,20.82,0,0,1-5.15-7.61,26.12,26.12,0,0,1-1.72-9.64,23,23,0,0,1,2-9.54,24,24,0,0,1,13.5-12.76,27.44,27.44,0,0,1,10-1.83H590V99Z"/></g></svg>