<?xml version="1.0" encoding="utf-8"?>
<!-- Generator: Adobe Illustrator 19.2.1, SVG Export Plug-In . SVG Version: 6.00 Build 0)  -->
<svg version="1.1" id="Layer_1" xmlns="http://www.w3.org/2000/svg" xmlns:xlink="http://www.w3.org/1999/xlink" x="0px" y="0px"
	 viewBox="0 0 623.6 255.1" style="enable-background:new 0 0 623.6 255.1;" xml:space="preserve">
<style type="text/css">
	.st0{fill:#FFFFFF;}
	.st1{clip-path:url(#SVGID_2_);}
	.st2{clip-path:url(#SVGID_4_);fill:#EB6431;}
</style>
<title>balsamiq</title>
<g id="BG">
	<rect class="st0" width="623.6" height="255.1"/>
</g>
<g>
	<g>
		<defs>
			<rect id="SVGID_1_" x="-33.8" y="29.1" width="691.2" height="197"/>
		</defs>
		<clipPath id="SVGID_2_">
			<use xlink:href="#SVGID_1_"  style="overflow:visible;"/>
		</clipPath>
		<g class="st1">
			<defs>
				<rect id="SVGID_3_" x="-33.8" y="29.1" width="691.2" height="197"/>
			</defs>
			<clipPath id="SVGID_4_">
				<use xlink:href="#SVGID_3_"  style="overflow:visible;"/>
			</clipPath>
			<path class="st2" d="M277.3,121.6l0,39.5c0,0.4-0.2,0.8-0.6,0.9c-3.2,1.1-16.4,2-16.4-14v-25.2c0-7-3.8-10.7-11.1-10.7
				c-3.7,0-7.5,0.6-10.8,1.5c-0.6,0.2-1,0.7-1,1.4l0,45.1c0,0.5-0.4,0.9-0.9,0.9h-15c-0.5,0-0.9-0.4-0.9-0.9v-56.7
				c0-0.6,0.4-1.1,0.9-1.3c8.7-3.2,19.9-5.1,29-5.1C266.8,96.8,277.3,102.9,277.3,121.6 M474.9,69.1c-5.6,0-10.1,4.5-10.1,10.3
				c0,5.5,4.5,10,10.1,10c5.5,0,10.1-4.5,10.1-10C485.1,73.6,480.4,69.1,474.9,69.1 M483.4,161c0,0.4-0.2,0.8-0.6,0.9
				c-3.2,1.1-16.2,1.9-16.2-13.9V99.2c0-0.5,0.4-0.9,0.9-0.9h15c0.5,0,0.9,0.4,0.9,0.9L483.4,161z M407,128.2
				c0,20.4-12.8,34.3-37.1,34.3c-11.8,0-20.4-2.9-22.6-3.6c-1.3-0.4-2.3-0.7-2.3-3.2V72c0-0.6,0.5-0.8,0.6-0.9
				c3.2-1.1,16.2-1.9,16.2,13.9c0,0,0,12.9,0,14.2c0,0.3,0.3,0.5,0.6,0.4c3.2-1.6,8.4-2.8,13.4-2.8C393.8,96.8,407,108.9,407,128.2
				 M389.7,128.6c0-10-7.3-16.4-16.4-16.4c-4.8,0-8.5,1.4-11,3c-0.2,0.2-0.4,0.4-0.4,0.7v28.8c0,1.7,0.6,2.1,1.5,2.3
				c0.6,0.2,3.6,1,7.2,1C381.3,148,389.7,142.1,389.7,128.6 M455.8,114c1.4-3.2,5-17.2-13.7-17.2c-12.7,0-22.3,4.4-23.1,4.8
				c-0.8,0.4-1.9,0.7-1.9,2v56.4c0,0.5,0.4,0.9,0.9,0.9h15c0.5,0,0.9-0.4,0.9-0.9c0,0,0-40.1,0-45.3c0-0.4,0.3-0.7,0.6-0.8
				c2.5-0.7,5.1-1.2,8-1.2c7.2,0,11.1,1.4,12.1,1.8C455.3,114.8,455.6,114.2,455.8,114 M331.7,144.7c0,0-0.4-0.6-1.1-0.3
				c-1.4,0.6-4.8,2.5-9.8,2.5c-5.1,0-8.4-2.2-8.4-9.4l0-24.2c0-0.5,0.4-0.9,0.9-0.9c2.8,0,16,0,16,0c0.5,0,0.9-0.4,0.9-0.9V99.2
				c0-0.5-0.4-0.9-0.9-0.9l-16,0c-0.5,0-0.9-0.4-0.9-0.9c0-2.8,0-14.4,0-14.4c0-0.5-0.4-0.9-0.9-0.9h-15c-0.5,0-0.9,0.4-0.9,0.9
				v14.4c0,0.5-0.4,0.9-0.9,0.9l-7.6,0c-0.5,0-0.9,0.4-0.9,0.9v12.2c0,0.5,0.4,0.9,0.9,0.9h3.6c2.7,0,4.9,2.2,4.9,4.9V142
				c0,15.2,9.8,20.4,20.7,20.4c11.3,0,15-4.5,16.3-6.8C334.8,151.2,332.9,146.3,331.7,144.7 M538.7,144.7c0,0-0.4-0.6-1.1-0.3
				c-1.4,0.6-4.8,2.5-9.8,2.5c-5.1,0-8.4-2.2-8.4-9.4l0-24.2c0-0.5,0.4-0.9,0.9-0.9c2.8,0,16,0,16,0c0.5,0,0.9-0.4,0.9-0.9V99.2
				c0-0.5-0.4-0.9-0.9-0.9l-16,0c-0.5,0-0.9-0.4-0.9-0.9c0-2.8,0-14.4,0-14.4c0-0.5-0.4-0.9-0.9-0.9h-15c-0.5,0-0.9,0.4-0.9,0.9
				v14.4c0,0.5-0.4,0.9-0.9,0.9l-7.6,0c-0.5,0-0.9,0.4-0.9,0.9v12.2c0,0.5,0.4,0.9,0.9,0.9h3.6c2.7,0,4.9,2.2,4.9,4.9V142
				c0,15.2,9.8,20.4,20.7,20.4c11.3,0,15-4.5,16.3-6.8C541.9,151.2,540,146.3,538.7,144.7 M78.6,145.3L78.6,145.3
				c-0.1-0.4-0.5-0.7-0.9-0.7c-11.7,0-23.3,0-35,0c-0.5,0-0.9-0.4-0.9-0.9v-15.9c0-0.5,0.4-0.9,0.9-0.9c10,0,20,0,30,0
				c0.5,0,0.9-0.4,0.9-0.9c0-4.6,0-9.3,0-13.9c0-0.5-0.4-0.9-0.9-0.9h-30c-0.5,0-0.9-0.4-0.9-0.9V94.6c0-0.5,0.4-0.9,0.9-0.9h33.9
				c0.5,0,0.9-0.4,0.9-0.9V78.4c0-0.5-0.4-0.9-0.9-0.9H38.2c-7.7,0-13.9,6.2-13.9,13.9V160c0,0.5,0.4,0.9,0.9,0.9h40
				C80.3,161,79.7,148.6,78.6,145.3 M149.8,98.3h-15.6c-0.6,0-0.9,0.4-1.1,1.1c0,0-15.2,43.6-15.2,43.6l0,0c-0.2,0.5-0.7,0.5-0.9,0
				l0,0c0,0-12.7-36.5-12.7-36.5c-5.5-14.3-17.1-9.2-19.9-7c-0.3,0.3-0.5,0.6-0.3,1.2c0,0,22.6,59,22.6,59c0.2,0.7,0.4,1.2,1.2,1.2
				h18.4c0.9,0,1-0.6,1.2-1.2c0,0,21.7-56.8,22.8-59.7C151.1,98.6,150.1,98.3,149.8,98.3 M168.6,135.2c1.6,8.5,10.1,12.8,18.3,12.8
				c9.4,0,15.8-2.8,18.9-4.2c0.4-0.2,0.8-0.1,1.1,0.3c1.9,2.5,5.7,13.4-9.2,17c-1,0.2-5.8,1.4-12.6,1.4c-20.4,0-33.2-12.5-33.2-32.1
				c0-20.7,13.1-33.5,30.7-33.5c21.1,0,27.2,14.4,27.2,32.4c0,2.8-2.3,5-5,5v0h-35.3C168.8,134.3,168.5,134.7,168.6,135.2
				 M169.7,124.2h23.4c0.6,0,0.9-0.4,0.9-0.8c-0.4-7.3-4.1-12.5-11.8-12.5c-7,0-11.7,4.8-13.5,12.5
				C168.7,123.8,169,124.2,169.7,124.2 M563.3,135.2c1.6,8.5,10.1,12.8,18.3,12.8c9.4,0,15.8-2.8,18.9-4.2c0.4-0.2,0.8-0.1,1.1,0.3
				c1.9,2.5,5.7,13.4-9.2,17c-1,0.2-5.8,1.4-12.6,1.4c-20.4,0-33.2-12.5-33.2-32.1c0-20.7,13.1-33.5,30.7-33.5
				c21.1,0,27.2,14.4,27.2,32.4c0,2.8-2.3,5-5,5v0h-35.3C563.5,134.3,563.2,134.7,563.3,135.2 M564.4,124.2h23.4
				c0.6,0,0.9-0.4,0.9-0.8c-0.4-7.3-4.1-12.5-11.8-12.5c-7,0-11.7,4.8-13.5,12.5C563.4,123.8,563.7,124.2,564.4,124.2"/>
		</g>
	</g>
</g>
</svg>
