<?xml version="1.0" encoding="UTF-8"?>
<svg width="541px" height="151px" viewBox="0 0 541 151" version="1.1" xmlns="http://www.w3.org/2000/svg" xmlns:xlink="http://www.w3.org/1999/xlink" xmlns:sketch="http://www.bohemiancoding.com/sketch/ns">
    <!-- Generator: Sketch 3.1.1 (8761) - http://www.bohemiancoding.com/sketch -->
    <title>GrowITUp_marchio_pos_CMYK</title>
    <desc>Created with Sketch.</desc>
    <defs></defs>
    <g id="Page-1" stroke="none" stroke-width="1" fill="none" fill-rule="evenodd" sketch:type="MSPage">
        <g id="GrowITUp_marchio_pos_CMYK" sketch:type="MSLayerGroup" transform="translate(-150.000000, -223.000000)">
            <rect id="Rectangle-1" sketch:type="MSShapeGroup" x="40" y="168" width="715" height="259"></rect>
            <g id="Page-1" sketch:type="MSShapeGroup">
                <path d="M176.5147,276.4173 C166.7887,276.4173 158.8867,285.0283 158.8867,295.9693 C158.8867,306.9103 166.7887,315.3193 176.5147,315.3193 C186.1387,315.3193 194.1417,306.7083 194.1417,295.9693 C194.1417,285.1303 186.0367,276.4173 176.5147,276.4173 L176.5147,276.4173 Z M202.6517,319.5743 C202.6517,336.2893 191.9127,347.6363 175.8057,347.6363 C163.5477,347.6363 153.9227,341.0513 151.1877,330.4143 L160.3047,330.4143 C163.7497,338.2143 172.0567,339.3293 175.8057,339.3293 C189.2797,339.3293 194.1417,328.9953 194.1417,319.5743 L194.1417,314.6103 C190.0897,319.9793 183.8087,323.3223 176.3117,323.3223 C161.9257,323.3223 150.2757,311.5713 150.2757,295.9693 C150.2757,280.2673 162.0277,268.5153 176.5147,268.5153 C191.3057,268.5153 202.6517,280.5703 202.6517,295.9693 L202.6517,319.5743 Z" id="Fill-1" fill="#4C5B60"></path>
                <path d="M238.1331,268.8194 L238.1331,276.8224 C228.1041,275.9104 221.7211,280.7734 221.7211,290.8024 L221.7211,322.0054 L213.2111,322.0054 L213.2111,291.0054 C213.2111,275.2014 224.4561,267.1984 238.1331,268.8194" id="Fill-3" fill="#4C5B60"></path>
                <path d="M285.5218,296.0708 C285.5218,285.4338 277.6198,276.7208 267.8948,276.7208 C258.2708,276.7208 250.3678,285.4338 250.3678,296.0708 C250.3678,306.5058 258.2708,315.0158 267.8948,315.0158 C277.6198,315.0158 285.5218,306.5058 285.5218,296.0708 M294.1328,296.0708 C294.1328,311.0648 282.7868,323.3218 267.8948,323.3218 C253.1038,323.3218 241.6558,311.0648 241.6558,296.0708 C241.6558,280.8748 253.1038,268.5148 267.8948,268.5148 C282.7868,268.5148 294.1328,280.8748 294.1328,296.0708" id="Fill-5" fill="#4C5B60"></path>
                <path d="M373.0345,303.2635 C373.0345,314.6105 364.9305,323.2205 353.0765,323.2205 C345.9855,323.2205 340.5155,319.9795 337.3745,314.6105 C334.3355,319.9795 328.8645,323.2205 321.7725,323.2205 C310.0215,323.2205 301.8155,314.6105 301.8155,303.2635 L301.8155,269.8325 L310.4265,269.8325 L310.4265,303.2635 C310.4265,309.9495 314.8845,314.9145 321.7725,314.9145 C328.6615,314.9145 333.1195,309.9495 333.1195,303.2635 L333.1195,269.8325 L341.7305,269.8325 L341.7305,303.2635 C341.7305,309.9495 346.1875,314.9145 353.0765,314.9145 C359.9665,314.9145 364.4235,309.9495 364.4235,303.2635 L364.4235,269.8325 L373.0345,269.8325 L373.0345,303.2635 Z" id="Fill-7" fill="#4C5B60"></path>
                <path d="M412.204,322.005 L403.593,322.005 L403.593,269.832 L412.204,269.832 L412.204,322.005 Z M403.593,261.93 L403.593,255.446 C403.593,253.117 405.518,251.293 407.848,251.293 C410.279,251.293 412.204,253.117 412.204,255.446 L412.204,261.93 L403.593,261.93 Z" id="Fill-9" fill="#4C5B60"></path>
                <path d="M446.4451,322.0055 C434.2881,323.4235 425.8791,316.2305 425.8791,302.9595 L425.8791,258.6885 L434.3901,258.6885 L434.3901,269.8325 L446.2421,269.8325 L446.2421,278.0385 L434.3901,278.0385 L434.3901,302.9595 C434.3901,312.1785 439.9611,314.5085 446.4451,314.1035 L446.4451,322.0055 Z" id="Fill-11" fill="#4C5B60"></path>
                <path d="M621.3579,269.8323 L629.9689,269.8323 L629.9689,301.4403 C629.9689,314.6103 620.4469,323.2213 608.1879,323.2213 C595.9299,323.2213 586.4079,314.6103 586.4079,301.4403 L586.4079,269.8323 L594.9169,269.8323 L594.9169,301.4403 C594.9169,309.2403 600.0839,314.9143 608.1879,314.9143 C616.1919,314.9143 621.3579,309.2403 621.3579,301.4403 L621.3579,269.8323 Z" id="Fill-12" fill="#4C5B60"></path>
                <path d="M664.6052,276.5186 C655.0822,276.5186 646.9772,285.1296 646.9772,295.9696 C646.9772,306.8096 654.9812,315.4206 664.6052,315.4206 C674.2292,315.4206 682.1312,306.9106 682.1312,295.9696 C682.1312,285.0286 674.2292,276.5186 664.6052,276.5186 M664.7062,323.3226 C657.5142,323.3226 650.9282,319.7766 646.6742,314.5086 L646.6742,345.2046 L638.3662,345.2046 L638.3662,295.9696 C638.3662,280.5706 649.8142,268.5146 664.6052,268.5146 C678.9902,268.5146 690.7422,280.2666 690.7422,295.9696 C690.7422,311.5706 679.1932,323.3226 664.7062,323.3226" id="Fill-13" fill="#4C5B60"></path>
                <path d="M219.4523,361.3114 C216.2503,361.3114 213.6543,358.5814 213.6543,355.2104 C213.6543,351.8564 216.2503,349.1264 219.4523,349.1264 C222.1153,349.1264 224.0703,350.7104 224.8113,353.0194 L223.3113,353.0194 C222.6713,351.5534 221.3573,350.4914 219.4523,350.4914 C217.0423,350.4914 215.0703,352.6324 215.0703,355.2104 C215.0703,357.7894 217.0423,359.9294 219.4523,359.9294 C221.1713,359.9294 222.6043,358.9524 223.3113,357.4014 L224.8113,357.4014 C224.0193,359.7774 221.9633,361.3114 219.4523,361.3114" id="Fill-14" fill="#4C5B60"></path>
                <path d="M238.7824,355.2108 C238.7824,352.5138 236.8614,350.4918 234.4004,350.4918 C231.9904,350.4918 230.0184,352.5648 230.0184,355.2108 C230.0184,357.8738 231.9904,359.9298 234.4004,359.9298 C236.8104,359.9298 238.7824,357.8568 238.7824,355.2108 M240.1984,355.2108 C240.1984,358.6148 237.6024,361.3118 234.4004,361.3118 C231.1984,361.3118 228.6034,358.6318 228.6034,355.2108 C228.6034,351.8058 231.1984,349.1268 234.4004,349.1268 C237.6534,349.1268 240.1984,351.7388 240.1984,355.2108" id="Fill-15" fill="#4C5B60"></path>
                <path d="M254.2197,361.1092 L252.6357,361.1092 L246.3487,351.5872 L246.3487,361.1092 L244.9167,361.1092 L244.9167,349.4132 L246.5177,349.4132 L252.8037,358.9182 L252.8037,349.4132 L254.2197,349.4132 L254.2197,361.1092 Z" id="Fill-16" fill="#4C5B60"></path>
                <path d="M268.9658,361.1092 L267.3818,361.1092 L261.0948,351.5872 L261.0948,361.1092 L259.6628,361.1092 L259.6628,349.4132 L261.2638,349.4132 L267.5498,358.9182 L267.5498,349.4132 L268.9658,349.4132 L268.9658,361.1092 Z" id="Fill-17" fill="#4C5B60"></path>
                <path d="M282.768,349.4129 L282.768,350.7779 L275.841,350.7779 L275.841,354.3169 L282.094,354.3169 L282.094,355.6829 L275.841,355.6829 L275.841,359.7269 L282.768,359.7269 L282.768,361.1089 L274.409,361.1089 L274.409,349.4129 L282.768,349.4129 Z" id="Fill-18" fill="#4C5B60"></path>
                <path d="M292.6603,361.3114 C289.4583,361.3114 286.8623,358.5814 286.8623,355.2104 C286.8623,351.8564 289.4583,349.1264 292.6603,349.1264 C295.3233,349.1264 297.2783,350.7104 298.0193,353.0194 L296.5193,353.0194 C295.8793,351.5534 294.5653,350.4914 292.6603,350.4914 C290.2503,350.4914 288.2783,352.6324 288.2783,355.2104 C288.2783,357.7894 290.2503,359.9294 292.6603,359.9294 C294.3793,359.9294 295.8123,358.9524 296.5193,357.4014 L298.0193,357.4014 C297.2273,359.7774 295.1713,361.3114 292.6603,361.3114" id="Fill-19" fill="#4C5B60"></path>
                <path d="M306.53,350.7782 L306.53,361.1092 L305.097,361.1092 L305.097,350.7782 L301.424,350.7782 L301.424,349.4132 L310.204,349.4132 L310.204,350.7782 L306.53,350.7782 Z" id="Fill-20" fill="#4C5B60"></path>
                <path d="M325.064,363.145 L313.187,363.145 L313.187,362.04 L325.064,362.04 L325.064,363.145 Z" id="Fill-21" fill="#4C5B60"></path>
                <path d="M336.946,349.4129 L336.946,350.7779 L330.019,350.7779 L330.019,354.3169 L336.272,354.3169 L336.272,355.6829 L330.019,355.6829 L330.019,359.7269 L336.946,359.7269 L336.946,361.1089 L328.587,361.1089 L328.587,349.4129 L336.946,349.4129 Z" id="Fill-22" fill="#4C5B60"></path>
                <path d="M351.0344,361.1092 L349.4504,361.1092 L343.1644,351.5872 L343.1644,361.1092 L341.7314,361.1092 L341.7314,349.4132 L343.3324,349.4132 L349.6184,358.9182 L349.6184,349.4132 L351.0344,349.4132 L351.0344,361.1092 Z" id="Fill-23" fill="#4C5B60"></path>
                <path d="M367.2805,354.7386 L367.2805,361.1096 L365.8985,361.1096 L365.8985,359.1206 C365.0555,360.3846 363.5895,361.3116 361.6015,361.3116 C358.3825,361.3116 355.7865,358.5816 355.7865,355.2106 C355.7865,351.8566 358.3825,349.1266 361.6015,349.1266 C364.0955,349.1266 366.1175,350.6266 366.9775,353.0196 L365.4605,353.0196 C364.7185,351.4526 363.3205,350.5086 361.6015,350.5086 C359.1745,350.5086 357.2025,352.6486 357.2025,355.2106 C357.2025,357.7886 359.1745,359.9296 361.6015,359.9296 C364.0955,359.9296 365.6295,358.0756 365.8815,356.1206 L361.6855,356.1206 L361.6855,354.7386 L367.2805,354.7386 Z" id="Fill-24" fill="#4C5B60"></path>
                <path d="M376.1955,351.1658 L374.2915,356.3738 L378.0665,356.3738 L376.1955,351.1658 Z M373.8025,357.7048 L372.5555,361.1088 L371.0045,361.1088 L375.4205,349.4128 L377.0385,349.4128 L381.3695,361.1088 L379.7685,361.1088 L378.5385,357.7048 L373.8025,357.7048 Z" id="Fill-25" fill="#4C5B60"></path>
                <path d="M396.3347,354.7386 L396.3347,361.1096 L394.9527,361.1096 L394.9527,359.1206 C394.1097,360.3846 392.6437,361.3116 390.6557,361.3116 C387.4367,361.3116 384.8407,358.5816 384.8407,355.2106 C384.8407,351.8566 387.4367,349.1266 390.6557,349.1266 C393.1497,349.1266 395.1717,350.6266 396.0317,353.0196 L394.5147,353.0196 C393.7727,351.4526 392.3747,350.5086 390.6557,350.5086 C388.2287,350.5086 386.2567,352.6486 386.2567,355.2106 C386.2567,357.7886 388.2287,359.9296 390.6557,359.9296 C393.1497,359.9296 394.6837,358.0756 394.9357,356.1206 L390.7397,356.1206 L390.7397,354.7386 L396.3347,354.7386 Z" id="Fill-26" fill="#4C5B60"></path>
                <path d="M409.6823,349.4129 L409.6823,350.7779 L402.7553,350.7779 L402.7553,354.3169 L409.0083,354.3169 L409.0083,355.6829 L402.7553,355.6829 L402.7553,359.7269 L409.6823,359.7269 L409.6823,361.1089 L401.3233,361.1089 L401.3233,349.4129 L409.6823,349.4129 Z" id="Fill-27" fill="#4C5B60"></path>
                <path d="M424.98,363.145 L413.103,363.145 L413.103,362.04 L424.98,362.04 L424.98,363.145 Z" id="Fill-28" fill="#4C5B60"></path>
                <path d="M432.1599,361.3114 C429.4629,361.3114 427.6939,359.7444 427.6939,357.4014 L429.1769,357.4014 C429.1769,358.9694 430.3899,359.9464 432.1599,359.9464 C434.1649,359.9464 435.1429,359.1034 435.1429,357.7894 C435.1429,356.8114 434.7049,356.1374 432.1259,355.6994 C429.5309,355.2444 428.0479,354.4354 428.0479,352.4294 C428.0479,350.4244 429.6489,349.1264 432.1259,349.1264 C434.6879,349.1264 436.2719,350.5084 436.2719,352.7674 L434.8229,352.7674 C434.8229,351.4014 433.8959,350.4914 432.1429,350.4914 C430.3399,350.4914 429.4969,351.2834 429.4969,352.3794 C429.4969,353.3904 430.0359,353.8954 432.4299,354.3344 C434.9909,354.8234 436.5759,355.5474 436.5759,357.7894 C436.5759,360.0814 434.7719,361.3114 432.1599,361.3114" id="Fill-29" fill="#4C5B60"></path>
                <path d="M446.3835,361.3114 C443.1815,361.3114 440.5865,358.5814 440.5865,355.2104 C440.5865,351.8564 443.1815,349.1264 446.3835,349.1264 C449.0465,349.1264 451.0015,350.7104 451.7425,353.0194 L450.2425,353.0194 C449.6025,351.5534 448.2875,350.4914 446.3835,350.4914 C443.9735,350.4914 442.0015,352.6324 442.0015,355.2104 C442.0015,357.7894 443.9735,359.9294 446.3835,359.9294 C448.1025,359.9294 449.5345,358.9524 450.2425,357.4014 L451.7425,357.4014 C450.9505,359.7774 448.8945,361.3114 446.3835,361.3114" id="Fill-30" fill="#4C5B60"></path>
                <path d="M460.152,351.1658 L458.248,356.3738 L462.023,356.3738 L460.152,351.1658 Z M457.759,357.7048 L456.512,361.1088 L454.961,361.1088 L459.377,349.4128 L460.995,349.4128 L465.326,361.1088 L463.725,361.1088 L462.495,357.7048 L457.759,357.7048 Z" id="Fill-31" fill="#4C5B60"></path>
                <path d="M476.9377,361.1092 L469.4887,361.1092 L469.4887,349.4132 L470.9207,349.4132 L470.9207,359.7272 L476.9377,359.7272 L476.9377,361.1092 Z" id="Fill-32" fill="#4C5B60"></path>
                <path d="M489.7795,349.4129 L489.7795,350.7779 L482.8525,350.7779 L482.8525,354.3169 L489.1055,354.3169 L489.1055,355.6829 L482.8525,355.6829 L482.8525,359.7269 L489.7795,359.7269 L489.7795,361.1089 L481.4205,361.1089 L481.4205,349.4129 L489.7795,349.4129 Z" id="Fill-33" fill="#4C5B60"></path>
                <path d="M457.4424,261.1059 C458.5814,265.3559 462.9904,267.9019 467.2414,266.7629 L518.2484,253.1289 C518.2924,253.1179 518.3354,253.1119 518.3794,253.1009 L569.4834,239.3679 C573.7344,238.2289 576.2804,233.8189 575.1414,229.5689 L574.9954,229.0269 C573.8564,224.7759 569.4474,222.2309 565.1964,223.3689 L515.2904,236.7799 C515.1204,236.8059 514.9534,236.8439 514.7854,236.8819 C514.7534,236.8879 514.7214,236.8949 514.6884,236.9019 C514.6224,236.9179 514.5544,236.9269 514.4884,236.9439 L514.0914,237.0509 C514.0204,237.0709 513.9484,237.0869 513.8784,237.1079 L462.9544,250.7649 C458.7044,251.9039 456.1584,256.3139 457.2974,260.5639 L457.4424,261.1059 Z" id="Fill-34" fill="#FFFFFF"></path>
                <path d="M457.2972,288.8125 L457.3702,289.0835 L457.4422,289.3545 C458.1862,292.1315 460.3302,294.1725 462.9092,294.9415 C464.2782,295.3495 465.7682,295.4065 467.2412,295.0115 L517.8482,281.4515 L517.8482,281.4515 L552.8172,272.0815 L569.4832,267.6165 C570.0152,267.4735 570.5192,267.2805 570.9942,267.0425 C571.4682,266.8045 571.9112,266.5225 572.3212,266.2025 C572.6302,265.9605 572.9132,265.6905 573.1812,265.4085 C573.4082,265.1705 573.6212,264.9225 573.8162,264.6595 C575.2262,262.7615 575.7972,260.2645 575.1412,257.8175 L575.0572,257.5045 L574.9962,257.2755 C574.6402,255.9465 573.9642,254.7855 573.0742,253.8505 C572.7182,253.4765 572.3282,253.1385 571.9102,252.8415 C571.5932,252.6155 571.2562,252.4215 570.9112,252.2435 C570.5722,252.0695 570.2252,251.9115 569.8652,251.7865 C569.1362,251.5345 568.3672,251.3855 567.5822,251.3525 C566.7962,251.3205 565.9942,251.4045 565.1972,251.6175 L548.9532,255.9705 L513.5622,265.4535 L462.9542,279.0135 C459.5012,279.9385 457.1732,283.0235 457.0322,286.4275 C457.0102,286.9515 457.0402,287.4825 457.1262,288.0145 C457.1692,288.2805 457.2262,288.5465 457.2972,288.8125" id="Fill-35" fill="#FFFFFF"></path>
                <path d="M574.9776,285.9093 C573.8386,281.6593 569.4296,279.1133 565.1786,280.2523 L513.5436,294.0873 C513.5136,294.0953 513.4856,294.1073 513.4546,294.1163 L462.9546,307.6473 C462.9056,307.6603 462.8606,307.6803 462.8116,307.6943 C462.7646,307.7093 462.7176,307.7243 462.6696,307.7393 C458.8336,308.9233 456.4766,312.7983 457.1406,316.7133 C457.2386,317.3973 457.4206,318.0553 457.6666,318.6803 C457.6856,318.7323 457.7046,318.7843 457.7246,318.8353 C457.7596,318.9193 457.7966,319.0013 457.8336,319.0843 C458.2176,319.9723 458.7456,320.7683 459.3926,321.4413 C460.2666,322.3763 461.3336,323.0873 462.5106,323.4683 L507.9456,338.1823 L507.9456,365.0953 C507.9456,369.6433 511.6666,373.3643 516.2146,373.3643 C520.7626,373.3643 524.4836,369.6433 524.4836,365.0953 L524.4836,332.2203 C524.4836,331.8773 524.4556,331.5413 524.4146,331.2093 C524.4036,331.1103 524.3846,331.0133 524.3696,330.9153 C524.3466,330.7703 524.3256,330.6243 524.2946,330.4813 C524.2506,330.2713 524.1946,330.0643 524.1336,329.8593 C524.1226,329.8223 524.1146,329.7843 524.1026,329.7473 C523.2956,327.1573 521.2126,325.0483 518.7076,324.3383 L494.2116,316.4193 L518.8766,309.8103 C518.9066,309.8023 518.9346,309.7903 518.9646,309.7813 L569.4656,296.2503 C573.7156,295.1113 576.2616,290.7013 575.1226,286.4513 L574.9776,285.9093 Z" id="Fill-36" fill="#FFFFFF"></path>
                <path d="M574.9958,257.2752 C573.8568,253.0242 569.4478,250.4792 565.1968,251.6182 L514.5898,265.1782 L462.9548,279.0132 C458.7038,280.1522 456.1578,284.5622 457.2968,288.8122 L457.4428,289.3542 C458.5808,293.6052 462.9908,296.1502 467.2418,295.0122 L517.8488,281.4512 L569.4838,267.6162 C573.7338,266.4772 576.2798,262.0672 575.1408,257.8172 L574.9958,257.2752 Z" id="Fill-37" fill="#FFFFFF"></path>
                <path d="M518.8795,252.9598 L467.2415,266.7638 C462.9905,267.9018 458.5815,265.3568 457.4425,261.1058 L457.2975,260.5638 C456.1585,256.3138 458.7045,251.9038 462.9545,250.7648 L514.4885,236.9438 C518.4645,235.8788 523.2225,238.3398 524.4645,242.5698 L524.5745,243.0618 C525.6745,247.3198 522.9655,251.8508 518.8795,252.9598" id="Fill-38" fill="#D2DB2F"></path>
                <path d="M524.8209,245.0196 C524.8209,249.6006 521.0729,253.3146 516.4489,253.3146 C511.8249,253.3146 507.5879,249.5566 507.5879,244.9756 C507.5879,240.3936 511.8279,236.7466 516.4579,236.7096 C521.0809,236.6736 524.8209,240.4386 524.8209,245.0196" id="Fill-39" fill="#CBD832"></path>
                <path d="M507.9456,365.0951 L507.9456,332.2201 C507.9456,327.6721 511.6666,323.9511 516.2146,323.9511 C520.7626,323.9511 524.4836,327.6721 524.4836,332.2201 L524.4836,365.0951 C524.4836,369.6431 520.7626,373.3641 516.2146,373.3641 C511.6666,373.3641 507.9456,369.6431 507.9456,365.0951" id="Fill-40" fill="#35A0CE"></path>
                <path d="M514.4834,340.2995 L462.5104,323.4685 C458.8114,322.2715 456.1794,317.8305 457.3124,313.3165 C458.6834,308.5275 463.6184,306.6635 466.6884,307.5225 L518.7074,324.3375 C522.6364,325.4515 525.5424,330.0025 524.0824,334.4655 C522.8204,338.8345 518.5004,341.4595 514.4834,340.2995" id="Fill-41" fill="#60C4E5"></path>
                <path d="M569.4836,239.3676 L518.3796,253.1006 C514.4626,254.1416 509.4416,251.4966 508.0666,247.5376 L507.9006,246.9966 C506.7616,242.7456 509.3376,238.3086 514.0926,237.1026 L565.1966,223.3696 C569.4476,222.2306 573.8566,224.7766 574.9956,229.0266 L575.1406,229.5686 C576.2796,233.8196 573.7336,238.2286 569.4836,239.3676" id="Fill-42" fill="#FFF101"></path>
                <path d="M518.8765,281.1762 L467.2415,295.0122 C462.9905,296.1502 458.5815,293.6052 457.4425,289.3542 L457.2975,288.8122 C456.1585,284.5622 458.7045,280.1522 462.9545,279.0132 L514.5895,265.1782 C518.8405,264.0392 523.2495,266.5852 524.3885,270.8352 L524.5335,271.3772 C525.6725,275.6282 523.1265,280.0372 518.8765,281.1762" id="Fill-43" fill="#6EB853"></path>
                <path d="M569.4836,267.6161 L517.8486,281.4521 C513.5976,282.5901 509.1886,280.0451 508.0496,275.7941 L507.9046,275.2521 C506.7656,271.0021 509.3116,266.5921 513.5616,265.4531 L565.1966,251.6181 C569.4476,250.4791 573.8566,253.0251 574.9956,257.2751 L575.1406,257.8171 C576.2796,262.0681 573.7336,266.4771 569.4836,267.6161" id="Fill-44" fill="#B8D24C"></path>
                <path d="M518.8765,309.8103 L467.2415,323.6463 C462.9905,324.7843 458.5815,322.2393 457.4425,317.9883 L457.2975,317.4463 C456.1585,313.1963 458.7045,308.7863 462.9545,307.6473 L514.5895,293.8123 C518.8405,292.6733 523.2495,295.2193 524.3885,299.4693 L524.5335,300.0113 C525.6725,304.2623 523.1265,308.6713 518.8765,309.8103" id="Fill-45" fill="#03B2B6"></path>
                <path d="M569.4653,296.2502 L517.8303,310.0862 C513.5793,311.2242 509.1703,308.6792 508.0313,304.4282 L507.8863,303.8862 C506.7473,299.6362 509.2933,295.2262 513.5433,294.0872 L565.1783,280.2522 C569.4293,279.1132 573.8383,281.6592 574.9773,285.9092 L575.1223,286.4512 C576.2613,290.7022 573.7163,295.1112 569.4653,296.2502" id="Fill-46" fill="#079D89"></path>
            </g>
        </g>
    </g>
</svg>