<?xml version="1.0" encoding="UTF-8"?>
<svg width="712px" height="296px" viewBox="0 0 712 296" version="1.1" xmlns="http://www.w3.org/2000/svg" xmlns:xlink="http://www.w3.org/1999/xlink">
    <!-- Generator: Sketch 43.2 (39069) - http://www.bohemiancoding.com/sketch -->
    <title>growitup</title>
    <desc>Created with Sketch.</desc>
    <defs></defs>
    <g id="Page-1" stroke="none" stroke-width="1" fill="none" fill-rule="evenodd">
        <g id="growitup" fill-rule="nonzero">
            <rect id="Rectangle-path" fill="#FFFFFF" x="0" y="0" width="712" height="295.429993"></rect>
            <g id="Page-1" transform="translate(29.000000, 56.000000)">
                <path d="M32.1019011,64.6734409 C20.3264298,64.6734409 10.7593133,75.0989584 10.7593133,88.3454556 C10.7593133,101.591953 20.3264298,111.772905 32.1019011,111.772905 C43.7538789,111.772905 53.4432782,101.347387 53.4432782,88.3454556 C53.4432782,75.2224519 43.6303854,64.6734409 32.1019011,64.6734409 L32.1019011,64.6734409 Z M63.7465129,116.924522 C63.7465129,137.161722 50.7445813,150.899772 31.2435,150.899772 C16.4024834,150.899772 4.74929482,142.927175 1.4379732,130.048737 L12.4761155,130.048737 C16.647049,139.49236 26.7045074,140.842313 31.2435,140.842313 C47.5567532,140.842313 53.4432782,128.330724 53.4432782,116.924522 L53.4432782,110.914504 C48.5374372,117.414864 40.9328993,121.462304 31.8561248,121.462304 C14.4386941,121.462304 0.333795749,107.235123 0.333795749,88.3454556 C0.333795749,69.3347163 14.5621876,55.1063244 32.1019011,55.1063244 C50.0096738,55.1063244 63.7465129,69.7015647 63.7465129,88.3454556 L63.7465129,116.924522 Z" id="Fill-1" fill="#4C5B60"></path>
                <path d="M106.704585,55.4745046 L106.704585,65.1639039 C94.5622652,64.0597264 86.8342338,69.9474621 86.8342338,82.0897819 L86.8342338,119.867906 L76.5309991,119.867906 L76.5309991,82.3355582 C76.5309991,63.2013253 90.1455555,53.5119261 106.704585,55.4745046" id="Fill-3" fill="#4C5B60"></path>
                <path d="M164.079074,88.4683438 C164.079074,75.5899057 154.511957,65.0408946 142.737697,65.0408946 C131.085719,65.0408946 121.517392,75.5899057 121.517392,88.4683438 C121.517392,101.102216 131.085719,111.405451 142.737697,111.405451 C154.511957,111.405451 164.079074,101.102216 164.079074,88.4683438 M174.504591,88.4683438 C174.504591,106.621893 160.767752,121.461699 142.737697,121.461699 C124.829924,121.461699 110.969591,106.621893 110.969591,88.4683438 C110.969591,70.0702292 124.829924,55.105719 142.737697,55.105719 C160.767752,55.105719 174.504591,70.0702292 174.504591,88.4683438" id="Fill-5" fill="#4C5B60"></path>
                <path d="M270.032528,97.1766959 C270.032528,110.914746 260.220846,121.339053 245.86896,121.339053 C237.283738,121.339053 230.661095,117.415106 226.858221,110.914746 C223.17884,117.415106 216.554986,121.339053 207.968554,121.339053 C193.741372,121.339053 183.806197,110.914746 183.806197,97.1766959 L183.806197,56.701086 L194.231714,56.701086 L194.231714,97.1766959 C194.231714,105.271576 199.629108,111.282805 207.968554,111.282805 C216.30921,111.282805 221.706604,105.271576 221.706604,97.1766959 L221.706604,56.701086 L232.132121,56.701086 L232.132121,97.1766959 C232.132121,105.271576 237.528304,111.282805 245.86896,111.282805 C254.210827,111.282805 259.60701,105.271576 259.60701,97.1766959 L259.60701,56.701086 L270.032528,56.701086 L270.032528,97.1766959 Z" id="Fill-7" fill="#4C5B60"></path>
                <path d="M317.45586,119.867421 L307.030342,119.867421 L307.030342,56.7004806 L317.45586,56.7004806 L317.45586,119.867421 Z M307.030342,47.1333641 L307.030342,39.2830499 C307.030342,36.463281 309.36098,34.2549261 312.181959,34.2549261 C315.125222,34.2549261 317.45586,36.463281 317.45586,39.2830499 L317.45586,47.1333641 L307.030342,47.1333641 Z" id="Fill-9" fill="#4C5B60"></path>
                <path d="M358.912274,119.868027 C344.193541,121.584829 334.012589,112.876114 334.012589,96.8086368 L334.012589,43.2088124 L344.317034,43.2088124 L344.317034,56.701086 L358.666498,56.701086 L358.666498,66.6362616 L344.317034,66.6362616 L344.317034,96.8086368 C344.317034,107.970273 351.06196,110.791252 358.912274,110.30091 L358.912274,119.868027 Z" id="Fill-11" fill="#4C5B60"></path>
                <path d="M570.682855,56.7008438 L581.108372,56.7008438 L581.108372,94.9693096 C581.108372,110.914504 569.579888,121.340021 554.737661,121.340021 C539.896644,121.340021 528.36816,110.914504 528.36816,94.9693096 L528.36816,56.7008438 L538.670184,56.7008438 L538.670184,94.9693096 C538.670184,104.412933 544.925979,111.282563 554.737661,111.282563 C564.428271,111.282563 570.682855,104.412933 570.682855,94.9693096 L570.682855,56.7008438 Z" id="Fill-12" fill="#4C5B60"></path>
                <path d="M623.043264,64.7960869 C611.513569,64.7960869 601.700677,75.2216044 601.700677,88.3458189 C601.700677,101.470033 611.391287,111.895551 623.043264,111.895551 C634.695242,111.895551 644.262359,101.592316 644.262359,88.3458189 C644.262359,75.0993216 634.695242,64.7960869 623.043264,64.7960869 M623.165547,121.462667 C614.458043,121.462667 606.484235,117.169451 601.333828,110.791373 L601.333828,147.955662 L591.275159,147.955662 L591.275159,88.3458189 C591.275159,69.7019279 605.135492,55.1054769 623.043264,55.1054769 C640.459484,55.1054769 654.687876,69.3338688 654.687876,88.3458189 C654.687876,107.234275 640.705261,121.462667 623.165547,121.462667" id="Fill-13" fill="#4C5B60"></path>
                <path d="M84.0873503,167.456501 C80.210622,167.456501 77.0675906,164.151233 77.0675906,160.069893 C77.0675906,156.009135 80.210622,152.703867 84.0873503,152.703867 C87.3115,152.703867 89.6784593,154.621649 90.5756035,157.417203 L88.7595222,157.417203 C87.9846608,155.642287 86.3937736,154.356501 84.0873503,154.356501 C81.1695129,154.356501 78.7819713,156.948654 78.7819713,160.069893 C78.7819713,163.192342 81.1695129,165.783285 84.0873503,165.783285 C86.1685795,165.783285 87.9035425,164.60041 88.7595222,162.722582 L90.5756035,162.722582 C89.6167126,165.599255 87.1274704,167.456501 84.0873503,167.456501" id="Fill-14" fill="#4C5B60"></path>
                <path d="M107.490706,160.070377 C107.490706,156.805063 105.164911,154.356985 102.185327,154.356985 C99.2674898,154.356985 96.8799482,156.86681 96.8799482,160.070377 C96.8799482,163.294527 99.2674898,165.783769 102.185327,165.783769 C105.103165,165.783769 107.490706,163.273945 107.490706,160.070377 M109.205087,160.070377 C109.205087,164.191671 106.062055,167.456985 102.185327,167.456985 C98.3085989,167.456985 95.1667782,164.212253 95.1667782,160.070377 C95.1667782,155.947872 98.3085989,152.704351 102.185327,152.704351 C106.123802,152.704351 109.205087,155.866754 109.205087,160.070377" id="Fill-15" fill="#4C5B60"></path>
                <polygon id="Fill-16" fill="#4C5B60" points="126.180968 167.211693 124.263186 167.211693 116.651384 155.683209 116.651384 167.211693 114.917631 167.211693 114.917631 153.051102 116.855995 153.051102 124.466587 164.559004 124.466587 153.051102 126.180968 153.051102"></polygon>
                <polygon id="Fill-17" fill="#4C5B60" points="144.034379 167.211693 142.116597 167.211693 134.504795 155.683209 134.504795 167.211693 132.771043 167.211693 132.771043 153.051102 134.709407 153.051102 142.319998 164.559004 142.319998 153.051102 144.034379 153.051102"></polygon>
                <polygon id="Fill-18" fill="#4C5B60" points="160.744991 153.050738 160.744991 154.703372 152.358327 154.703372 152.358327 158.988114 159.928965 158.988114 159.928965 160.641958 152.358327 160.641958 152.358327 165.538114 160.744991 165.538114 160.744991 167.21133 150.624575 167.21133 150.624575 153.050738"></polygon>
                <path d="M172.721805,167.456501 C168.845077,167.456501 165.702045,164.151233 165.702045,160.069893 C165.702045,156.009135 168.845077,152.703867 172.721805,152.703867 C175.945955,152.703867 178.312914,154.621649 179.210058,157.417203 L177.393977,157.417203 C176.619116,155.642287 175.028228,154.356501 172.721805,154.356501 C169.803968,154.356501 167.416426,156.948654 167.416426,160.069893 C167.416426,163.192342 169.803968,165.783285 172.721805,165.783285 C174.803034,165.783285 176.537997,164.60041 177.393977,162.722582 L179.210058,162.722582 C178.251167,165.599255 175.761925,167.456501 172.721805,167.456501" id="Fill-19" fill="#4C5B60"></path>
                <polygon id="Fill-20" fill="#4C5B60" points="189.51414 154.703736 189.51414 167.211693 187.779177 167.211693 187.779177 154.703736 183.3322 154.703736 183.3322 153.051102 193.962329 153.051102 193.962329 154.703736"></polygon>
                <polygon id="Fill-21" fill="#4C5B60" points="211.953641 169.676479 197.573909 169.676479 197.573909 168.338632 211.953641 168.338632"></polygon>
                <polygon id="Fill-22" fill="#4C5B60" points="226.339427 153.050738 226.339427 154.703372 217.952763 154.703372 217.952763 158.988114 225.523401 158.988114 225.523401 160.641958 217.952763 160.641958 217.952763 165.538114 226.339427 165.538114 226.339427 167.21133 216.219011 167.21133 216.219011 153.050738"></polygon>
                <polygon id="Fill-23" fill="#4C5B60" points="243.396547 167.211693 241.478765 167.211693 233.868174 155.683209 233.868174 167.211693 232.133211 167.211693 232.133211 153.051102 234.071575 153.051102 241.682166 164.559004 241.682166 153.051102 243.396547 153.051102"></polygon>
                <path d="M263.06604,159.498675 L263.06604,167.212177 L261.392823,167.212177 L261.392823,164.804054 C260.372186,166.334405 258.597269,167.456743 256.190356,167.456743 C252.293045,167.456743 249.150014,164.151475 249.150014,160.070135 C249.150014,156.009377 252.293045,152.704109 256.190356,152.704109 C259.209894,152.704109 261.657971,154.52019 262.699191,157.417445 L260.862528,157.417445 C259.964173,155.520246 258.271585,154.377325 256.190356,154.377325 C253.251936,154.377325 250.864395,156.968268 250.864395,160.070135 C250.864395,163.191373 253.251936,165.783527 256.190356,165.783527 C259.209894,165.783527 261.06714,163.53885 261.372241,161.171891 L256.292056,161.171891 L256.292056,159.498675 L263.06604,159.498675 Z" id="Fill-24" fill="#4C5B60"></path>
                <path d="M273.859616,155.173011 L271.554404,161.478445 L276.124875,161.478445 L273.859616,155.173011 Z M270.962361,163.089915 L269.452592,167.211209 L267.574764,167.211209 L272.921308,153.050617 L274.880254,153.050617 L280.123886,167.211209 L278.185522,167.211209 L276.696335,163.089915 L270.962361,163.089915 Z" id="Fill-25" fill="#4C5B60"></path>
                <path d="M298.242567,159.498675 L298.242567,167.212177 L296.56935,167.212177 L296.56935,164.804054 C295.548713,166.334405 293.773796,167.456743 291.366883,167.456743 C287.469572,167.456743 284.326541,164.151475 284.326541,160.070135 C284.326541,156.009377 287.469572,152.704109 291.366883,152.704109 C294.386421,152.704109 296.834498,154.52019 297.875718,157.417445 L296.039055,157.417445 C295.1407,155.520246 293.448112,154.377325 291.366883,154.377325 C288.428463,154.377325 286.040921,156.968268 286.040921,160.070135 C286.040921,163.191373 288.428463,165.783527 291.366883,165.783527 C294.386421,165.783527 296.243666,163.53885 296.548768,161.171891 L291.468583,161.171891 L291.468583,159.498675 L298.242567,159.498675 Z" id="Fill-26" fill="#4C5B60"></path>
                <polygon id="Fill-27" fill="#4C5B60" points="314.402785 153.050738 314.402785 154.703372 306.016121 154.703372 306.016121 158.988114 313.586759 158.988114 313.586759 160.641958 306.016121 160.641958 306.016121 165.538114 314.402785 165.538114 314.402785 167.21133 304.282369 167.21133 304.282369 153.050738"></polygon>
                <polygon id="Fill-28" fill="#4C5B60" points="332.92403 169.676479 318.544298 169.676479 318.544298 168.338632 332.92403 168.338632"></polygon>
                <path d="M341.616884,167.456501 C338.35157,167.456501 336.209805,165.559301 336.209805,162.722582 L338.005304,162.722582 C338.005304,164.620993 339.473909,165.803867 341.616884,165.803867 C344.04438,165.803867 345.228465,164.783229 345.228465,163.192342 C345.228465,162.008257 344.698169,161.192231 341.57572,160.661935 C338.433899,160.111057 336.6384,159.131584 336.6384,156.702878 C336.6384,154.275383 338.576764,152.703867 341.57572,152.703867 C344.677587,152.703867 346.595369,154.377083 346.595369,157.112102 L344.841034,157.112102 C344.841034,155.458257 343.718696,154.356501 341.596302,154.356501 C339.413372,154.356501 338.392735,155.315392 338.392735,156.642342 C338.392735,157.866381 339.045313,158.477795 341.943779,159.009301 C345.044435,159.601344 346.963428,160.477906 346.963428,163.192342 C346.963428,165.967314 344.779287,167.456501 341.616884,167.456501" id="Fill-29" fill="#4C5B60"></path>
                <path d="M358.837694,167.456501 C354.960966,167.456501 351.819145,164.151233 351.819145,160.069893 C351.819145,156.009135 354.960966,152.703867 358.837694,152.703867 C362.061844,152.703867 364.428803,154.621649 365.325947,157.417203 L363.509866,157.417203 C362.735005,155.642287 361.142907,154.356501 358.837694,154.356501 C355.919857,154.356501 353.532315,156.948654 353.532315,160.069893 C353.532315,163.192342 355.919857,165.783285 358.837694,165.783285 C360.918923,165.783285 362.652676,164.60041 363.509866,162.722582 L365.325947,162.722582 C364.367056,165.599255 361.877814,167.456501 358.837694,167.456501" id="Fill-30" fill="#4C5B60"></path>
                <path d="M375.507505,155.173011 L373.202292,161.478445 L377.772763,161.478445 L375.507505,155.173011 Z M372.61025,163.089915 L371.100481,167.211209 L369.222652,167.211209 L374.569196,153.050617 L376.528142,153.050617 L381.771774,167.211209 L379.83341,167.211209 L378.344224,163.089915 L372.61025,163.089915 Z" id="Fill-31" fill="#4C5B60"></path>
                <polygon id="Fill-32" fill="#4C5B60" points="395.830302 167.211693 386.811642 167.211693 386.811642 153.051102 388.545395 153.051102 388.545395 165.538477 395.830302 165.538477"></polygon>
                <polygon id="Fill-33" fill="#4C5B60" points="411.378138 153.050738 411.378138 154.703372 402.991474 154.703372 402.991474 158.988114 410.562112 158.988114 410.562112 160.641958 402.991474 160.641958 402.991474 165.538114 411.378138 165.538114 411.378138 167.21133 401.257722 167.21133 401.257722 153.050738"></polygon>
                <path d="M372.226935,46.1356091 C373.605946,51.2811728 378.944015,54.3636682 384.090789,52.9846571 L445.84603,36.4776885 C445.899301,36.4643706 445.951362,36.4571063 446.004634,36.4437884 L507.877314,19.8169584 C513.024089,18.4379473 516.106584,13.0986682 514.727573,7.95310444 L514.550808,7.29689372 C513.171797,2.15011922 507.833728,-0.931165434 502.686954,0.446634935 L442.264717,16.6836128 C442.058895,16.7150915 441.856704,16.7610989 441.653303,16.8071063 C441.61456,16.8143706 441.575817,16.8228457 441.535863,16.8313207 C441.455956,16.8506922 441.373627,16.8615887 441.293719,16.882171 L440.813063,17.0117181 C440.727102,17.0359325 440.63993,17.0553041 440.555179,17.0807292 L378.900429,33.6155444 C373.754865,34.9945555 370.67237,40.3338346 372.051381,45.4793983 L372.226935,46.1356091 Z" id="Fill-34" fill="#FFFFFF"></path>
                <path d="M372.051139,79.6805684 L372.139521,80.0086738 L372.226693,80.3367791 C373.12747,83.698951 375.723255,86.1700323 378.845704,87.1010767 C380.503181,87.5950508 382.307155,87.6640619 384.090547,87.1858272 L445.361499,70.7684519 L445.361499,70.7684519 L487.699198,59.4239972 L507.877072,54.0181285 C508.521176,53.8449954 509.131379,53.6113262 509.706471,53.3231747 C510.280353,53.0350231 510.816702,52.6935998 511.313098,52.3061691 C511.687211,52.0131747 512.029845,51.68628 512.354318,51.3448567 C512.629152,51.0567052 512.887035,50.7564464 513.123126,50.4380268 C514.830242,48.1400786 515.521564,45.1169085 514.727331,42.1542745 L514.62563,41.7753189 L514.551776,41.4980638 C514.12076,39.8890157 513.302312,38.4833688 512.224771,37.3513447 C511.793754,36.8985351 511.321573,36.4893115 510.815492,36.1297274 C510.431693,35.8561044 510.02368,35.6212246 509.605982,35.4057163 C509.195547,35.1950508 508.775427,35.0037569 508.339567,34.8524168 C507.456952,34.5473152 506.525908,34.3669177 505.575492,34.326964 C504.623865,34.2882209 503.652867,34.3899214 502.687922,34.647805 L483.020972,39.918073 L440.172349,51.3993392 L378.900187,67.8167144 C374.719567,68.9366312 371.901009,72.6717052 371.730298,76.7929991 C371.703662,77.4274168 371.739983,78.0703096 371.844105,78.7144131 C371.896166,79.0364649 371.965177,79.3585166 372.051139,79.6805684" id="Fill-35" fill="#FFFFFF"></path>
                <path d="M514.529257,76.1656035 C513.150246,71.0200397 507.812177,67.9375444 502.665403,69.3165555 L440.14983,86.0668789 C440.113508,86.0765647 440.079608,86.0910933 440.042076,86.1019898 L378.900671,102.484254 C378.841346,102.499994 378.786863,102.524208 378.727538,102.541158 C378.670634,102.559319 378.61373,102.57748 378.555616,102.59564 C373.91129,104.029134 371.057621,108.720677 371.86154,113.46065 C371.98019,114.288783 372.200542,115.085437 372.498379,115.842138 C372.521383,115.905095 372.544386,115.968053 372.568601,116.029799 C372.610976,116.1315 372.655773,116.230779 372.700569,116.331269 C373.165486,117.406389 373.804747,118.370123 374.588083,119.184938 C375.646253,120.316962 376.938092,121.177785 378.363111,121.639069 L433.372214,139.453616 L433.372214,172.037748 C433.372214,177.544106 437.877307,182.049199 443.383665,182.049199 C448.890024,182.049199 453.395116,177.544106 453.395116,172.037748 L453.395116,132.235299 C453.395116,131.820021 453.361216,131.413219 453.311577,131.01126 C453.298259,130.891398 453.275255,130.773958 453.257094,130.655308 C453.229248,130.479753 453.203823,130.302988 453.16629,130.129855 C453.113018,129.875604 453.045218,129.624984 452.971364,129.376787 C452.958046,129.33199 452.94836,129.285982 452.933832,129.241186 C451.95678,126.105419 449.434848,123.552008 446.401993,122.692396 L416.744174,113.104698 L446.606604,105.103043 C446.642926,105.093358 446.676826,105.078829 446.713148,105.067933 L507.855763,88.6856682 C513.001327,87.3066571 516.083823,81.967378 514.704811,76.8218142 L514.529257,76.1656035 Z" id="Fill-36" fill="#FFFFFF"></path>
                <path d="M514.551292,41.4977006 C513.172281,36.3509261 507.834213,33.2696414 502.687438,34.6486525 L441.416486,51.0660277 L378.900913,67.8163512 C373.754139,69.1953623 370.671643,74.5346414 372.050654,79.6802052 L372.22742,80.3364159 C373.60522,85.4831904 378.944499,88.564475 384.091274,87.1866747 L445.362226,70.7680887 L507.877799,54.0177652 C513.023362,52.6387542 516.105858,47.299475 514.726847,42.1539113 L514.551292,41.4977006 Z" id="Fill-37" fill="#FFFFFF"></path>
                <path d="M446.610116,36.2729556 L384.09091,52.9857468 C378.944136,54.3635471 373.606067,51.2822625 372.227056,46.135488 L372.051502,45.4792773 C370.672491,40.3337135 373.754986,34.9944344 378.90055,33.6154233 L441.29384,16.8820499 C446.107666,15.5926322 451.868276,18.5722163 453.371992,23.6935656 L453.505171,24.2892403 C454.836964,29.4444898 451.557121,34.9302662 446.610116,36.2729556" id="Fill-38" fill="#D2DB2F"></path>
                <path d="M453.803493,26.6595896 C453.803493,32.205902 449.265711,36.7025194 443.667337,36.7025194 C438.068964,36.7025194 432.93914,32.1526303 432.93914,26.6063179 C432.93914,21.0587948 438.072596,16.6432957 443.678234,16.5984991 C449.275396,16.5549131 453.803493,21.1132773 453.803493,26.6595896" id="Fill-39" fill="#CBD832"></path>
                <path d="M433.372214,172.037506 L433.372214,132.235056 C433.372214,126.728698 437.877307,122.223605 443.383665,122.223605 C448.890024,122.223605 453.395116,126.728698 453.395116,132.235056 L453.395116,172.037506 C453.395116,177.543864 448.890024,182.048957 443.383665,182.048957 C437.877307,182.048957 433.372214,177.543864 433.372214,172.037506" id="Fill-40" fill="#35A0CE"></path>
                <path d="M441.287665,142.016955 L378.362869,121.639311 C373.884412,120.190079 370.697795,114.813267 372.069542,109.348073 C373.72944,103.549931 379.704348,101.293147 383.421261,102.333156 L446.40175,122.691428 C451.158673,124.040171 454.677028,129.550162 452.909375,134.953609 C451.381445,140.243249 446.151131,143.421391 441.287665,142.016955" id="Fill-41" fill="#60C4E5"></path>
                <path d="M507.877556,19.8165952 L446.004876,36.4434251 C441.262482,37.7037856 435.183453,34.5014288 433.518712,29.7081848 L433.317732,29.0531848 C431.938721,23.9064104 435.057538,18.5344418 440.814516,17.0743124 L502.687196,0.44748244 C507.83397,-0.931528651 513.172039,2.15096673 514.55105,7.2965305 L514.726604,7.95274122 C516.105616,13.0995157 513.02312,18.4375841 507.877556,19.8165952" id="Fill-42" fill="#FFF101"></path>
                <path d="M446.606483,70.4351405 L384.09091,87.1866747 C378.944136,88.564475 373.606067,85.4831904 372.227056,80.3364159 L372.051502,79.6802052 C370.672491,74.5346414 373.754986,69.1953623 378.90055,67.8163512 L441.416123,51.0660277 C446.562897,49.6870166 451.900966,52.769512 453.279977,57.9150758 L453.455531,58.5712865 C454.834543,63.718061 451.752047,69.0561294 446.606483,70.4351405" id="Fill-43" fill="#6EB853"></path>
                <path d="M507.877556,54.0176442 L445.361983,70.7691784 C440.215209,72.1469787 434.87714,69.0656941 433.498129,63.9189196 L433.322575,63.2627089 C431.943564,58.1171451 435.026059,52.777866 440.171623,51.3988549 L502.687196,34.6485314 C507.83397,33.2695203 513.172039,36.3520157 514.55105,41.4975795 L514.726604,42.1537902 C516.105616,47.3005647 513.02312,52.6386331 507.877556,54.0176442" id="Fill-44" fill="#B8D24C"></path>
                <path d="M446.606483,105.103043 L384.09091,121.854578 C378.944136,123.232378 373.606067,120.151093 372.227056,115.004319 L372.051502,114.348108 C370.672491,109.202544 373.754986,103.863265 378.90055,102.484254 L441.416123,85.7339307 C446.562897,84.3549196 451.900966,87.437415 453.279977,92.5829787 L453.455531,93.2391895 C454.834543,98.385964 451.752047,103.724032 446.606483,105.103043" id="Fill-45" fill="#03B2B6"></path>
                <path d="M507.8554,88.6855471 L445.339827,105.437081 C440.193053,106.814882 434.854984,103.733597 433.475973,98.5868226 L433.300419,97.9306118 C431.921408,92.7850481 435.003903,87.4457689 440.149467,86.0667579 L502.66504,69.3164344 C507.811814,67.9374233 513.149883,71.0199187 514.528894,76.1654824 L514.704448,76.8216932 C516.083459,81.9684677 513.002175,87.306536 507.8554,88.6855471" id="Fill-46" fill="#079D89"></path>
            </g>
        </g>
    </g>
</svg>