<?xml version="1.0" encoding="utf-8"?>
<!-- Generator: Adobe Illustrator 19.2.1, SVG Export Plug-In . SVG Version: 6.00 Build 0)  -->
<svg version="1.1" id="Layer_1" xmlns="http://www.w3.org/2000/svg" xmlns:xlink="http://www.w3.org/1999/xlink" x="0px" y="0px"
	 viewBox="0 0 623.6 255.1" style="enable-background:new 0 0 623.6 255.1;" xml:space="preserve">
<style type="text/css">
	.st0{fill:#FFFFFF;}
	.st1{clip-path:url(#SVGID_2_);}
	.st2{clip-path:url(#SVGID_4_);fill:#7E7E7E;}
	.st3{clip-path:url(#SVGID_4_);fill:#EB5F21;}
	.st4{clip-path:url(#SVGID_4_);fill:#97C22C;}
	.st5{clip-path:url(#SVGID_4_);fill:#00A0E4;}
	.st6{clip-path:url(#SVGID_4_);fill:#FDC400;}
</style>
<title>balsamiq</title>
<g id="BG">
	<rect class="st0" width="623.6" height="255.1"/>
</g>
<g>
	<g>
		<defs>
			<rect id="SVGID_1_" x="-83.7" y="-53.7" width="791" height="354.5"/>
		</defs>
		<clipPath id="SVGID_2_">
			<use xlink:href="#SVGID_1_"  style="overflow:visible;"/>
		</clipPath>
		<g class="st1">
			<defs>
				<rect id="SVGID_3_" x="-83.7" y="-53.7" width="791" height="354.5"/>
			</defs>
			<clipPath id="SVGID_4_">
				<use xlink:href="#SVGID_3_"  style="overflow:visible;"/>
			</clipPath>
			<path class="st2" d="M264.8,88.1V159h-12.3v-55.6h-0.2l-22,55.6h-8.2l-22.5-55.6h-0.1V159h-11.4V88.1h17.6l20.4,52.6h0.3
				l21.5-52.6H264.8z M275.1,93.5c0-2,0.7-3.6,2.2-5c1.4-1.3,3.1-2,5.1-2c2.1,0,3.9,0.7,5.2,2.1c1.4,1.4,2.1,3,2.1,4.9
				c0,1.9-0.7,3.6-2.1,4.9c-1.4,1.3-3.1,2-5.2,2c-2,0-3.8-0.7-5.2-2C275.8,97,275.1,95.4,275.1,93.5 M288.3,159h-12v-50.8h12V159z
				 M324.6,150.3c1.8,0,3.7-0.4,5.9-1.2c2.1-0.8,4.1-1.9,5.9-3.3v11.1c-1.9,1.1-4.1,1.9-6.5,2.5c-2.4,0.6-5.1,0.8-8,0.8
				c-7.5,0-13.6-2.4-18.2-7.1c-4.7-4.7-7-10.8-7-18.1c0-8.2,2.4-14.9,7.2-20.2c4.8-5.3,11.5-7.9,20.3-7.9c2.2,0,4.5,0.3,6.8,0.9
				c2.3,0.6,4.1,1.2,5.5,2v11.5c-1.8-1.4-3.7-2.4-5.7-3.1c-1.9-0.7-3.9-1.1-5.9-1.1c-4.7,0-8.5,1.5-11.4,4.6
				c-2.9,3.1-4.4,7.2-4.4,12.4c0,5.1,1.4,9.1,4.2,12C316,148.9,319.8,150.3,324.6,150.3 M370.4,107.3c1,0,1.8,0.1,2.6,0.2
				c0.8,0.1,1.4,0.3,1.9,0.5v12.1c-0.6-0.5-1.5-0.9-2.7-1.3c-1.2-0.4-2.7-0.6-4.4-0.6c-2.9,0-5.4,1.2-7.4,3.7c-2,2.5-3,6.3-3,11.4
				V159h-12v-50.8h12v8h0.2c1.1-2.8,2.7-4.9,4.9-6.5C364.7,108.1,367.3,107.3,370.4,107.3 M375.6,134.3c0-8.4,2.4-15.1,7.1-20
				c4.7-4.9,11.3-7.4,19.8-7.4c7.9,0,14.1,2.4,18.6,7.1c4.5,4.7,6.7,11.1,6.7,19.2c0,8.2-2.4,14.8-7.1,19.7
				c-4.7,4.9-11.2,7.3-19.4,7.3c-7.9,0-14.1-2.3-18.8-6.9C377.9,148.6,375.6,142.3,375.6,134.3 M388,133.9c0,5.3,1.2,9.4,3.6,12.2
				c2.4,2.8,5.8,4.2,10.3,4.2c4.4,0,7.7-1.4,9.9-4.2c2.3-2.8,3.4-7,3.4-12.5c0-5.5-1.2-9.6-3.5-12.4c-2.4-2.8-5.7-4.2-9.9-4.2
				c-4.4,0-7.8,1.5-10.2,4.4C389.3,124.4,388,128.5,388,133.9 M445.6,121.5c0,1.7,0.5,3.1,1.6,4c1.1,1,3.5,2.2,7.2,3.7
				c4.8,1.9,8.1,4.1,10.1,6.5c1.9,2.4,2.9,5.3,2.9,8.7c0,4.8-1.8,8.6-5.5,11.5c-3.7,2.9-8.6,4.4-14.9,4.4c-2.1,0-4.4-0.3-7-0.8
				c-2.6-0.5-4.7-1.2-6.5-2v-11.8c2.2,1.5,4.5,2.7,7,3.6c2.5,0.9,4.8,1.3,6.8,1.3c2.7,0,4.7-0.4,6-1.1c1.3-0.8,1.9-2,1.9-3.8
				c0-1.6-0.7-3-2-4.2c-1.3-1.1-3.9-2.4-7.6-3.9c-4.4-1.8-7.5-3.9-9.4-6.2c-1.8-2.3-2.8-5.2-2.8-8.8c0-4.6,1.8-8.3,5.5-11.3
				c3.6-2.9,8.4-4.4,14.2-4.4c1.8,0,3.8,0.2,6,0.6c2.2,0.4,4.1,0.9,5.5,1.5v11.4c-1.6-1.1-3.4-2-5.5-2.7c-2.1-0.8-4.2-1.1-6.3-1.1
				c-2.3,0-4,0.4-5.3,1.3C446.2,118.7,445.6,120,445.6,121.5 M472.5,134.3c0-8.4,2.4-15.1,7.1-20c4.7-4.9,11.3-7.4,19.8-7.4
				c7.9,0,14.1,2.4,18.6,7.1c4.5,4.7,6.7,11.1,6.7,19.2c0,8.2-2.4,14.8-7.1,19.7c-4.7,4.9-11.2,7.3-19.4,7.3
				c-7.9,0-14.1-2.3-18.8-6.9C474.8,148.6,472.5,142.3,472.5,134.3 M485,133.9c0,5.3,1.2,9.4,3.6,12.2c2.4,2.8,5.9,4.2,10.3,4.2
				c4.4,0,7.7-1.4,9.9-4.2c2.3-2.8,3.4-7,3.4-12.5c0-5.5-1.2-9.6-3.5-12.4c-2.4-2.8-5.7-4.2-9.9-4.2c-4.4,0-7.8,1.5-10.2,4.4
				C486.2,124.4,485,128.5,485,133.9 M564.4,118h-17.8v41h-12.1v-41H526v-9.8h8.5v-7.1c0-5.3,1.7-9.7,5.2-13.1
				c3.5-3.4,7.9-5.1,13.4-5.1c1.4,0,2.7,0.1,3.9,0.2c1.1,0.1,2.1,0.4,3,0.7v10.3c-0.4-0.2-1.1-0.5-2.1-0.8c-1-0.3-2.1-0.5-3.4-0.5
				c-2.5,0-4.4,0.8-5.8,2.3c-1.4,1.6-2,3.9-2,6.9v6.1h17.8V96.7l12-3.7v15.1h12.1v9.8h-12.1v23.8c0,3.1,0.6,5.3,1.7,6.6
				c1.1,1.3,2.9,1.9,5.4,1.9c0.7,0,1.5-0.2,2.5-0.5c1-0.3,1.8-0.7,2.5-1.2v9.9c-0.8,0.4-2,0.8-3.8,1.2s-3.5,0.5-5.2,0.5
				c-5,0-8.8-1.3-11.3-4c-2.5-2.7-3.8-6.7-3.8-12.1V118z"/>
			<rect x="34.5" y="64.5" class="st3" width="56.2" height="56.2"/>
			<rect x="96.4" y="64.5" class="st4" width="56.2" height="56.2"/>
			<rect x="34.5" y="126.5" class="st5" width="56.2" height="56.2"/>
			<rect x="96.4" y="126.5" class="st6" width="56.2" height="56.2"/>
		</g>
	</g>
</g>
</svg>
