<svg xmlns="http://www.w3.org/2000/svg" viewBox="0 0 623.62 255.12"><defs><style>.cls-1{fill:#fff;}.cls-2{fill:#ed1828;}.cls-3{fill:#797a7c;}</style></defs><title>nearform</title><g id="BG"><rect class="cls-1" width="623.62" height="255.12"/></g><g id="Logo"><path class="cls-2" d="M183,70.22a23.18,23.18,0,0,1-13.48,17.05,8.58,8.58,0,0,0-3.85,7.15V158.5a9,9,0,0,0,5,7.7,24,24,0,0,1,12.93,18.7,84.67,84.67,0,0,0,22-57.21A86.65,86.65,0,0,0,183,70.22Z"/><path class="cls-2" d="M66.9,166.2h0a8.1,8.1,0,0,0,4.68-7.7V129.35a8.66,8.66,0,0,0-4.13-7.43c-.28,0-.28-.28-.55-.28h0a23.64,23.64,0,1,1,34.65-20.9,24.91,24.91,0,0,1-1.65,8.8h0a10.13,10.13,0,0,0,1.93,8.25L144.18,161h0a8.71,8.71,0,0,0,6.33,2.48,4.68,4.68,0,0,0,1.93-.28,9,9,0,0,0,1.1-4.68V94.42c0-3-1.38-6.05-3.85-7.43-.28,0-.28-.28-.55-.28h0a24,24,0,0,1-12.65-20.9,24.34,24.34,0,0,1,10.18-19.53,88.24,88.24,0,0,0-27.23-4.4A85.79,85.79,0,0,0,54.52,183.8,23.74,23.74,0,0,1,66.9,166.2Z"/><path class="cls-2" d="M159.86,77.37a11.55,11.55,0,1,0-11.55-11.55A11.62,11.62,0,0,0,159.86,77.37Z"/><path class="cls-3" d="M148.31,187.38a11.55,11.55,0,1,0,11.55-11.55A11.45,11.45,0,0,0,148.31,187.38Z"/><path class="cls-2" d="M136.48,187.1a20.09,20.09,0,0,1,1.65-8.25h0a11.7,11.7,0,0,0,.55-3,9,9,0,0,0-2.75-6.33h0L93.3,126c-3.85-3.85-9.63-3.3-9.63,3.3V158.5a8.46,8.46,0,0,0,5,7.7,23.39,23.39,0,0,1,12.93,20.9,23,23,0,0,1-12.38,20.63,84.42,84.42,0,0,0,30.25,5.5,88.74,88.74,0,0,0,29.7-5.23A23.15,23.15,0,0,1,136.48,187.1Z"/><path class="cls-2" d="M77.9,175.83a11.55,11.55,0,1,0,11.55,11.55A11.45,11.45,0,0,0,77.9,175.83Z"/><path class="cls-3" d="M89.45,100.74A11.55,11.55,0,1,0,77.9,112.3,11.62,11.62,0,0,0,89.45,100.74Z"/><path class="cls-3" d="M253.09,151.07v-27.5c0-11.28-4.13-17.05-12.38-17.05a14.41,14.41,0,0,0-11.28,5c-3,3.3-4.4,7.43-4.4,12.38v27.23h-4.4V103.5H225V112h.28c3.58-6.6,8.8-9.9,16.23-9.9,5.23,0,9.08,1.65,11.83,5.23,2.75,3.3,4.13,8.25,4.13,14.58V150.8h-4.4Z"/><path class="cls-3" d="M272.62,127.42c0,6.6,1.38,11.55,4.4,15.4a15.46,15.46,0,0,0,12.38,5.5q7.84,0,15.68-5.78v4.68a27.4,27.4,0,0,1-16.5,5.23,18.83,18.83,0,0,1-14.85-6.6c-3.85-4.4-5.78-10.73-5.78-18.7a27.64,27.64,0,0,1,5.78-17.6,19.18,19.18,0,0,1,15.4-7.15c5.78,0,10.45,2.2,13.48,6.33s4.68,9.9,4.68,17.05v1.93H272.62Zm30.8-3.85c-.28-5.5-1.38-9.63-3.85-12.65a12.42,12.42,0,0,0-10.18-4.68c-4.4,0-8.25,1.38-11,4.4-3,3-4.68,7.15-5.5,12.93Z"/><path class="cls-3" d="M348,151.07v-9.63h-.28a20.13,20.13,0,0,1-6.6,7.7,17.33,17.33,0,0,1-9.63,3,15.5,15.5,0,0,1-10.73-3.85c-2.75-2.48-3.85-5.78-3.85-9.63,0-8.25,5.5-13.2,16.5-15.13l14.58-2.2c0-10.18-3.85-15.4-11.55-15.4-5.23,0-10.18,2.2-15.13,6.33v-5.23a24.64,24.64,0,0,1,7.15-3.58,24,24,0,0,1,8.53-1.38c5,0,8.8,1.65,11.28,4.68q4.13,4.54,4.13,13.2v30.8H348ZM335,127.42c-5,.83-8.53,1.93-10.45,3.58s-3,4.13-3,7.7a8.73,8.73,0,0,0,2.75,6.88c1.93,1.93,4.4,2.75,7.7,2.75a14.41,14.41,0,0,0,11.28-5c3-3.3,4.68-7.7,4.68-13.2V125.5Z"/><path class="cls-3" d="M389,108.17a7.68,7.68,0,0,0-5-1.65c-3.85,0-6.88,1.93-9.35,5.78s-3.85,9.35-3.85,16.5v22.28h-4.13V103.5h4.13v10.45h.28a18,18,0,0,1,5.23-8.53,12.7,12.7,0,0,1,8.25-3,12.85,12.85,0,0,1,4.68.83v5Z"/><path class="cls-2" d="M403.53,88.92v27.23H428v4.13H403.53v31.08h-4.68V84.52h31.08v4.13h-26.4Z"/><path class="cls-2" d="M461,152.17c-6.88,0-12.38-2.2-16.5-6.88s-6.05-10.45-6.05-17.88c0-8,2.2-14,6.33-18.43s9.9-6.6,16.78-6.6,12.1,2.2,16,6.6,5.78,10.45,5.78,18.43c0,7.43-1.93,13.48-6.05,17.88C473.66,150,468.16,152.17,461,152.17Zm.55-45.93c-5.5,0-10.18,1.93-13.48,5.78s-5,9.08-5,15.68q0,9.49,5,14.85a16.51,16.51,0,0,0,13.2,5.78c5.78,0,10.18-1.93,13.2-5.5s4.68-8.8,4.68-15.4c0-6.88-1.65-12.1-4.68-15.68S467.06,106.25,461.56,106.25Z"/><path class="cls-2" d="M517.67,108.17a7.68,7.68,0,0,0-5-1.65c-3.85,0-6.88,1.93-9.35,5.78s-3.85,9.35-3.85,16.5v22.28h-4.13V103.5h4.13v10.45h.28a18,18,0,0,1,5.23-8.53,12.7,12.7,0,0,1,8.25-3,12.85,12.85,0,0,1,4.68.83v5Z"/><path class="cls-2" d="M585.32,151.07v-28.6c0-6.05-.83-10.18-2.75-12.65s-5-3.58-8.8-3.58-6.88,1.65-9.63,5A17.94,17.94,0,0,0,560,123.3v27.78h-4.4V122.2c0-10.45-4.13-16-12.1-16a11.62,11.62,0,0,0-9.63,5A20.38,20.38,0,0,0,530,123.85v27.5h-4.13V103.5h4.4v8h.28c3.3-6.05,8.25-9.08,14.58-9.08a13.65,13.65,0,0,1,8.8,3,14.2,14.2,0,0,1,5,8,18.24,18.24,0,0,1,6.33-8,15.35,15.35,0,0,1,9.08-2.75c10.45,0,15.68,6.33,15.68,19.25v29.43h-4.68Z"/></g></svg>