<svg xmlns="http://www.w3.org/2000/svg" viewBox="0 0 623.62 255.12"><defs><style>.cls-1{fill:#fff;}.cls-2{fill:#f67d4b;}.cls-3{fill:#938e88;}</style></defs><title>neen</title><g id="BG"><rect class="cls-1" width="623.62" height="255.12"/></g><g id="Logo"><path class="cls-2" d="M112.17,185.55v22.6h-4.29v-9.77H97.28v9.77H93v-22.6h4.29v9.22h10.6v-9.22Z"/><path class="cls-2" d="M120.77,185.55v22.6h-4.29v-22.6Z"/><path class="cls-2" d="M134,196.13h10l.07,4.49q0,4.9-1.85,6.32t-8.24,1.42q-5.86,0-7.77-1.89t-1.9-7.7q0-7.42.76-9.37a5.45,5.45,0,0,1,2.86-3.21,18.1,18.1,0,0,1,6.52-.83q6,0,7.78,1.28t1.76,5.69h-4.34q-.12-2.22-1-2.76t-4.28-.54q-3.73,0-4.73.93t-1,4.36l0,2.27,0,2.9q0,3.36,1,4.28t4.6.92q3.51,0,4.46-.78t1-3.68l0-.93H134Z"/><path class="cls-2" d="M166.55,185.55v22.6h-4.29v-9.77h-10.6v9.77h-4.29v-22.6h4.29v9.22h10.6v-9.22Z"/><path class="cls-2" d="M168.88,197.6h7.57v3.61h-7.57Z"/><path class="cls-2" d="M178.77,208.15v-22.6H189q4.59,0,6.19,1.6t1.6,6.17q0,4.54-1.52,6t-6.16,1.49l-1,0h-5.05v7.3Zm4.29-10.91h4.89q2.91,0,3.7-.67t.79-3.17q0-2.86-.65-3.55t-3.4-.69h-5.32Z"/><path class="cls-2" d="M203.7,189.16V195h10.6v3.16H203.7v6.39H215v3.61H199.41v-22.6h15.47v3.61Z"/><path class="cls-2" d="M218.51,208.15v-22.6h11.14q4.16,0,5.73,1.44T237,192.2q0,3.43-.79,4.69a4.65,4.65,0,0,1-3.22,1.74v.15q3.76.23,3.76,4.39v5h-4.29V204q0-3.49-3.44-3.49H222.8v7.62Zm4.29-11.23H229q2.2,0,2.92-.79a4.88,4.88,0,0,0,.72-3.15q0-2.42-.62-3.12t-2.72-.7H222.8Z"/><path class="cls-2" d="M245,189.16v6.09h10.13v3.61H245v9.29h-4.29v-22.6h15v3.61Z"/><path class="cls-2" d="M268,185.35q6.16,0,7.93,2t1.77,9.15q0,7.77-1.78,9.79t-8.62,2q-6.16,0-8-2t-1.8-8.78q0-8.08,1.77-10.15T268,185.35Zm-.33,3.68q-4.32,0-5.05,1.11t-.73,7.68q0,4.87.85,5.86t5,1q4,0,4.79-1.12t.79-6.78q0-5.68-.75-6.71T267.69,189Z"/><path class="cls-2" d="M281,208.15v-22.6h11.14q4.16,0,5.73,1.44t1.57,5.22q0,3.43-.79,4.69a4.65,4.65,0,0,1-3.22,1.74v.15q3.76.23,3.76,4.39v5h-4.29V204q0-3.49-3.44-3.49h-6.18v7.62Zm4.29-11.23h6.16q2.2,0,2.92-.79a4.88,4.88,0,0,0,.72-3.15q0-2.42-.62-3.12t-2.72-.7h-6.46Z"/><path class="cls-2" d="M329.59,185.55v22.6H325.3V195.83q0-1.47.08-3.34l.08-1.69.08-1.67h-.13l-.51,1.57-.5,1.57q-.7,2.12-1.08,3.13l-5,12.75h-3.91l-5-12.65q-.41-1-1.09-3.13l-.51-1.57-.51-1.56h-.13l.08,1.64.08,1.66q.1,1.92.1,3.3v12.32h-4.29v-22.6h7l4,10.46q.41,1.09,1.09,3.13l.5,1.57.51,1.56h.15l.48-1.56.5-1.56q.61-2,1.06-3.11l4-10.5Z"/><path class="cls-2" d="M347.58,203.81h-9.75l-1.41,4.34h-4.54l7.52-22.6h6.44l7.63,22.6H349Zm-1-3.16-3.91-11.77-3.84,11.77Z"/><path class="cls-2" d="M376.75,185.55v22.6h-7.27L363,195.75q-.48-.93-1.51-3.25l-.73-1.62-.71-1.62h-.17l.07,1.49,0,1.47,0,3v13h-4.29v-22.6H363L368.92,197q.78,1.52,1.81,3.69l.86,1.84.86,1.85h.15l0-1.46,0-1.46,0-2.91v-13Z"/><path class="cls-2" d="M395,200.08h4.3v.78q0,4.72-1.72,6.1T390,208.35q-6.69,0-8.23-2.19t-1.54-11.69q0-5.6,2.09-7.36t8.73-1.76q4.83,0,6.46,1.45t1.62,5.75l0,.51h-4.31v-.58q0-2.22-.84-2.84t-3.82-.62q-4,0-4.79,1t-.8,5.8q0,6.49.72,7.68t4.66,1.19q3.2,0,4.15-.66t1-2.91Z"/><path class="cls-2" d="M406.21,189.16V195h10.6v3.16h-10.6v6.39h11.28v3.61H401.92v-22.6h15.47v3.61Z"/><path class="cls-2" d="M449,185.55v22.6h-4.29v-9.77h-10.6v9.77h-4.29v-22.6h4.29v9.22h10.6v-9.22Z"/><path class="cls-2" d="M462.72,185.35q6.16,0,7.93,2t1.77,9.15q0,7.77-1.78,9.79t-8.62,2q-6.16,0-8-2t-1.81-8.78q0-8.08,1.77-10.15T462.72,185.35Zm-.33,3.68q-4.32,0-5.05,1.11t-.73,7.68q0,4.87.85,5.86t5,1q4,0,4.79-1.12t.8-6.78q0-5.68-.75-6.71T462.38,189Z"/><path class="cls-2" d="M492.43,192.14h-4.19c0-.21,0-.36,0-.46q-.15-1.9-.84-2.39a6.8,6.8,0,0,0-3.28-.49,9,9,0,0,0-4,.56,2.56,2.56,0,0,0-.93,2.37q0,2.14.76,2.57t5,.66q5.05.28,6.53,1.44t1.48,4.82q0,4.5-1.74,5.82t-7.67,1.32q-5.33,0-7.08-1.29t-1.75-5.23l0-.83h4.17l0,.48q0,2.37.83,2.9t4.52.53q2.88,0,3.68-.61t.8-2.83a2.91,2.91,0,0,0-.6-2.18,4.66,4.66,0,0,0-2.61-.65l-2.37-.15q-5.37-.31-6.86-1.49t-1.49-5.05q0-4,1.8-5.27t7.18-1.32q5.1,0,6.87,1.21t1.77,4.72Z"/><path class="cls-2" d="M505.3,189.39v18.76H501V189.39h-6.52v-3.84h17.57v3.84Z"/><path class="cls-2" d="M518.86,185.55v22.6h-4.29v-22.6Z"/><path class="cls-2" d="M544.18,185.55v22.6h-7.27l-6.46-12.4q-.48-.93-1.51-3.25l-.73-1.62-.71-1.62h-.17l.07,1.49,0,1.47,0,3v13H523.2v-22.6h7.27L536.35,197q.78,1.52,1.81,3.69l.86,1.84.86,1.85H540l0-1.46,0-1.46,0-2.91v-13Z"/><path class="cls-2" d="M557.39,196.13h10l.07,4.49q0,4.9-1.85,6.32t-8.24,1.42q-5.86,0-7.77-1.89t-1.9-7.7q0-7.42.76-9.37a5.45,5.45,0,0,1,2.86-3.21,18.1,18.1,0,0,1,6.52-.83q6,0,7.78,1.28t1.75,5.69H563q-.12-2.22-1-2.76t-4.28-.54q-3.72,0-4.73.93t-1,4.36l0,2.27,0,2.9q0,3.36,1,4.28t4.6.92q3.51,0,4.46-.78t1-3.68l0-.93h-5.68Z"/><path class="cls-3" d="M144.74,46.77H86.85a32,32,0,0,0-32,32v90.6H90.14V106c0-13.25-.54-24,12.71-24h38.69c13.26,0,12.71,10.74,12.71,24v63.31h22.47V78.75A32,32,0,0,0,144.74,46.77Z"/><path class="cls-3" d="M478.88,46.77h57.89a32,32,0,0,1,32,32v90.6H533.47V106c0-13.25.54-24-12.7-24H482.07c-13.25,0-12.71,10.74-12.71,24v63.31H446.89V78.75A32,32,0,0,1,478.88,46.77Z"/><path class="cls-2" d="M252.72,102.34A13.54,13.54,0,0,0,239.18,88.8h0a13.53,13.53,0,0,0-13.53,13.54h0a13.53,13.53,0,0,0,13.53,13.53h0a13.53,13.53,0,0,0,13.54-13.53Z"/><path class="cls-3" d="M185,79.7v57.88a32,32,0,0,0,32,32h90.6V134.29H244.31c-13.24,0-24,.54-24-12.69V82.89c0-13.25,10.74-12.7,24-12.7h63.33V47.72H217A32,32,0,0,0,185,79.7Z"/><path class="cls-2" d="M384.36,102.34a13.54,13.54,0,0,1-13.54,13.54h0a13.54,13.54,0,0,1-13.53-13.54h0A13.53,13.53,0,0,1,370.82,88.8h0a13.54,13.54,0,0,1,13.54,13.54Z"/><path class="cls-3" d="M316,79.7v57.89a32,32,0,0,0,32,32h90.61V134.3H375.23c-13.24,0-24,.54-24-12.71V82.9c0-13.25,10.73-12.7,24-12.7h63.34V47.72H348A32,32,0,0,0,316,79.7Z"/></g></svg>