<?xml version="1.0" encoding="utf-8"?>
<!-- Generator: Adobe Illustrator 19.2.1, SVG Export Plug-In . SVG Version: 6.00 Build 0)  -->
<svg version="1.1" id="Layer_1" xmlns="http://www.w3.org/2000/svg" xmlns:xlink="http://www.w3.org/1999/xlink" x="0px" y="0px"
	 viewBox="0 0 623.6 255.1" style="enable-background:new 0 0 623.6 255.1;" xml:space="preserve">
<style type="text/css">
	.st0{fill:#FFFFFF;}
	.st1{fill:#C93642;}
	.st2{fill:#2D2E2B;}
</style>
<title>balsamiq</title>
<g id="BG">
	<rect class="st0" width="623.6" height="255.1"/>
</g>
<g id="Page-1">
	<g id="Logo_horizontal_RGB" transform="translate(0.000000, -4.000000)">
		<path id="Fill-1" class="st1" d="M11.9,128.7c0-9.2,7.4-16.6,16.6-16.6s16.6,7.5,16.6,16.6c0,9.2-7.4,16.6-16.6,16.6
			S11.9,137.9,11.9,128.7L11.9,128.7z M128.7,145.4c-9.2,0-16.6-7.5-16.6-16.6c0-9.2,7.4-16.6,16.6-16.6c9.2,0,16.6,7.5,16.6,16.6
			C145.3,137.9,137.9,145.4,128.7,145.4z M128.7,62.2c-36.7,0-66.5,29.8-66.5,66.6c0,36.8,29.8,66.6,66.5,66.6
			c36.7,0,66.5-29.8,66.5-66.6C195.2,92,165.4,62.2,128.7,62.2L128.7,62.2z"/>
		<path id="Fill-2" class="st2" d="M604.2,123.6c1,0,1.7-0.5,1.7-1.3c0-0.8-0.4-1.3-1.6-1.3h-1.1v2.6H604.2z M601.6,119.7h3
			c1.6,0,3,0.7,3,2.5c0,0.9-0.6,1.8-1.4,2.1l1.8,3.2h-1.8l-1.4-2.7h-1.6v2.7h-1.6V119.7z M610.2,123.7c0-3.7-2.5-6.3-5.8-6.3
			c-3.3,0-5.8,2.6-5.8,6.3c0,3.7,2.5,6.2,5.8,6.2C607.7,129.9,610.2,127.4,610.2,123.7z M597.1,123.7c0-4.6,3.3-7.7,7.3-7.7
			c4,0,7.4,3.1,7.4,7.7c0,4.6-3.3,7.7-7.4,7.7C600.4,131.4,597.1,128.3,597.1,123.7z M548.3,154.8c1,0,1.8-0.8,1.8-1.8v-6.7
			c0-1-0.8-1.8-1.8-1.8H548c-0.8,0-1.6-0.8-1.6-1.6l0-0.3v-39.3c0-0.9-0.9-1.8-1.8-1.8h-6.7c-0.9,0-1.8,0.9-1.8,1.8v43.9l0,1.1
			c0,3.3,3.3,6.5,6.5,6.5L548.3,154.8z M255.5,112c9,0,16.7,7.7,16.7,16.8c0,9.2-7.5,16.6-16.7,16.6c-9.2,0-16.6-7.5-16.6-16.6
			C238.9,119.5,246.4,112,255.5,112z M255.5,101.4c-15,0-27.2,12.3-27.2,27.3c0,15.2,11.9,27.2,27.2,27.2
			c15.3,0,27.2-11.9,27.2-27.2C282.8,113.7,270.6,101.4,255.5,101.4z M472.2,144c-0.5,1.4-3.4,4-6.8,4c-3.5,0-5.5-2.1-5.5-5.3
			c0-3.4,2.4-5.4,6.7-5.4c3,0,5.6,1.2,5.6,1.2V144z M467.8,116c-6.2,0-12.2,1.6-13,1.9c-0.8,0.2-1.6,0.9-1.2,2.3l0.8,4.3
			c0.2,1.1,0.9,2.1,2.1,1.6c2.2-0.7,7.2-1.4,10.7-1.4c4,0,5.4,2.3,5.3,7.1c0,0-3.4-1.1-7.3-1.1c-9.6,0-15.1,5.2-15.1,11.9
			c0,8.1,5.3,13,12.8,13c5.9,0,9.7-2.6,11.9-4.8v2c0,1,0.8,1.8,1.8,1.8h0.7c0.1,0,0.1,0,0.2,0h2.8c1,0,1.8-0.8,1.8-1.8v-20.5
			C482.1,122.2,479.6,116,467.8,116z M398.8,116c-7.3,0-10.8,3.9-12.2,5.5v-2.8c0-1-0.8-1.8-1.8-1.8h-4.3c-0.9,0-1.8,0.7-1.8,1.8
			V153c0,1,0.9,1.8,1.8,1.8h6.1c1.8,0,2.4-0.4,2.4-1.8v-21.7c0.9-2.6,3.3-5.9,8.2-5.9c4.6,0,6.6,3,6.6,8V153c0,1,0.8,1.8,1.8,1.8
			h6.7c0.9,0,1.8-0.8,1.8-1.8v-19.6C414,124.1,410.9,116,398.8,116z M308.4,146.3c-4.8,0-7.9-2.1-7.9-2.1v-13.6
			c0.8-2.1,3.4-5.3,8.4-5.3c5.9,0,8.9,5.2,8.9,10.5C317.9,141.2,314.7,146.3,308.4,146.3z M310.3,116c-7.8,0-12.1,5.3-12.4,5.7v-3
			c0-1-0.8-1.8-1.8-1.8h-4c-1,0-1.8,0.8-1.8,1.8v49.8c0,0.9,0.8,1.8,1.8,1.8h6.7c0.9,0,1.8-0.9,1.8-1.8v-14.3
			c1.7,0.7,5.3,1.6,9.1,1.6c11.3,0,18.8-8.7,18.8-19.8C328.5,124.4,320.7,116,310.3,116z M581.1,131c-0.2-3.7-3.1-6.6-7.3-6.6
			c-4.6,0-7.6,2.8-8,6.6H581.1z M574.1,116c9.9,0,17.4,7.3,17.4,17.6c0,0.6-0.1,1.9-0.2,2.5c-0.1,1-1,1.7-1.8,1.7h-24.3
			c0.1,4.7,3.9,8.8,9.4,8.8c3.8,0,6.4-1.4,8.1-2.8c0.9-0.7,1.9-0.8,2.5,0l3.2,4.3c0.7,0.7,0.7,1.6-0.2,2.5c-3.3,2.8-8,5.2-14.1,5.2
			c-11.3,0-19.2-9-19.2-19.9C554.9,125.1,562.8,116,574.1,116z M509.8,146.3c-4.9,0-7.6-3.1-8.4-5.3v-13.6c0,0,3.1-2.1,7.9-2.1
			c6.2,0,9.4,5.1,9.4,10.4C518.7,141.1,515.7,146.3,509.8,146.3z M510.7,116c-3.8,0-7.6,0.9-9.3,1.6v-14.5c0-0.9-0.8-1.8-1.8-1.8
			H493c-0.9,0-1.8,0.9-1.8,1.8V153c0,1,0.9,1.8,1.8,1.8h2.9c0.1,0,0.1,0,0.2,0h0.8c1,0,1.8-0.8,1.8-1.8v-2.8l0-0.1
			c0,0,4.4,5.7,12.6,5.7c10.3,0,17.8-9,17.8-19.9C529.1,124.7,521.9,116,510.7,116z M452.6,101.4H414c-0.9,0-1.6,0.7-1.6,1.6v6.7
			c0,0.8,0.7,1.6,1.6,1.6h13.9v42c0,0.8,0.7,1.6,1.6,1.6h7.6c0.8,0,1.6-0.7,1.6-1.6v-42h13.9c0.9,0,1.6-0.7,1.6-1.6v-6.7
			C454.2,102.1,453.5,101.4,452.6,101.4z M360.7,131c-0.2-3.7-3.1-6.6-7.3-6.6c-4.6,0-7.6,2.8-8,6.6H360.7z M353.6,116
			c9.9,0,17.4,7.3,17.4,17.6c0,0.6-0.1,1.9-0.2,2.5c-0.1,1-1,1.7-1.8,1.7h-24.3c0.1,4.7,3.9,8.8,9.4,8.8c3.8,0,6.4-1.4,8.1-2.8
			c0.9-0.7,1.9-0.8,2.5,0l3.2,4.3c0.7,0.7,0.7,1.6-0.2,2.5c-3.3,2.8-8,5.2-14.1,5.2c-11.3,0-19.2-9-19.2-19.9
			C334.5,125.1,342.3,116,353.6,116L353.6,116z"/>
	</g>
</g>
</svg>
