<?xml version="1.0" encoding="utf-8"?>
<!-- Generator: Adobe Illustrator 19.2.1, SVG Export Plug-In . SVG Version: 6.00 Build 0)  -->
<svg version="1.1" id="Layer_1" xmlns="http://www.w3.org/2000/svg" xmlns:xlink="http://www.w3.org/1999/xlink" x="0px" y="0px"
	 viewBox="0 0 623.6 255.1" style="enable-background:new 0 0 623.6 255.1;" xml:space="preserve">
<style type="text/css">
	.st0{fill:#FFFFFF;}
	.st1{fill:#231F20;}
	.st2{fill:#987FFF;}
	.st3{fill:#B5A5FE;}
</style>
<title>balsamiq</title>
<g id="BG">
	<rect class="st0" width="623.6" height="255.1"/>
</g>
<g>
	<path class="st1" d="M388.4,84.5L388,63.1h6.8v27.1h-9.7l-6.8-22.2h-0.2l0.4,22.2h-6.7V63.1H382l6.3,21.5H388.4z"/>
	<path class="st1" d="M265.3,65.6l-3.7,24.8h-7.4l5.1-27.4h12.2l5,27.4h-7.3l-3.7-24.8H265.3z"/>
	<path class="st1" d="M297.2,84l3.4-20.9h11.2l0.6,27.4h-6.8l-0.2-24.6l-0.1,0l-4.6,24.6h-6.9l-4.6-24.6h-0.2l-0.2,24.6h-6.8
		l0.6-27.4h11.2l3.4,20.9H297.2z"/>
	<path class="st1" d="M242.7,82.7c0.3,0.7,0.2,1.5,0.1,2c-0.2,0.9-0.8,1.8-2.7,1.8c-1.7,0-2.8-1-2.8-2.5l0-2.7H230v2.1
		c0,6.1,4.8,7.9,9.9,7.9c5,0,9-1.7,9.7-6.2c0.3-2.4,0.1-3.9,0-4.5c-1.2-5.7-11.5-7.4-12.3-10.6c-0.1-0.6-0.1-1.1,0-1.4
		c0.2-0.9,0.8-1.8,2.5-1.8c1.6,0,2.5,1,2.5,2.5V71h6.8v-1.9c0-6-5.4-6.9-9.2-6.9c-4.9,0-8.8,1.6-9.6,6.1c-0.2,1.2-0.2,2.3,0.1,3.7
		C231.5,77.5,241.3,79.2,242.7,82.7z"/>
	<path class="st1" d="M331.6,82.6c0.3,0.7,0.2,1.5,0.1,2c-0.2,0.9-0.8,1.8-2.6,1.8c-1.7,0-2.7-1-2.7-2.4l0-2.6H319l0,2.1
		c0,6,4.8,7.9,9.8,7.9c4.9,0,8.9-1.7,9.6-6.2c0.3-2.3,0.1-3.9,0-4.5c-1.1-5.7-11.4-7.4-12.2-10.5c-0.1-0.5-0.1-1.1,0-1.4
		c0.2-0.9,0.8-1.8,2.5-1.8c1.6,0,2.5,1,2.5,2.4v1.7h6.8v-1.9c0-5.9-5.3-6.8-9.1-6.8c-4.8,0-8.8,1.6-9.5,6c-0.2,1.2-0.2,2.3,0.1,3.6
		C320.6,77.5,330.2,79.1,331.6,82.6z"/>
	<path class="st1" d="M354.6,86.3c1.9,0,2.5-1.3,2.6-2c0.1-0.3,0.1-0.7,0.1-1V63.1h6.9v19.6c0,0.5,0,1.5-0.1,1.8
		c-0.5,5.1-4.5,6.7-9.6,6.7c-5,0-9.1-1.6-9.5-6.7c0-0.3-0.1-1.3-0.1-1.8V63.1h6.9v20.2c0,0.4,0,0.7,0.1,1
		C352.1,85,352.7,86.3,354.6,86.3z"/>
	<path class="st1" d="M411.6,86c2,0,2.7-1.2,2.8-2c0.1-0.3,0.1-0.7,0.1-1v-4h-2.8v-4h9.7v7.3c0,0.5,0,0.9-0.1,1.8
		c-0.5,5-4.8,6.8-9.6,6.8c-4.8,0-9.2-1.8-9.6-6.8c-0.1-0.9-0.1-1.3-0.1-1.8l0-11.5c0-0.5,0.1-1.4,0.1-1.8c0.6-5.1,4.7-6.8,9.6-6.8
		c4.8,0,9.1,1.6,9.6,6.8c0.1,0.9,0,1.8,0.1,1.8v0.9h-6.9v-1.5c0,0,0-0.6-0.1-1c-0.1-0.6-0.6-2-2.7-2c-2,0-2.6,1.3-2.7,2
		c-0.1,0.3-0.1,0.8-0.1,1.3V83c0,0.3,0,0.7,0.1,1C409,84.8,409.7,86,411.6,86z"/>
	<rect x="221.7" y="110.3" class="st1" width="11.9" height="64.1"/>
	<path class="st1" d="M241.6,123.1h11.8v7c1.7-2.1,3.8-3.9,6.4-5.2c2.6-1.3,5.6-1.9,8.9-1.9c6.4,0,11.4,1.9,15,5.7
		c3.6,3.8,5.4,9.1,5.4,15.8v29.9h-12v-28.5c0-3.9-1-7-2.9-9.2c-1.9-2.3-4.8-3.4-8.7-3.4c-3.4,0-6.2,1.2-8.6,3.5
		c-2.3,2.3-3.5,5.7-3.5,10.1v27.5h-11.8V123.1z"/>
	<path class="st1" d="M291.8,123.1h8.8v-7.8l11.9-8.2v16H323v10.6h-10.4v19.2c0,2.2,0.1,4,0.3,5.4c0.2,1.4,0.7,2.4,1.5,3.2
		c0.7,0.7,1.8,1.2,3.2,1.4c1.4,0.2,3.2,0.3,5.5,0.3v11.1h-1.7c-4,0-7.3-0.3-10-1.1c-2.7-0.7-4.8-1.9-6.4-3.6
		c-1.6-1.7-2.7-3.9-3.4-6.6c-0.7-2.7-1-6.1-1-10.2v-19.3h-8.8V123.1z"/>
	<path class="st1" d="M352,133.4c-3.6,0-6.7,0.8-9.3,2.4c-2.6,1.6-4.4,3.7-5.5,6.2h29.1c-0.9-2.8-2.6-5-5.1-6.4
		C358.7,134.1,355.6,133.4,352,133.4z M352.4,174.5c-4,0-7.7-0.7-11.1-2c-3.3-1.3-6.2-3.1-8.6-5.5c-2.4-2.3-4.2-5-5.5-8.2
		c-1.3-3.1-2-6.5-2-10c0-3.6,0.7-7,2.1-10.2c1.4-3.2,3.3-5.9,5.7-8.2c2.4-2.3,5.2-4.1,8.5-5.5c3.2-1.4,6.7-2,10.5-2
		c3.8,0,7.3,0.6,10.6,1.9c3.2,1.2,6,3,8.4,5.2c2.3,2.2,4.2,4.8,5.5,7.9c1.3,3,2,6.3,2,9.9v4.2h-41.8c0.8,3.6,2.6,6.6,5.3,8.8
		c2.8,2.2,6.2,3.3,10.4,3.3c3.3,0,6.2-0.8,8.7-2.5c2.5-1.6,4.3-3.8,5.5-6.6l9.7,5.6c-2.2,4.2-5.3,7.5-9.3,10
		C363,173.2,358.1,174.5,352.4,174.5z"/>
	<path class="st1" d="M383.6,123.1h11.8v7.6c2.4-5.1,6.8-7.6,13.2-7.6c1.9,0,3.6,0.2,5,0.6c1.5,0.4,2.8,0.9,4,1.6l-4.5,11.2
		c-0.9-0.6-1.9-1.1-2.9-1.4c-1.1-0.4-2.5-0.6-4.2-0.6c-3.5,0-6.1,1-7.9,2.9c-1.8,2-2.7,5.2-2.7,9.6v27.4h-11.8V123.1z"/>
	<path class="st1" d="M421.4,123.1h11.8v7c1.7-2.1,3.8-3.9,6.4-5.2c2.6-1.3,5.6-1.9,8.9-1.9c6.4,0,11.4,1.9,15,5.7
		c3.6,3.8,5.4,9.1,5.4,15.8v29.9h-12v-28.5c0-3.9-1-7-2.9-9.2c-1.9-2.3-4.8-3.4-8.7-3.4c-3.4,0-6.2,1.2-8.6,3.5
		c-2.3,2.3-3.5,5.7-3.5,10.1v27.5h-11.8V123.1z"/>
	<path class="st1" d="M500.8,133.4c-3.6,0-6.7,0.8-9.3,2.4c-2.6,1.6-4.4,3.7-5.5,6.2h29.1c-0.9-2.8-2.6-5-5.1-6.4
		C507.6,134.1,504.5,133.4,500.8,133.4z M501.2,174.5c-4,0-7.7-0.7-11.1-2c-3.3-1.3-6.2-3.1-8.6-5.5c-2.4-2.3-4.2-5-5.5-8.2
		c-1.3-3.1-2-6.5-2-10c0-3.6,0.7-7,2.1-10.2c1.4-3.2,3.3-5.9,5.7-8.2c2.4-2.3,5.2-4.1,8.5-5.5c3.2-1.4,6.7-2,10.5-2
		c3.8,0,7.3,0.6,10.6,1.9c3.2,1.2,6,3,8.4,5.2c2.3,2.2,4.2,4.8,5.5,7.9c1.3,3,2,6.3,2,9.9v4.2h-41.8c0.8,3.6,2.6,6.6,5.3,8.8
		c2.7,2.2,6.2,3.3,10.4,3.3c3.3,0,6.2-0.8,8.7-2.5c2.5-1.6,4.3-3.8,5.5-6.6l9.7,5.6c-2.2,4.2-5.3,7.5-9.3,10
		C511.8,173.2,506.9,174.5,501.2,174.5z"/>
	<path class="st1" d="M528.4,123.1h8.8v-7.8l11.9-8.2v16h10.4v10.6h-10.4v19.2c0,2.2,0.1,4,0.3,5.4c0.2,1.4,0.7,2.4,1.5,3.2
		c0.7,0.7,1.8,1.2,3.2,1.4c1.4,0.2,3.2,0.3,5.5,0.3v11.1h-1.7c-4,0-7.3-0.3-10-1.1c-2.7-0.7-4.8-1.9-6.4-3.6
		c-1.6-1.7-2.7-3.9-3.4-6.6c-0.7-2.7-1-6.1-1-10.2v-19.3h-8.8V123.1z"/>
</g>
<g>
	<path class="st2" d="M92.3,50.7c9.1-0.4,18.1-0.9,26.7-0.9s16.8,0.4,25,0.9c25.9,0,48.2,22.3,48.2,48.2c0.4,8.5,0.9,16.9,0.9,25.5
		c0,8.6-0.4,17.4-0.9,26.2c0,25.9-22.3,48.2-48.2,48.2c-8.1,0.4-16.2,0.9-24.8,0.9c-8.6,0-17.8-0.4-26.9-0.9
		c-25.9,0-48.2-22.3-48.2-48.2c-0.4-9.2-0.9-18.5-0.9-27.1s0.4-16.6,0.9-24.7C44.1,73,66.4,50.7,92.3,50.7z"/>
	<g>
		<path class="st0" d="M118.7,77.3l-0.2,3.9l2.6,1l2.8,1.4l3,0.3l2.8,0.8l1.4,0.4l2,1.3v1.6l0.1,2.1l0.7,1.9l2.8,1.6l2.1,1.3h1.1
			l0.1,1.3l0.1,2.1l-0.9,1.3l-1,1.5l-0.2,0.9l1.2,1.5l1.5,1.1l1.1,0.2l1.6-1l1.8-2.2l1.6-1l1.4,0.3l2.1,0.7l2,1.4l0.9,0.5v1.3
			l-0.3,2.1l-1,0.1l-1.4-0.8l-2.5-0.2l-2.9,0.8l-0.9,0.6l-1.6,0.9l-2.2,0.5h-2.1l-2.6,0.5l-2.2,1.2l-1.1,2.1l-1.5,2.4l-0.8,1.3
			l0,2.9l-0.1,2.3l1.3,1.8l1.3,1.4l1.3,2.1l0.9,0.8l0.6,0.5l0.5,0.5l1.2,0.6l1-0.1l1-0.9l1.3-0.9l0.6-0.9l0.8-0.7h1.3l0.8,0.9
			l0.7,0.9l1.1,0.8l0.5,0.7l0.5,1.3l-0.1,1.5v1.3l0.2,1.5l0.5,1l0.9,1.4l0.2,2.2l0.4,2.5l0,1.5l0.2,2.5v1.8l1.3,1.5l1.7,1.1l1.7,0.3
			l1.5,0.7l1,1.4c0,0,1.5,1,1.9,1c0.1,0,0.2,0,0.4,0c5.8-8.1,9.2-18.1,9.2-28.9c0-27.3-22-49.5-49.3-49.7L118.7,77.3z"/>
		<path class="st3" d="M73,125.5l-4.2,0.3l-0.4,0.1c0.4,19.3,11.9,36,28.3,43.8l-0.1-2.8l0.2-1.6l0.8-2.7v-3l0.2-3.4l-0.1-2.7
			l-1.2-1.6l-0.7-1.6l-2-1.5l-1.5-1.5l-1.9-2.2l-0.1-2.4l-0.7-2.7l-0.1-2.8l1-1.6l0.5-1.8l-0.1-2.7l-1.5-0.5l-1-0.8l-2.5-1.2L83,126
			l-1.3-0.7l-4.5,0.3L73,125.5z"/>
		<path class="st0" d="M101,170.6l1.8-1.9l2.6-2.5l2.2-1.2l2.3-2.5l2.6-2.4l1.6-2.6l1.5-2.3l1.1-0.9l0.4-1.9l0.8-2.1l0.8-2.2
			l1.3-1.9l2.1-1.3v-4.2l-1.8-1.3l-1.6-0.3l-2-1l-1.9-0.5l-3.9-0.7l-2-2.2l-1.2-1.1l-1.9-2.3l-2.1-2.4l-1.9-1.9l-2.4-1.3l-3.2-0.2
			l-2,1.3l-1.4,0.5l-2.3-0.3l-2.3-1.8l-2.6-2.5l-1.2-1.6l-2.9-0.7l-1.3-0.7l-0.6-3.3l0.7-1.2l2.1-1.9L84,113l1.9,1l1.6,0.6l1.6-0.7
			l0.3-1.3l0.6-2l1.2-2.7l-0.2-2.4l-0.1-1.2l2.9-2.7l2.3-2.4l1.2-0.2l0.4,1h1.5l1.6-1.3l0.9-2l0.8-1.9l-0.4-1.8v-7.2l1.8-1.2l2-0.7
			l0.7-0.7l0.9-0.9l-0.1-1.2l-2.1-2.4l-2-1.5c-20.1,6.4-34.7,25.2-34.7,47.4c0,0.4,0,0.7,0,1.1l0.4-0.1l4.2-0.3l4.2,0.2l4.5-0.3
			L83,126l3.1,2.2l2.5,1.2l1,0.8l1.5,0.5l0.1,2.7l-0.5,1.8l-1,1.6l0.1,2.8l0.7,2.7l0.1,2.4l1.9,2.2l1.5,1.5l2,1.5l0.7,1.6l1.2,1.6
			l0.1,2.7l-0.2,3.4v3l-0.8,2.7l-0.2,1.6l0.1,2.8c1.5,0.7,3,1.3,4.5,1.9L101,170.6z"/>
		<path class="st3" d="M118.6,75c-0.1,0-0.3,0-0.4,0c-5.3,0-10.3,0.8-15.1,2.3l2,1.5l2.1,2.4l0.1,1.2l-0.9,0.9l-0.7,0.7l-2,0.7
			l-1.8,1.2v7.2l0.4,1.8l-0.8,1.9l-0.9,2l-1.6,1.3h-1.5l-0.4-1l-1.2,0.2l-2.3,2.4l-2.9,2.7l0.1,1.2l0.2,2.4l-1.2,2.7l-0.6,2
			l-0.3,1.3l-1.6,0.7l-1.6-0.6l-1.9-1l-1.3,0.5l-2.1,1.9l-0.7,1.2l0.6,3.3l1.3,0.7l2.9,0.7l1.2,1.6l2.6,2.5l2.3,1.8l2.3,0.3l1.4-0.5
			l2-1.3l3.2,0.2l2.4,1.3l1.9,1.9l2.1,2.4l1.9,2.3l1.2,1.1l2,2.2l3.9,0.7l1.9,0.5l2,1l1.6,0.3l1.8,1.3v4.2l-2.1,1.3l-1.3,1.9
			l-0.8,2.2l-0.8,2.1l-0.4,1.9l-1.1,0.9l-1.5,2.3l-1.6,2.6l-2.6,2.4l-2.3,2.5l-2.2,1.2l-2.6,2.5l-1.8,1.9l0.2,1
			c5.3,1.9,10.9,2.9,16.9,2.9c16.7,0,31.5-8.2,40.5-20.9c-0.2,0-0.3,0-0.4,0c-0.4,0-1.9-1-1.9-1l-1-1.4l-1.5-0.7l-1.7-0.3l-1.7-1.1
			l-1.3-1.5v-1.8l-0.2-2.5l0-1.5l-0.4-2.5l-0.2-2.2l-0.9-1.4l-0.5-1l-0.2-1.5V132l0.1-1.5l-0.5-1.3l-0.5-0.7l-1.1-0.8l-0.7-0.9
			l-0.8-0.9H142l-0.8,0.7l-0.6,0.9l-1.3,0.9l-1,0.9l-1,0.1l-1.2-0.6l-0.5-0.5l-0.6-0.5l-0.9-0.8l-1.3-2.1l-1.3-1.4l-1.3-1.8l0.1-2.3
			l0-2.9l0.8-1.3l1.5-2.4l1.1-2.1l2.2-1.2l2.6-0.5h2.1l2.2-0.5l1.6-0.9l0.9-0.6l2.9-0.8l2.5,0.2l1.4,0.8l1-0.1l0.3-2.1v-1.3
			l-0.9-0.5l-2-1.4l-2.1-0.7l-1.4-0.3l-1.6,1l-1.8,2.2l-1.6,1l-1.1-0.2l-1.5-1.1l-1.2-1.5l0.2-0.9l1-1.5l0.9-1.3l-0.1-2.1l-0.1-1.3
			h-1.1l-2.1-1.3l-2.8-1.6l-0.7-1.9l-0.1-2.1v-1.6l-2-1.3l-1.4-0.4l-2.8-0.8l-3-0.3l-2.8-1.4l-2.6-1l0.2-3.9L118.6,75z"/>
	</g>
</g>
</svg>
