<svg xmlns="http://www.w3.org/2000/svg" viewBox="0 0 623.62 255.12"><defs><style>.cls-1{fill:#fff;}.cls-2,.cls-3{fill:#231f20;}.cls-2,.cls-4,.cls-5{fill-rule:evenodd;}.cls-4{fill:#99ae69;}.cls-5{fill:#d8eac1;}</style></defs><title>siteground</title><g id="BG"><rect class="cls-1" width="623.62" height="255.12"/></g><g id="Logo"><path class="cls-2" d="M156,92.29c-8.44-14-27.34-6-23.3,10.19,5.42,21.73,31.88,26.94,41.63,46.32,5.35,10.64,2,21.28-6.19,25.95-8.4,4.79-22.61,6.69-31.33.29-4.37-3.21-4-5.63-6.32.41-.74,1.94-2,4.07-4.38,2-3.79-3.22-3.71-13.43,2.67-17.77,4.07-2.17,6.82-1,10.59,2.7,9.14,7.51,20.77,5.28,23.78-.94,1.94-4,0-10.25-3.9-14.62-5.62-6.31-14.48-11.76-21.77-20.27-9.62-11.23-17-23.81-12.16-36.2,4.17-10.78,16.16-20.71,30.31-13.55,8.36,4.23,16.52,13.89,11.84,23.48-3.23,6.62-13.21,8.74-17.82,1.9-2.78-4.13,8.69-6.09,6.35-9.91Z"/><path class="cls-2" d="M192.95,114.92c.38,12-13.19,11-13.56-.45-.17-5.18,4.05-6.59,6.83-6.4a8,8,0,0,1,4.32,2,6.72,6.72,0,0,1,2.41,4.83Z"/><path class="cls-2" d="M180.44,141.61l-.58.34c-5.77,3.22-4-3.35-.92-7.22s5.76-5.36,8.2-5a4.66,4.66,0,0,1,4.22,3.46c1.57,7.58-7,28.84,2.06,34.45a3.89,3.89,0,0,0,5.2-.85c1.7-2,1.93-5.21,4.05-5.85,1-.29,1.74.12,2.1,2.65.63,7.63-2.77,18.54-13.17,14.8-9.25-4.21-8.85-21.89-8.81-31.59,0-.66-.24-6.46-2.35-5.16Z"/><path class="cls-3" d="M215.35,161.59l-.31.4-.49,0s-.23-.45-.87-1.77-3-9.82-3.15-10-2.23-8-2.48-8.83a2.44,2.44,0,0,1-.07-1.37,3.36,3.36,0,0,1,.81-1.11,11.32,11.32,0,0,1,2.6-1.12l.41,0,.36.67.25,1.67.62,4.18,1.89,12,.64,4.56-.21.7Zm32-33.11c-.87-2-2.24-3.29-4.41-3.2-5.1.4-6.09.2-10.86.49s-8.85.49-12.24.61q1-8.75,2-17.5,2.77-25.43.25-31.3-1.9-4.45-6.09-3.48c-4.35.8-5.38,8.31-5.86,22.41-.23,8,.43,18.06,1.52,31.35-1,.25-4.21,1.18-6.29,1.79a25,25,0,0,0-5,2,2.22,2.22,0,0,0-1.06,2.22,10.28,10.28,0,0,0,1,3.92q2.52,5.88,7.8,17.86t7.11,16.28q3.2,7.46,8.29,7.27,4.1-.15,4.89-1.15t-.84-4.81a84.08,84.08,0,0,1-6-20.75,138.26,138.26,0,0,1-.87-16.3c10.63-2.44,17.92-1.79,24-3.41l.32-.11c2.36-1.48,1.05-.71,1.87-1.6a2,2,0,0,0,.49-2.54Z"/><path class="cls-2" d="M254.37,155.71c8.64-2.76,15.71-10.23,16.36-14.32,1.22-7.72-10.6-14.36-15-1.7-1.11,3.23-1.41,10.35-1.39,16Zm30.17,10c-6.58,8.23-15.86,15.7-26.33,12.74-6-2.12-9.83-8-11.77-15.11a46.63,46.63,0,0,1-.4-21.41c2.37-10.84,8.91-19.74,16.57-19.83,14.37,1.44,21.73,17.34,14.4,28.55-4.08,6.24-12.54,9.42-16.64,11.38-1.55.74-2.78,1.09-2.57,4.12.49,7.28,12.83,7.17,20.6-8.89.72-1.48,5.57-7.85,8.73-5.94,6.63,4-1.77,13.36-2.59,14.37Z"/><path class="cls-2" d="M342.52,137.32c-.63,6.49,9.19,40.06,2.13,40.63-4.16.34-6.72.78-7.81-1.46s3.06-19.41-.3-14.17c-.77,1.2-.62,1.3-1.86,3.52-11.57,20.68-27.25,15.19-36.38-1.64-5.47-10.1-8.58-24.27-7-39.31,2.49-24,12.79-55.46,37-50.29,19,4.06,5.93,29.5-.73,23-15.72-34.45-47.07,48.74-12.38,68.83,10,5.8,18.58-13.11,16.52-21.44-1.44-5.85-1.78-6.05-4.69-5.18-2.26.68-10,7.32-12.17,5.31-2.71-2.51-4.18-12.4,1.26-12.69,6.29-.32,9.85,1.71,17.27-7.25,6.75-8.15,12.25-5.72,11.09,3.1-.51,3.86-1.64,6.07-1.93,9Z"/><path class="cls-2" d="M387.09,125c-3.91-3-12.17-6.59-19.74-5.8-10.56,1.09-20.33,8.2-19.32,19.3.43,4.74.91,25,2.71,33.28.62,2.84,2.24,5.5,5,6.25,2.64.71,6,0,7.27-3,1.74-4.06-.18-7.83-1.16-11.28-2-7-2.91-16.75-3.47-22.78-1.17-12.39,17.61-14.09,22-6.88-3.19,4.93,1.43,8,7.21,3.55,5.22-4,3.13-9.75-.59-12.62Z"/><path class="cls-2" d="M401,146.5c3-31.75,23.94-17,26.62,3.71,2.67,20.5-31.1,32.78-26.62-3.71Zm11.79,32.6c26-4.38,36-44.8,3.75-58.59-33.54-10.87-35.27,65.2-3.75,58.59Z"/><path class="cls-2" d="M450.25,137.59c-4,9-2.43,45.19,16.22,28.05,4.07-3.74,4.58-15.74,3.06-26-.35-2.37-2.35-9.58-3-11.75-.85-2.77,1.45-6.64,5-7.82a6,6,0,0,1,7.22,3.53c1.94,4.63.66,12.23.45,15.33-.62,9.27-2.13,20.68,1.17,26.68,1.41,2.56,3.36,2.82,3.43,4.73.25,6.82-7.88,11.2-11,7-.82-1.13-.14-3-1.4-3.83-15.33,13.77-32.23,3-32-16.75.06-4.31-.54-11.35,1-17.45,1.22-4.75,2-9.27,4.47-11.84,3.25-2.35,4.93-.94,6-.16,2.28,1.71.57,7.1-.6,10.34Z"/><path class="cls-2" d="M518.83,168.35c2.74-9.3,5.94-24.48,3.89-30.1-3.06-8.42-14.74-11.51-20.5-2.89-3.53,5.28-3.63,24.2.87,35.26,1.07,2.65-.92,6.34-4.33,7.46-12.83,4.25-2.86-31.32-10.35-42.68-1.61-2.44-3.58-2.69-3.8-4.51-.79-6.51,7-10.68,10.4-6.64.91,1.08.38,2.86,1.7,3.66,14.23-13.14,35.42-3.26,36.72,15.55.44,6.32-1.41,20.06-5,28.75a20,20,0,0,1-3.42,5.85c-3.06,2.24-4.85.9-5.94.15-2.41-1.63-1.13-6.78-.23-9.87Z"/><path class="cls-2" d="M554.28,166.52c16.93,12.27,22.28-19.52,13.84-31.3-10.35-14.44-36.55,13.59-13.84,31.3ZM575.37,127c1.21-10.19-3.06-39.82-10.89-40.56-2.11-.2-2.61-5.34-1.16-8.39s4.82-4,10.46-1.68c9,3.73,9.72,37.67,9.9,47.89.17,9.82-.3,22,1.2,31.31a34.78,34.78,0,0,0,2.56,8.64c1.64,3.73,3.29,6.31,2.23,8.42-2.29,4.57-9.29,6.36-11.66,4.1-1.65-1.57-2.38-4.4-2.8-7.72-13.49,21.48-34.91,4.58-37.93-16.08C534.35,133,552.5,109.83,575.37,127Z"/><path class="cls-4" d="M95.82,79.78a26,26,0,0,1,.36,3.69c.21,6.19-1.48,10.16-5.84,14.52q-1.33,1.34-3,2.78c14.93,9.28,22.73,29.59,14.06,43.78-11.7,19.12-34.88,14.77-47.55,1.68-13.26-13.71-11.5-31.44-2-44.58,9.83-13.56,27.88-22.32,44-21.86ZM59.31,159.27c-13.24-4.33-22.7-17.2-25-30.68-6.39-37.22,33.21-70.8,72.78-52.15.47,8.36-3.41,20.26-14.07,23.83,52.88,33.38,7.67,101.77-47.75,79.28-10.12-5.15-4.71-14.58,6.1-9.12,12.07,4.16,27.76,4.16,37.64-1.29a44.71,44.71,0,0,0,16.09-14.34,46.42,46.42,0,0,0,3.82-7.06c.84-2,3.54-10.11,1.44-11-.52-.22-.8.4-.95,1a34.51,34.51,0,0,1-7.57,14.3A38.22,38.22,0,0,1,85.5,163.2c-7.9,2.88-17.06,3.24-29.65.49.83-.9,2.5-3.4,3.47-4.42Z"/><path class="cls-2" d="M77.43,140.43c25.79.94,13.43-25.43-3.5-31.26-16.78-5.77-26.11,31.26,3.5,31.26ZM50.81,121.76c2.84-28.38,35.49-34,47.64,3.82,9.79,38.88-52.14,30.42-47.64-3.82Z"/><path class="cls-5" d="M77.43,140.43c25.79.94,13.43-25.43-3.5-31.26-16.78-5.77-26.11,31.26,3.5,31.26Z"/></g></svg>