<svg xmlns="http://www.w3.org/2000/svg" viewBox="0 0 623.62 255.12"><defs><style>.cls-1{fill:#fff;}.cls-2{fill:#00508a;}.cls-3{fill:#e30521;}</style></defs><title>tim</title><g id="BG"><rect class="cls-1" width="623.62" height="255.12"/></g><g id="Logo"><path class="cls-2" d="M348.54,62.12c2.62,0,3.14.35,3.14,9.6v8.55c0,8.9-.7,9.95-3.14,9.95H318.88v100c0,2.27-2.79,2.79-12.74,2.79H300.9c-10.12,0-11.87-.52-11.87-2.79v-100H259.37c-2.44,0-3.14-.7-3.14-9.95V71.72c0-9.6.52-9.6,3.14-9.6Zm53.22,2.79c0-1.92-2.79-2.79-12.39-2.79h-5.58c-10.12,0-11.87.87-11.87,2.79v125.3c0,2.27,1.75,2.79,11.87,2.79h5.58c9.6,0,12.39-.52,12.39-2.79Zm144.84-2.79h-8.73c-11.17,0-11.87,1.22-12.74,3.14l-17.28,41.53c-5.76,13.79-11.69,28.62-14,36.3-2.09-7.68-5.93-18-14-37L462.67,65.26c-1-2.44-5.41-3.14-14.83-3.14h-9.77c-9.6,0-11.52.87-11.52,2.79v125.3c0,2.27,1.92,2.79,11.87,2.79h5.41c9.77,0,12.56-.52,12.56-2.79V115.87h.7a46.68,46.68,0,0,0,2.27,6.63l19.89,46.59c.87,2.09,1.92,3,11.17,3h5.93c9.42,0,10.12-.7,11-3l18.15-44.85c1.75-4.19,3-8.38,3-8.38h.7v74.34c0,2.27,1.92,2.79,12.22,2.79h5.24c9.6,0,12.39-.52,12.39-2.79V64.91C559,63,556.21,62.12,546.61,62.12Z"/><path class="cls-3" d="M213.72,90.13H72.15a7.53,7.53,0,0,1-7.53-7.53V69.67a7.53,7.53,0,0,1,7.53-7.53H213.72a7.53,7.53,0,0,1,7.53,7.53V82.6a7.53,7.53,0,0,1-7.53,7.53Zm-86.45,23.44H72.15a7.53,7.53,0,0,0-7.53,7.53V134a7.53,7.53,0,0,0,7.53,7.53h55.12Zm91.8,2.23a7.5,7.5,0,0,0-5.35-2.23H158.6v28h55.12a7.53,7.53,0,0,0,7.53-7.53V121.09A7.5,7.5,0,0,0,219.07,115.8Zm0,51.43a7.5,7.5,0,0,0-5.35-2.23H158.6v28h55.12a7.53,7.53,0,0,0,7.53-7.53V172.52A7.5,7.5,0,0,0,219.07,167.23ZM127.27,165H72.15a7.53,7.53,0,0,0-7.53,7.53v12.94A7.53,7.53,0,0,0,72.15,193h55.12Z"/></g></svg>