<svg id="Layer_1" data-name="Layer 1" xmlns="http://www.w3.org/2000/svg" viewBox="0 0 623.6 255.1"><defs><style>.cls-1{fill:#fff;}.cls-2{fill:#f48f00;}.cls-3{fill:#007fad;}.cls-4{fill:#c94a30;}</style></defs><title>trivago</title><g id="BG"><rect class="cls-1" width="623.6" height="255.1"/></g><polygon class="cls-2" points="218.18 86.52 247.66 86.52 270.04 146.91 270.4 146.91 291.15 86.52 318.62 86.52 283.68 175.29 254.75 175.29 218.18 86.52"/><path class="cls-3" d="M111.28,108.35H84.35v29.72a48.89,48.89,0,0,0,.57,6.64,12.64,12.64,0,0,0,1.89,5.18,9,9,0,0,0,4.34,3.36,20.89,20.89,0,0,0,7.73,1.18,57.75,57.75,0,0,0,6.4-.45,12.14,12.14,0,0,0,6-2.09v22.74a54.63,54.63,0,0,1-10.49,2.19,106.22,106.22,0,0,1-10.65.55,63,63,0,0,1-14-1.46,33.49,33.49,0,0,1-11.22-4.64A22.5,22.5,0,0,1,57.3,163a26.14,26.14,0,0,1-2.78-12.37V108.35H35.6V86.52H54.52V60.32H84.35v26.2h26.92Z"/><path class="cls-3" d="M118.55,86.52H146.2v14.55h.27a31,31,0,0,1,10.37-12.34c4-2.73,9-4.13,15.11-4.13,1.58,0,3.19,0,4.77.17a26.45,26.45,0,0,1,4.41.71v24.93a50.6,50.6,0,0,0-5.77-1.36,37.57,37.57,0,0,0-5.93-.46q-7.83,0-12.39,2.19a16.46,16.46,0,0,0-7,6.09,23.16,23.16,0,0,0-3.14,9.37,91.34,91.34,0,0,0-.68,12v37H118.55V86.52Z"/><path class="cls-3" d="M187.68,86.52H214.6v88.77H187.68V86.52Zm-1.1-23.35a14.5,14.5,0,1,1,24.75,10.24,14.5,14.5,0,0,1-24.75-10.24"/><path class="cls-2" d="M364.92,136.73c-2.06,0-4.64-.06-7.73.12a39.45,39.45,0,0,0-8.91,1.47A19.86,19.86,0,0,0,341,142.1a8.78,8.78,0,0,0-3,7.08,7.79,7.79,0,0,0,4.19,7.27,17.52,17.52,0,0,0,8.73,2.36,27.3,27.3,0,0,0,7.73-1.1,23,23,0,0,0,6.64-3.1,15.14,15.14,0,0,0,4.71-5.09,14.73,14.73,0,0,0,1.79-7.28v-5.52Zm6.86,27.65h-.5a27.57,27.57,0,0,1-12.09,10,42.41,42.41,0,0,1-27.84,1.26,30,30,0,0,1-10.1-5.2,25,25,0,0,1-6.92-8.56,26,26,0,0,1-2.55-11.83,27.11,27.11,0,0,1,2.82-12.92,25.18,25.18,0,0,1,7.64-8.74,38,38,0,0,1,11-5.37,80.31,80.31,0,0,1,12.83-2.82,124.39,124.39,0,0,1,13.28-1.09Q366,119,371.65,119a14.18,14.18,0,0,0-5.18-11.55,18.7,18.7,0,0,0-12.28-4.27,26.75,26.75,0,0,0-12.28,2.82,33.63,33.63,0,0,0-9.92,7.73L317.43,98.76a50,50,0,0,1,17.83-10.64,63.61,63.61,0,0,1,21.11-3.55q12,0,19.74,3a28.77,28.77,0,0,1,12.37,8.83,33.82,33.82,0,0,1,6.34,14.28,94.55,94.55,0,0,1,1.7,19.56v45.05H371.78V164.38Z"/><path class="cls-4" d="M523.8,131q0,10,5.19,16.19t14.57,6.18q9.39,0,14.57-6.18T563.31,131q0-10-5.19-16.19t-14.57-6.19q-9.39,0-14.57,6.19T523.8,131m-24.69,0a50.75,50.75,0,0,1,3.45-19.11A44.17,44.17,0,0,1,512,97.22a41.21,41.21,0,0,1,14.15-9.37,47.61,47.61,0,0,1,34.73,0,41.31,41.31,0,0,1,14.16,9.37,44.1,44.1,0,0,1,9.46,14.64A50.55,50.55,0,0,1,588,131a50.49,50.49,0,0,1-3.46,19.1,44,44,0,0,1-9.46,14.65,41.14,41.14,0,0,1-14.16,9.37,47.62,47.62,0,0,1-34.73,0A41,41,0,0,1,512,164.72a44.07,44.07,0,0,1-9.47-14.65,50.7,50.7,0,0,1-3.45-19.1"/><path class="cls-4" d="M470.25,86.43V98.33h-.41a16.68,16.68,0,0,0-3.1-3.32,36.36,36.36,0,0,0-7-4.67A38.78,38.78,0,0,0,451,86.88a46.51,46.51,0,0,0-11.28-1.55,36.8,36.8,0,0,0-17.1,4.34c-5,2.62-8.64,5.28-12,9.7a39.76,39.76,0,0,0-6.74,14.43A71.67,71.67,0,0,0,402,131.89a68.63,68.63,0,0,0,2.64,18.77,39,39,0,0,0,7.72,14.9c3.73,4.27,7.56,6.48,12.91,8.74s11.05,3.07,17.63,3a36.19,36.19,0,0,0,12.88-2.76A26.12,26.12,0,0,0,467,166h.32v8.6c0,6.33-1.38,11.53-5.33,15.6s-9.72,6.27-18.12,6.27c-5.59,0-9.11.12-14.8-1.42-4.95-1.34-11.17-3.69-15.79-7.08L400,207.48a61.22,61.22,0,0,0,21.16,10.31,90.49,90.49,0,0,0,23.3,2.65c17.28,0,29.51-4.35,38-13.05s11.91-21.45,11.91-38.25V86.43Zm-6.8,60.84q-5.2,6.21-14.61,6.21t-14.62-6.21Q429,141.07,429,131t5.2-16.25q5.21-6.2,14.62-6.21t14.61,6.21q5.21,6.21,5.21,16.25T463.45,147.28Z"/></svg>