<svg id="Layer_1" data-name="Layer 1" xmlns="http://www.w3.org/2000/svg" viewBox="0 0 623.6 255.1"><defs><style>.cls-1{fill:#fff;}.cls-2{fill:#120a8f;}</style></defs><title>trueblue</title><g id="BG"><rect class="cls-1" width="623.6" height="255.1"/></g><g id="Livello_2" data-name="Livello 2"><g id="Livello_1-2" data-name="Livello 1-2"><path class="cls-2" d="M174.65,116.93V142.7h-6.36V116.93h-10v-5h26.32v5Z"/><path class="cls-2" d="M238.42,142.7,231.28,131h-7.54V142.7h-6.36V112h15.36a13.39,13.39,0,0,1,8.48,2.37,8.16,8.16,0,0,1,3,6.8,8.79,8.79,0,0,1-1.82,5.57,8.6,8.6,0,0,1-5,3.09l8.31,12.9Zm-.76-21.32q0-4.43-5.68-4.43h-8.24V126h8.48a6.06,6.06,0,0,0,4-1.14A4.24,4.24,0,0,0,237.66,121.38Z"/><path class="cls-2" d="M291.48,143.14a13.88,13.88,0,0,1-9.62-3.11,11.44,11.44,0,0,1-3.47-8.79V112h6.36v18.71a7.9,7.9,0,0,0,1.74,5.53,6.59,6.59,0,0,0,5.09,1.89,6.93,6.93,0,0,0,5.3-2,8,8,0,0,0,1.84-5.66V112h6.36v18.9a11.51,11.51,0,0,1-3.6,9.07A14.83,14.83,0,0,1,291.48,143.14Z"/><path class="cls-2" d="M338,142.7V112h24.18v5H344.41v7.73h16.4v5h-16.4v8.09H363v5Z"/><path class="cls-2" d="M423,133.93a7.54,7.54,0,0,1-3.14,6.48,14.56,14.56,0,0,1-8.75,2.29H395.73V112H409.8a15.26,15.26,0,0,1,8.48,1.95,6.5,6.5,0,0,1,2.88,5.76,6.82,6.82,0,0,1-1.44,4.41,7.42,7.42,0,0,1-4.36,2.46,9.47,9.47,0,0,1,5.68,2.35A6.74,6.74,0,0,1,423,133.93Zm-8.26-13.29a3.26,3.26,0,0,0-1.31-2.95,7.14,7.14,0,0,0-3.92-.87h-7.33v7.61h7.37a6.53,6.53,0,0,0,4-1A3.37,3.37,0,0,0,414.73,120.64Zm1.78,12.86q0-4.24-6.19-4.24h-8.16v8.81h8.48a7.33,7.33,0,0,0,4.53-1.12,4,4,0,0,0,1.36-3.6Z"/><path class="cls-2" d="M455.61,142.7V112H462v25.77h16.48v5Z"/><path class="cls-2" d="M524.45,143.14a13.88,13.88,0,0,1-9.73-3.09,11.44,11.44,0,0,1-3.37-8.81V112h6.36v18.71a7.9,7.9,0,0,0,1.74,5.53,6.59,6.59,0,0,0,5.09,1.89,6.93,6.93,0,0,0,5.3-2,8,8,0,0,0,1.84-5.66V112H538v18.9a11.51,11.51,0,0,1-3.6,9.07A14.83,14.83,0,0,1,524.45,143.14Z"/><path class="cls-2" d="M570.93,142.7V112h24.18v5H577.38v7.73h16.4v5h-16.4v8.09H596v5Z"/><path class="cls-2" d="M57.05,95.11A32.65,32.65,0,0,0,27.6,127.55H34a26.27,26.27,0,0,1,17-24.51V172.6h6.36Z"/><path class="cls-2" d="M69.62,96.34V82.5H63.26V160a32.59,32.59,0,0,0,6.36-63.57Zm0,55.73V103a26.25,26.25,0,0,1,0,49.05Z"/></g></g></svg>