<?xml version="1.0" encoding="utf-8"?>
<!-- Generator: Adobe Illustrator 19.2.1, SVG Export Plug-In . SVG Version: 6.00 Build 0)  -->
<svg version="1.1" id="Layer_1" xmlns="http://www.w3.org/2000/svg" xmlns:xlink="http://www.w3.org/1999/xlink" x="0px" y="0px"
	 viewBox="0 0 623.6 255.1" style="enable-background:new 0 0 623.6 255.1;" xml:space="preserve">
<style type="text/css">
	.st0{fill:#FFFFFF;}
	.st1{fill:#EE3248;}
</style>
<title>balsamiq</title>
<g id="BG">
	<rect class="st0" width="623.6" height="255.1"/>
</g>
<g id="XMLID_425_">
	<g id="XMLID_441_">
		<path id="XMLID_355_" class="st1" d="M433.2,70.3h-31.6c-0.9,0-1.6,0.7-1.6,1.6v18.3c0,0.9,0.7,1.6,1.6,1.6h31.6
			c0.9,0,1.6-0.7,1.6-1.6V71.9C434.8,71.1,434.1,70.3,433.2,70.3z"/>
		<path id="XMLID_354_" class="st1" d="M432.7,97.5h-60.5c-0.9,0-1.8,0.7-2,1.5l-7.8,29.8l0,0l-0.4,1.5l-9.5-31.6
			c-0.3-0.8-1.2-1.5-2.1-1.5H327c-0.9,0-1.8,0.7-2.1,1.5l-8.8,29.8l0,0l-0.4,1.5l-0.4-1.5l0,0l-3.7-14.7l-3.7-14.7
			c-0.2-0.8-1.1-1.5-2-1.5h-47.6V72c0-0.9-1.2-1.8-2.1-1.4L226.3,80c-0.9,0.3-1.6,0.7-1.6,1.6v16.1h-7.8c-0.9,0-1.6,0.7-1.6,1.6V122
			c0,0.9,0.7,1.6,1.6,1.6h7.8v27.8c0,19.7,10.6,28.8,30.5,28.8c8.1,0,16.1-1.8,21.4-4.5v-1.6c0,0,0-16.8,0-22.2c0-1.2-1-1.5-1.7-1.2
			c-3.2,1.3-5.7,1.7-8.6,1.7c-5.3,0-8.1-2.2-8.1-8.3v-20.4h17c0.9,0,1.6-0.7,1.6-1.6v-19.2l22.4,74.6c0.3,0.8,1.2,1.5,2.1,1.5h24.8
			c0.9,0,1.8-0.7,2.1-1.5l10.6-33.1l5.4,17.3l4.9,15.8c0.3,0.8,1.2,1.5,2.1,1.5H376c0.9,0,1.8-0.7,2.1-1.5l22.7-74.9v74.8
			c0,0.9,0.7,1.6,1.6,1.6h30.4c0.9,0,1.6-0.7,1.6-1.6V99.2C434.3,98.3,433.6,97.5,432.7,97.5z"/>
		<path id="XMLID_353_" class="st1" d="M472.6,70.3h-30.4c-0.9,0-1.6,0.7-1.6,1.6v105.4c0,0.9,0.7,1.6,1.6,1.6h30.4
			c0.9,0,1.6-0.7,1.6-1.6V71.9C474.2,71.1,473.5,70.3,472.6,70.3z"/>
		<path id="XMLID_352_" class="st1" d="M513.2,70.3h-31.6c-0.9,0-1.6,0.7-1.6,1.6v18.3c0,0.9,0.7,1.6,1.6,1.6h31.6
			c0.9,0,1.6-0.7,1.6-1.6V71.9C514.8,71.1,514.1,70.3,513.2,70.3z"/>
		<path id="XMLID_351_" class="st1" d="M512.6,97.5h-30.4c-0.9,0-1.6,0.7-1.6,1.6v78.2c0,0.9,0.7,1.6,1.6,1.6h30.4
			c0.9,0,1.6-0.7,1.6-1.6V99.1C514.2,98.3,513.5,97.5,512.6,97.5z"/>
		<path id="XMLID_442_" class="st1" d="M562.9,95.7c-26.6,0-45.6,19.5-45.6,42.3v0.3c0,22.7,18.8,42,45.2,42
			c26.6,0,45.6-19.5,45.6-42.3v-0.3C608.1,114.8,589.3,95.7,562.9,95.7z M575.9,138.2c0,7.7-5.4,14.1-13,14.1
			c-7.4,0-13.3-6.3-13.3-14.4v-0.3c0-7.7,5.4-14.1,13-14.1c7.4,0,13.3,6.3,13.3,14.4V138.2z"/>
	</g>
	<g id="XMLID_426_">
		<path id="XMLID_434_" class="st1" d="M104.7,35.5c-49.2,0-89.2,39.9-89.2,89.2s39.9,89.2,89.2,89.2s89.2-39.9,89.2-89.2
			S153.9,35.5,104.7,35.5z M104.7,190.2c-36.3,0-65.6-29.4-65.6-65.6c0-36.3,29.4-65.6,65.6-65.6c36.3,0,65.6,29.4,65.6,65.6
			C170.3,160.9,141,190.2,104.7,190.2z"/>
		<circle id="XMLID_346_" class="st1" cx="126.9" cy="102.4" r="18.5"/>
		<circle id="XMLID_345_" class="st1" cx="126.9" cy="146.8" r="18.5"/>
		<circle id="XMLID_344_" class="st1" cx="82.5" cy="146.8" r="18.5"/>
		<circle id="XMLID_342_" class="st1" cx="82.5" cy="102.4" r="18.5"/>
	</g>
</g>
</svg>
