<svg xmlns="http://www.w3.org/2000/svg" viewBox="0 0 623.62 255.12"><defs><style>.cls-1{fill:#fff;}.cls-2{fill:#09091a;}</style></defs><title>uber</title><g id="BG"><rect class="cls-1" width="623.62" height="255.12"/></g><g id="Logo"><path class="cls-2" d="M111.11,69.69v67.39c0,22.71-10.25,32.23-33.7,32.23s-33.69-9.52-33.69-32.23V66h-22c-2.2,0-2.93,1.47-2.93,3.66v68.85c0,37.36,24.17,50.54,58.6,50.54,35.16,0,58.6-13.19,58.6-50.54V66H114C111.84,66,111.11,67.49,111.11,69.69Z"/><path class="cls-2" d="M437.8,85.81c2.2,0,2.93-.73,3.66-2.2l6.59-16.12c.73-.73,0-1.47-.73-1.47H355.76C347,66,344,69,344,74.09V178.83c0,5.13,2.2,7.33,8.79,7.33h84.24c2.2,0,2.93-.73,3.66-2.2l6.59-16.11c.73-.73,0-1.46-.73-1.46H368.94V145.87c0-7.32,4.39-11,14.65-11h33.69c2.2,0,2.93-.73,3.66-2.2l6.59-15.38c.73-.73,0-1.46-.73-1.46H369.68v-30Z"/><path class="cls-2" d="M278.12,123.17C287.64,118,292,108.52,292,96.8c0-26.37-22-30.76-44-30.76H196.81C188,66,185.09,69,185.09,74.09V178.84c0,5.13,2.2,7.32,8.79,7.32h63c23.44,0,41-9.52,41-33C297.16,139.28,291.3,126.83,278.12,123.17ZM209.26,85.81h39.55c13.19,0,16.85,5.13,16.85,15.38s-3.66,15.38-16.85,15.38H209.26Zm44.68,82H209.26v-22c0-7.32,4.4-11,14.65-11h29.3c13.92,0,18.31,5.13,18.31,16.85C272.25,162,268.59,167.85,253.94,167.85Z"/><path class="cls-2" d="M604.81,184.69l-27.1-46.15c13.19-3.66,24.17-12.45,24.17-35.16,0-29.3-18.31-37.36-48.34-37.36H502.26c-8.79,0-11.72,2.93-11.72,8.06V183.23c0,2.2.73,2.93,2.93,2.93h22V151c0-7.33,4.39-11,14.65-11h22l24.17,44c.73,1.47,1.46,2.2,3.66,2.2h22.71C604.81,186.89,604.81,185.43,604.81,184.69ZM557.2,122.43H515.45V85.81H557.2c15.38,0,19,5.86,19,18.31S573.31,122.43,557.2,122.43Z"/></g></svg>