<?xml version="1.0" encoding="utf-8"?>
<!-- Generator: Adobe Illustrator 19.2.1, SVG Export Plug-In . SVG Version: 6.00 Build 0)  -->
<svg version="1.1" id="Layer_1" xmlns="http://www.w3.org/2000/svg" xmlns:xlink="http://www.w3.org/1999/xlink" x="0px" y="0px"
	 viewBox="0 0 623.6 255.1" style="enable-background:new 0 0 623.6 255.1;" xml:space="preserve">
<style type="text/css">
	.st0{fill:#FFFFFF;}
	.st1{fill:#295E49;}
	.st2{fill:#2D8769;}
	.st3{fill:#48B497;}
	.st4{fill:#22AED8;}
	.st5{fill:#002D5C;}
	.st6{fill:#164D85;}
	.st7{fill:#1773BC;}
</style>
<title>balsamiq</title>
<g id="BG">
	<rect class="st0" width="623.6" height="255.1"/>
</g>
<g id="svgg">
	<path id="path1" d="M197.6,100c-1,2.3-0.8,2.8,0.3,0.7c0.5-1,0.8-1.9,0.7-2C198.4,98.5,198,99.1,197.6,100 M190.7,116.3
		c-1,2.3-0.8,2.8,0.3,0.7c0.5-1,0.8-1.9,0.7-2C191.5,114.8,191.1,115.4,190.7,116.3 M79.7,126c-0.4,1.1-0.6,2.1-0.5,2.3
		c0.1,0.1,0.6-0.7,0.9-1.8c0.4-1.1,0.6-2.1,0.5-2.3C80.5,124.1,80.1,124.9,79.7,126 M47.1,126.6c0,0.8,0.3,2.1,0.6,2.8
		c0.4,0.9,0.5,0.5,0.2-1.3C47.5,125.2,47.1,124.4,47.1,126.6 M408,130.8L404,135l4.2-4.1c3.9-3.8,4.5-4.4,4.1-4.4
		C412.2,126.6,410.3,128.5,408,130.8 M555.1,127.2c0.4,0.5,0.9,1.9,1,3.1l0.3,2.2l0.1-2.3c0.1-1.5-0.3-2.6-1-3.1
		C554.5,126.4,554.5,126.4,555.1,127.2 M394.3,135.5l0.3,8.3l0.2-7.8c0.1-4.3,0-8-0.3-8.3C394.2,127.5,394.1,131,394.3,135.5
		 M418.4,130c0,1.5,0.2,2.6,0.5,2.4c0.3-0.2,0.5-1.2,0.5-2.4c0-1.2-0.2-2.2-0.5-2.4C418.6,127.5,418.4,128.5,418.4,130 M478.2,129.9
		c0.3,2.6,0.3,2.6,0.5,0.5c0.1-1.2,0-2.4-0.3-2.6C478.1,127.5,478,128.4,478.2,129.9 M599.8,128.1c-0.4,0.5-0.6,1.6-0.5,2.4
		c0.2,1.3,0.3,1.3,0.4-0.3c0.1-1.4,0.4-1.7,1.6-1.7c0.8,0,1.7-0.3,1.9-0.6C603.9,126.8,600.7,127.1,599.8,128.1 M606.2,128.6
		c0.6,1.3,0.6,2.1,0,3.3c-0.4,0.9-0.5,1.6-0.2,1.6c1.4,0,1.7-3.7,0.4-5.4C605.5,127,605.5,127,606.2,128.6 M503.4,129.4
		c0,0.3,0.5,1.6,1.2,2.8s1.2,1.9,1.2,1.6s-0.5-1.6-1.2-2.8S503.4,129,503.4,129.4 M604.2,130.2c0,0.7,0.3,1.4,0.6,1.4
		c0.6,0,0.5-1.6-0.1-2.3C604.4,129.1,604.2,129.5,604.2,130.2 M457.6,130.3c0,0.5,0.2,1.5,0.5,2.2c0.3,0.8,0.5,0.9,0.5,0.3
		c0-0.5-0.2-1.5-0.5-2.2C457.8,129.9,457.6,129.7,457.6,130.3 M595.8,131.3c-0.2,0.9-0.3,1.8-0.2,1.9c0.1,0.1,0.5-0.5,0.7-1.4
		c0.2-0.9,0.3-1.8,0.2-1.9C596.3,129.8,596,130.4,595.8,131.3 M341.9,147.6c0,9,0.1,12.5,0.2,8c0.1-4.6,0.1-11.9,0-16.3
		C342,134.9,341.9,138.6,341.9,147.6 M601.1,132.8c-0.5,0.3-0.7,0.8-0.4,1.1c0.3,0.3,0.7,0.2,0.8-0.3s0.6-0.8,0.9-0.8
		s0.4,0.3,0.2,0.6c-0.2,0.3-0.1,0.6,0.3,0.6c0.8,0,0.5-1.4-0.4-1.7C602.3,132.3,601.6,132.5,601.1,132.8 M477.3,134.5
		c-0.2,0.9-0.3,1.8-0.2,1.9c0.1,0.1,0.5-0.5,0.7-1.4c0.2-0.9,0.3-1.8,0.2-1.9C477.9,132.9,477.6,133.5,477.3,134.5 M438.2,134.7
		c0,0.5,0.4,1.9,0.8,3.1c0.5,1.2,0.8,1.8,0.8,1.3c0-0.5-0.4-1.9-0.8-3.1C438.6,134.8,438.2,134.2,438.2,134.7 M458.9,134.7
		c0,0.5,0.2,1.5,0.5,2.2c0.3,0.8,0.5,0.9,0.5,0.3c0-0.5-0.2-1.5-0.5-2.2C459.1,134.2,458.9,134.1,458.9,134.7 M583.5,134.7l-9.7,0.3
		v4.1v4.1l6.1,0.3c3.3,0.2,5.9,0.1,5.8-0.2c-0.2-0.3-2.8-0.5-5.9-0.5h-5.6v-3.8v-3.8l9.2,0c5.1,0,9.7-0.3,10.2-0.6
		c0.5-0.3,0.7-0.6,0.3-0.5S588.9,134.5,583.5,134.7 M350.7,135.6c-0.2,0.5-0.2,2.5-0.1,4.5l0.2,3.7l7.2,0l7.2,0l-7.1-0.2l-7.1-0.2
		v-4v-4l7.1-0.2l7.1-0.2l-7.1-0.1C352.6,134.8,350.9,134.9,350.7,135.6 M274.6,139.2c-0.4,1.4-0.7,2.7-0.5,2.8
		c0.1,0.1,0.6-0.9,1-2.3c0.4-1.4,0.7-2.7,0.5-2.8C275.5,136.7,275,137.8,274.6,139.2 M376.9,139.1c0,1.6,0.1,2.2,0.3,1.4
		c0.2-0.8,0.2-2,0-2.8C377,136.9,376.9,137.6,376.9,139.1 M507.1,137.5c0,0.3,0.4,1.3,0.9,2.2s0.9,1.3,0.9,0.9
		c0-0.3-0.4-1.3-0.9-2.2S507.1,137.2,507.1,137.5 M238.3,139.1c0,0.5,0.2,1.5,0.5,2.2c0.3,0.8,0.5,0.9,0.5,0.3
		c0-0.5-0.2-1.5-0.5-2.2C238.5,138.6,238.3,138.5,238.3,139.1 M460.2,139.1c0,0.5,0.2,1.5,0.5,2.2c0.3,0.8,0.5,0.9,0.5,0.3
		c0-0.5-0.2-1.5-0.5-2.2C460.4,138.6,460.2,138.5,460.2,139.1 M474.2,144.5c-0.6,1.9-1,3.6-0.9,3.7c0.1,0.1,0.7-1.3,1.4-3.2
		c0.6-1.9,1-3.6,0.9-3.7C475.4,141.1,474.8,142.6,474.2,144.5 M52.3,145.1c0,2.1,0.1,2.8,0.3,1.7s0.1-2.8,0-3.8
		C52.4,142.1,52.3,143,52.3,145.1 M551,143.2c-1,2.3-0.8,2.8,0.3,0.7c0.5-1,0.8-1.9,0.7-2C551.9,141.7,551.4,142.3,551,143.2
		 M73.6,145.4c0,1.9,0.1,2.7,0.3,1.7c0.1-0.9,0.1-2.5,0-3.4C73.7,142.7,73.6,143.5,73.6,145.4 M324.2,143.5c0,0.5,0.2,1.5,0.5,2.2
		c0.3,0.8,0.5,0.9,0.5,0.3c0-0.5-0.2-1.5-0.5-2.2C324.4,143,324.2,142.9,324.2,143.5 M291.1,147.3c0,2.2,0.1,3.2,0.3,2
		c0.1-1.1,0.1-3,0-4.1C291.2,144.1,291.1,145,291.1,147.3 M333.7,147.3c0,2.2,0.1,3.2,0.3,2c0.1-1.1,0.1-3,0-4.1
		C333.8,144.1,333.7,145,333.7,147.3 M496.2,145.7c-0.6,1.2-0.9,2.5-0.7,2.8c0.2,0.3,0,0.6-0.4,0.6c-0.4,0-0.6,0.1-0.5,0.3
		c0.2,0.2,1.4-0.1,2.8-0.6c2.3-0.9,2.3-0.9,0.4-0.6c-2.3,0.4-2.4,0.3-1.1-2.3c0.5-1,0.9-2,0.7-2.2
		C497.4,143.6,496.8,144.5,496.2,145.7 M510.3,144.4c0,0.3,0.5,1.6,1.2,2.8c0.7,1.2,1.2,1.9,1.2,1.6s-0.5-1.6-1.2-2.8
		C510.8,144.8,510.3,144.1,510.3,144.4 M587.4,145.8c0.7,2.1,1.2,2.6,1.2,1.2c0-0.4-0.4-1.4-0.9-2
		C586.8,143.9,586.7,144,587.4,145.8 M92.9,147c0,0.4,2,6.8,4.6,14.4c2.6,7.6,4.7,13.5,4.7,13.1c0-0.4-2-6.8-4.6-14.4
		C95,152.5,92.9,146.6,92.9,147 M451.7,150.1c-0.2,0.9-0.3,1.8-0.2,1.9c0.1,0.1,0.5-0.5,0.7-1.4c0.2-0.9,0.3-1.8,0.2-1.9
		C452.2,148.6,451.9,149.2,451.7,150.1 M535.3,150c0,0.7,1.8,4.8,2.1,4.8c0.2,0-0.1-1.1-0.7-2.4C535.7,150,535.3,149.2,535.3,150
		 M350.6,158.5c0,4,0.1,5.6,0.2,3.6c0.1-2,0.1-5.2,0-7.2C350.7,152.9,350.6,154.6,350.6,158.5 M373.4,156.3c1.3,2.6,2.4,4.6,2.5,4.5
		c0.3-0.3-4.1-9.1-4.6-9.1C371.2,151.6,372.1,153.7,373.4,156.3 M573.6,155.9l-0.1,4.5h10.6c11.9,0,13.1,0.4,12.5,4.3
		c-0.2,1,0,1.7,0.2,1.6c1.1-0.7,0.5-3.8-0.9-5.1c-1.4-1.3-2-1.4-11.6-1.4h-10.1l-0.2-4.2l-0.2-4.2L573.6,155.9 M514,152.4
		c0,0.7,1.9,4.9,2.2,4.9c0.2,0-0.1-1-0.7-2.3C514.6,152.7,514,151.7,514,152.4 M450.4,154.5c-0.2,0.9-0.3,1.8-0.2,1.9
		c0.1,0.1,0.5-0.5,0.7-1.4c0.2-0.9,0.3-1.8,0.2-1.9C450.9,153,450.6,153.6,450.4,154.5 M394.3,161.5c-0.2,3.2-0.1,5.5,0.2,5.3
		c0.3-0.3,0.4-2.9,0.3-5.8l-0.2-5.3L394.3,161.5 M449.1,158.9c-0.2,0.9-0.3,1.8-0.2,1.9c0.1,0.1,0.5-0.5,0.7-1.4
		c0.2-0.9,0.3-1.8,0.2-1.9C449.7,157.3,449.4,158,449.1,158.9 M517.5,160.4c0.6,2.4,2.1,5.5,2.1,4.4c0-0.5-0.5-2.1-1.2-3.4
		C517.7,160,517.3,159.5,517.5,160.4 M311.4,160.9c0.8,0.2,1.9,0.1,2.5,0c0.6-0.2,0-0.3-1.4-0.3
		C311.1,160.6,310.6,160.7,311.4,160.9 M542.9,162c-1,2.3-0.8,2.8,0.3,0.7c0.5-1,0.8-1.9,0.7-2C543.7,160.5,543.3,161.1,542.9,162
		 M420.8,164.6c0,1.9,0.1,2.1,0.6,1c0.3-0.8,0.3-1.7,0-2.3C421,162.5,420.8,162.9,420.8,164.6 M153,165.8c0,0.4,1.2,4.3,2.7,8.8
		c1.5,4.5,2.8,7.8,2.8,7.5c0-0.4-1.2-4.3-2.7-8.8C154.3,168.8,153.1,165.4,153,165.8 M62.2,170.8c0,0.7,0.2,1.8,0.5,2.5
		c0.7,1.6,0.7-0.1,0-2.2C62.3,169.8,62.2,169.7,62.2,170.8 M17,49.5"/>
	<path id="path2" class="st1" d="M54.5,134.5c0.8,0.2,1.9,0.1,2.5,0c0.6-0.2,0-0.3-1.4-0.3C54.2,134.3,53.7,134.4,54.5,134.5
		 M59.8,136.4c0.9,0.1,2.5,0.1,3.4,0c0.9-0.1,0.2-0.3-1.7-0.3C59.6,136.2,58.8,136.3,59.8,136.4 M55.4,154c1.6,1.8,4.3,2.8,7.1,2.5
		c2.4-0.2,2.4-0.3-0.5-0.4c-2-0.1-3.7-0.6-5.3-1.8C54.9,153.1,54.6,153,55.4,154 M71.6,156c-0.5,0.3,0.3,0.4,2.2,0.2
		c1.7-0.2,3.2-0.4,3.3-0.6C77.7,155.1,72.4,155.5,71.6,156"/>
	<path id="path3" class="st2" d="M88.8,109.6c-1,0.6-2.3,1.7-2.8,2.3c-0.5,0.7,0,0.4,1.1-0.5c2.2-1.8,3.3-2.2,7.3-2.5
		c2.3-0.2,2.2-0.2-0.6-0.3C91.7,108.4,90,108.8,88.8,109.6 M81.7,154.6c0.6,0.2,1.6,0.2,2.2,0c0.6-0.2,0.1-0.3-1.1-0.3
		C81.6,154.3,81.1,154.4,81.7,154.6 M65.7,177.4c1.1,1.2,2.1,2,2.3,1.8c0.1-0.2-0.8-1.1-2-2.1l-2.3-1.8L65.7,177.4 M76.8,178
		c-1.1,0.7-3.2,1.3-5,1.3l-3.1,0.1l2.7,0.2c2.9,0.3,5.8-0.6,7-2.1C79.4,176.5,79.2,176.5,76.8,178"/>
	<path id="path4" class="st3" d="M86.1,112.9c-0.4,0.4-0.8,1-0.8,1.2c0,0.7-9.9,26.2-10.7,27.6c-3.6,6.2,5.1,15,11.1,11.3
		c0.6-0.4,1.6-40.9,1.1-40.9C86.8,112.2,86.5,112.5,86.1,112.9 M53.7,119.5c-6.1,1.5-7.6,8.9-2.7,13c3.4,2.9,9.5,1.7,11.5-2.2
		C65.4,124.6,60,117.9,53.7,119.5 M55.2,139c-2.9,2.9-3.3,7.1-1.2,11.8c3.4,7.5,14.8,6.8,16.9-1C73.6,140.1,62,132.1,55.2,139
		 M70.3,157.2c-2.2,1.2-5.5,6.6-6.9,11.4c-2.1,7.5,6.7,13.6,13.7,9.4c3.1-1.9,6.6-9.7,6.2-13.8c-0.3-2.7-2.7-7.4-3.4-6.6
		c-0.2,0.2-0.7-0.1-1.2-0.6C77.3,155.7,72.9,155.8,70.3,157.2"/>
	<path id="path5" class="st4" d="M88.8,110.2c-1,0.6-2.3,1.7-2.8,2.3c-0.8,1.1-0.8,1.1,0,0.5c0.8-0.6,0.9,1.6,0.8,19.6l-0.2,20.3
		l-1.4,0.3c-0.8,0.2-2.2,0.4-3.3,0.5c-1.6,0.2-1.5,0.2,0.5,0.3c2.9,0.1,6.7-1.6,7.1-3.2c0.2-0.6,0.5-1.1,0.8-1.1
		c0.4,0,1.4-2.1,1.5-3.2c0-0.2,0.2-0.6,0.5-0.9c0.3-0.3,0.5-0.9,0.5-1.5c0-4.9,7.1-17,10-17c4.3,0,4.1,1.2-1.8,13.4
		c-3,6.2-5.6,11-5.8,10.7c-0.6-1.1,0.1,1,5.2,16.6c5.6,17.3,6.2,18.3,10.3,19.4c6.2,1.6,9.4-0.6,12.6-8.4c3.3-8.3,3.4-8.5,3-8.5
		c-0.2,0-0.6,0.6-0.9,1.4c-0.3,0.9-0.6-6.8-0.8-20.4l-0.2-21.9l3-7.2c1.7-4,2.9-7.3,2.8-7.4c-0.1-0.1-3.6,7.8-7.6,17.6
		c-4.1,9.8-7.7,17.8-8.1,17.8c-0.3,0-0.5-0.2-0.2-0.4c0.2-0.2,0.1-0.8-0.3-1.3c-0.4-0.5-0.5-0.8-0.3-0.8s0.1-0.6-0.4-1.4
		c-0.4-0.8-0.8-1.6-0.9-1.9c-0.1-0.3-0.2-0.6-0.3-0.8c-0.1-0.2-0.2-0.6-0.3-0.9c-0.1-0.3-0.2-0.8-0.3-0.9c-0.1-0.2-0.2-0.6-0.3-0.9
		s-0.2-0.8-0.3-0.9c-0.1-0.2-0.2-0.6-0.3-0.9c-0.1-0.3-0.2-0.8-0.3-0.9c-0.1-0.2-0.2-0.6-0.3-0.9s-0.2-0.8-0.3-0.9
		c-0.1-0.2-0.2-0.6-0.3-0.9c-0.1-0.3-0.2-0.8-0.3-0.9c-0.1-0.2-0.2-0.6-0.3-0.9c-0.1-0.3-0.2-0.8-0.3-1.1c-0.1-0.3-0.1-0.7-0.1-0.9
		c0-0.3-0.2-0.5-0.6-0.5c-0.4,0-0.6-0.4-0.4-0.8c0.2-0.6-1.3-5.4-3.1-9.9c-0.2-0.5-0.5-1.5-0.6-2.1
		C102.2,110.6,94.7,106.5,88.8,110.2"/>
	<path id="path6" class="st5" d="M210.2,80.7c-2,0.6-5.9,3.8-5.5,4.5c0.2,0.3,0,0.6-0.3,0.6c-0.4,0-0.5,0.3-0.3,0.6
		c0.5,0.8-0.2,3.2-0.8,2.9c-0.2-0.1-0.3,10.1-0.1,22.7l0.3,23l-3,7.1c-1.6,3.9-3,7.4-3,7.8s2.3-4.6,5-11.2
		c2.7-6.5,4.9-12.3,4.7-12.7c-0.2-0.4-0.1-0.7,0.2-0.5c0.8,0.5,14.5-33.1,14.5-35.4C221.9,84.4,215.4,79.1,210.2,80.7 M307.3,126.3
		c-25,7-18.4,45.4,7.3,42.7c8.1-0.8,16.5-7.7,18.1-14.8C336.6,136.5,323.2,121.8,307.3,126.3 M237.3,127.2c-1.7,1.8-1.1,4.3,5,23.2
		c5.7,17.6,6.1,18.3,8.8,18.3c2.9,0,4.1-2.3,7-12.7c1.5-5.3,2.9-9.9,3.1-10.1c0.2-0.2,1.8,4.5,3.5,10.5c3.2,11.4,3.7,12.3,6.3,12.3
		c3,0,3.9-1.8,9.4-18.6c7.1-21.8,7.3-24.2,1.5-24.2c-2.6,0-3.1,1-7,13.3c-1.8,5.8-3.5,10.3-3.8,10c-0.2-0.3-1.8-5.1-3.4-10.8
		c-3.1-11-3.9-12.5-6.7-12.5c-2.7,0-3.3,1.1-6.5,12.3c-1.6,5.8-3.2,10.8-3.4,11c-0.2,0.3-1.9-4.3-3.7-10
		C243.6,126.3,240.9,123.2,237.3,127.2 M345.5,126.4c-3.1,0.7-3.3,1.8-3.3,21.2c0,20.1,0.2,21.1,4.1,21.1c3.6,0,4.3-1.7,4.2-9.8
		l-0.1-7.3h5.5h5.5l3.7,7.6c4.9,9.9,7.4,11.8,10.4,8.1c1.7-2.1,1.4-3.6-2-10.7c-2.3-4.7-3-6.6-2.4-6.8c7.9-2.6,7-18.1-1.2-21.9
		C366.6,126.4,350.1,125.3,345.5,126.4 M387.4,127.2c-2.6,2.6-2.8,37.6-0.2,40.2c3.8,3.8,7.1,1.1,7.1-6v-5l3.6-3.6
		c4.6-4.7,4.1-4.9,9.9,4.7c6.2,10.2,7.1,11.3,9.3,11.3c5.7,0,5.1-4-2.4-16.1l-6.1-9.9l5.1-5.2c5.4-5.5,6.4-8.2,4.1-10.6
		c-2.2-2.2-3.8-1.3-13.4,7.8c-5.1,4.8-9.4,8.8-9.6,8.8c-0.2,0-0.4-3.5-0.4-7.8c0-6.2-0.2-8-1-8.8
		C391.9,125.6,388.9,125.7,387.4,127.2 M429.5,127.4c-2,2.1-1.9,2.4,4.3,21.5c5.8,17.9,6.8,19.8,9.7,19.8c2.7,0,3.3-1.2,6.4-12.1
		c1.6-5.7,3.1-10.5,3.3-10.8c0.2-0.3,1.8,4.2,3.4,10c3.6,12.5,4.6,14,8.4,12.6c1.8-0.7,2.1-1.4,8.2-20.5c6.2-19.4,6.3-22,1.4-22
		c-2.8,0-3.7,1.7-7.5,13.6l-3.6,11.1l-3.3-11.6c-3.4-11.9-4.1-13.1-7-13.1c-2.5,0-3.2,1.4-6.5,13.2c-1.7,5.8-3.2,10.4-3.5,10.1
		c-0.2-0.3-1.9-5.1-3.7-10.8C435.3,125.5,433.3,123.3,429.5,127.4 M496.2,127.1c-3,3.3-17.5,37.4-16.6,39c2.2,4,5.2,3.7,8.4-1
		c5-7.2,16.9-12.9,18.5-8.8c3.9,10.4,6.5,13.5,9.9,12.2c3.1-1.1,2.9-5.7-0.4-11.7c-0.3-0.6-3.5-7.5-7-15.2
		c-3.5-7.8-6.8-14.5-7.3-14.9C500.1,125.6,497.4,125.8,496.2,127.1 M519.6,127.2c-2,2-1.6,3.3,5.3,19.5c9.5,22,9,21.1,11,21.8
		c3.5,1.2,4.1,0.4,12.3-18.4c9.1-20.7,9.6-24.1,3.9-24.1c-2.5,0-3.3,1.4-9.2,15.7c-5,12-5.7,13.2-6.2,11.9
		c-0.4-0.8-2.8-6.8-5.4-13.1C524.9,125,523.4,123.4,519.6,127.2 M568.7,126.4c-3.7,0.7-3.9,1.9-3.9,20.6c0,23.2-1.2,21.6,16.6,21.6
		c13.6,0,15.4-0.5,15.4-4.3c0-3.4-1.2-3.8-12.7-3.8h-10.4V156v-4.4h5.7c6.6,0,9.3-1.5,8.4-4.9c-0.7-2.7-1.3-2.9-7.7-3.3l-6.1-0.3
		v-4.1V135l10.3-0.4c12-0.4,10.5-0.1,11.3-2.3c1-2.6,0.2-4.5-2.2-5.5C591.2,126,572.5,125.6,568.7,126.4 M599.2,127.2
		c-3,3-1.1,7.5,3.2,7.5c3.8,0,5.5-4,3-7.1C603.8,125.6,601,125.4,599.2,127.2 M604.6,128.8c0.8,1.2,0.9,1.9,0.4,3
		c-0.6,1.3-0.7,1.2-0.7-0.9c-0.1-2.7-0.3-3-2.2-2.6c-1.6,0.3-2.5,4.5-0.9,4.5c0.3,0,0.6-0.5,0.6-1.1c0-0.9,0.1-0.9,0.9,0.2
		c1.3,1.7,1.2,2.1-0.4,2c-1.8-0.1-2.9-1.5-3-3.6C599.2,127,602.8,126,604.6,128.8 M204.9,131.6c-0.4,1.1-0.8,1.8-0.9,1.7
		c-0.3-0.3,0.9-3.6,1.3-3.6C205.4,129.7,205.3,130.6,204.9,131.6 M317.6,135.2c2.3,1.1,5.6,4.6,6.5,7c0.9,2.3,1.2,7.5,0.5,7.9
		c-0.3,0.2-0.5,0.6-0.3,0.9c1.1,1.8-5,8.2-9,9.4c-5.8,1.7-13.8-3.3-14.8-9.1c-0.4-2.2-0.6-6.1-0.4-6.7c0.1-0.3,0.2-0.7,0.2-0.9
		c0.8-3.7,5.8-8.9,8.8-9.2c0.9-0.1,1.8-0.4,2-0.6C311.9,133.3,315,133.9,317.6,135.2 M366.4,136.3c4.5,4.5,0.7,8-8.8,7.7l-6.9-0.2
		l-0.2-3.7c-0.3-5.6-0.5-5.4,7.4-5.4C364.5,134.7,365,134.8,366.4,136.3 M502,146.9c0,0.5-6.9,3-7.3,2.6c-0.1-0.1,0.9-2.3,2.1-4.8
		l2.3-4.7l1.4,3.1C501.3,144.9,502,146.6,502,146.9"/>
	<path id="path7" class="st6" d="M197.9,101.4c-7.2,17.3-7.2,17.2-9.7,23.3c-1,2.6-3.5,8.6-5.4,13.4l-3.5,8.7l0.1,22
		c0.1,12.1,0.1,22.4,0.1,22.9c0,0.5-0.2,1.5-0.4,2.2c-0.2,0.7,0.4-0.6,1.5-2.8c1.1-2.2,1.8-4.4,1.6-4.9c-0.2-0.5-0.1-0.7,0.2-0.5
		c0.5,0.3,2.6-4.3,3-6.3c0.1-0.4,0.7-2,1.4-3.6c0.7-1.6,1.3-3.1,1.4-3.4c0.1-0.3,0.4-1,0.8-1.7s0.7-1.5,0.8-1.9
		c0.1-0.3,1.9-4.9,4-10c2.1-5.2,5.3-12.8,6.9-16.9c1.7-4.1,3.5-8.6,4-9.9c1.2-2.9,0.7-3.2-0.6-0.3c-0.8,1.8-0.9-0.4-0.9-19.8
		c0-14.3,0.2-22.2,0.6-23.1c0.4-0.7,0.6-1.5,0.5-1.8C204.2,86.8,201.3,93.2,197.9,101.4 M142.5,96.9c1,0.1,2.4,0.1,3.1,0
		c0.8-0.1,0-0.3-1.7-0.3C142.2,96.7,141.5,96.8,142.5,96.9 M149.5,118.6c-1.2,1.4-3,4.8-2.6,5.2c0.1,0.1,1.1-1.3,2.2-3.2
		C151.2,116.8,151.3,116.5,149.5,118.6 M168.1,151.4c0,0.4,0.8,3,1.8,6c1,2.9,1.9,5,1.9,4.6c0-0.4-0.8-3-1.8-6
		C169,153.1,168.1,151,168.1,151.4 M170.1,199.1c0.6,0.2,1.6,0.2,2.2,0c0.6-0.2,0.1-0.3-1.1-0.3C170,198.8,169.5,198.9,170.1,199.1"
		/>
	<path id="path9" class="st7" d="M139.2,97.7c0,0.2-0.6,0.7-1.4,1c-0.8,0.4-1.3,1-1.3,1.4c0.1,0.4-0.1,0.8-0.5,0.8s-0.5,0.3-0.3,0.6
		c0.2,0.3,0.1,0.6-0.3,0.6s-0.5,0.3-0.3,0.6s0.1,0.6-0.3,0.6s-0.5,0.4-0.3,0.9c0.2,0.5,0,0.9-0.4,0.9c-0.4,0-0.6,0.3-0.3,0.6
		c0.2,0.3,0.1,0.6-0.1,0.6s-0.6,0.6-0.6,1.4c-0.1,0.8-0.4,1.5-0.8,1.6c-0.4,0.1-0.5,0.5-0.3,0.8s0,0.6-0.3,0.6s-0.5,0.3-0.4,0.6
		c0.3,0.5-2.4,7.7-6,16.1c-0.7,1.5-0.8,6.5-0.5,24.1c0.3,22.1,0.3,22.2-1.1,25.9c-0.8,2-1.3,3.8-1.2,3.9c0.5,0.5,6.2-14.2,5.7-14.9
		c-0.3-0.4-0.2-0.6,0.2-0.3c0.8,0.5,1.7-1.8,1-2.8c-0.3-0.5-0.2-0.6,0.4-0.2c0.6,0.4,0.7,0.2,0.4-0.6c-0.2-0.6-0.2-0.9,0.1-0.8
		c0.4,0.3,9.1-19.5,9.2-20.9c0-0.2,0.5-1.3,1.1-2.4c0.6-1.1,1-2.1,1-2.2c-0.1-0.1,0.2-0.7,0.6-1.4c0.7-1.2,0.7-1.2,1.3,0.3
		c1.1,2.8,13.1,39.4,16.4,49.9c3.3,10.5,5.4,13.9,7.9,13c0.5-0.2,0.9-0.1,0.9,0.2c0,0.9,6.1-0.2,7.9-1.4c2.9-1.9,3.1-3.4,2.8-27.3
		l-0.3-22.2l2.1-4.9c1.1-2.7,1.9-5.1,1.8-5.2c-0.5-0.5-4.9,11-4.5,11.7c0.3,0.5,0.2,0.6-0.2,0.4c-0.4-0.2-1.7,2.2-3.4,6.2
		c-2.2,5.4-3.7,7.9-3.7,6.3c0-0.2-1.4-4.9-3.2-10.5c-1.7-5.6-3.2-10.6-3.4-11.1c-0.1-0.5-0.4-1.4-0.7-2c-0.3-0.6-0.5-1.4-0.6-1.9
		c-0.1-0.5-0.4-1.3-0.6-1.9c-0.3-0.6-0.6-1.6-0.7-2.2c-0.1-0.6-0.3-1.2-0.3-1.3c-0.1-0.1-0.2-0.4-0.3-0.6c-0.1-0.3-0.3-0.9-0.6-1.5
		c-0.3-0.6-0.6-1.6-0.7-2.2c-0.1-0.6-0.3-1.2-0.3-1.3c-0.1-0.1-0.2-0.4-0.3-0.8c-0.1-0.3-0.2-0.8-0.3-0.9c-0.1-0.2-0.2-0.5-0.3-0.8
		c-0.1-0.3-0.3-0.9-0.5-1.4c-1.1-2.5-2.2-6.3-1.9-6.3c0.2,0,0-0.4-0.4-0.9c-0.4-0.5-0.6-0.9-0.3-0.9s0.2-0.4-0.2-0.8
		c-0.4-0.5-0.8-1.4-0.9-2c-0.1-0.7-0.6-2-1-3c-0.4-1-0.7-2.1-0.7-2.5c0-1.7-2.6-5.9-4.4-6.9C146.8,97.1,139.2,96.7,139.2,97.7
		 M149,120.6c-2.1,3.6-2.9,4.2-1.6,1.2c0.7-1.6,2.9-4.6,3.4-4.6C151,117.2,150.1,118.7,149,120.6 M99.7,128.7
		c-1.6,1.6-6.8,13.6-6.8,15.6c0,0.6,0.6,2.6,1.4,4.3l1.4,3.2l5.5-11.2c5-10.3,5.4-11.3,4.5-12.3C104.1,126.7,101.4,126.9,99.7,128.7
		 M17,49.5"/>
</g>
</svg>
